<svg id="confirm-icon" xmlns="http://www.w3.org/2000/svg" width="506.4" height="506.4" viewBox="0 0 506.4 506.4">
  <circle id="Elipse_1" data-name="Elipse 1" cx="249.2" cy="249.2" r="249.2" transform="translate(4 4)" fill="#efb542"/>
  <path id="Caminho_1" data-name="Caminho 1" d="M372.8,200.4l-11.2-11.2a11.838,11.838,0,0,0-16.4,0L232,302.4l-69.6-69.6a11.838,11.838,0,0,0-16.4,0L134.4,244a11.838,11.838,0,0,0,0,16.4l89.2,89.2a11.838,11.838,0,0,0,16.4,0h0l10.4-10.4.8-.8,43.153-43.153L372.8,216.8A11.835,11.835,0,0,0,372.8,200.4Z" fill="#f4efef"/>
  <path id="Caminho_2" data-name="Caminho 2" d="M253.2,506.4C113.6,506.4,0,392.8,0,253.2S113.6,0,253.2,0,506.4,113.6,506.4,253.2,392.8,506.4,253.2,506.4ZM253.2,8C118,8,8,118,8,253.2S118,498.4,253.2,498.4s245.2-110,245.2-245.2S388.4,8,253.2,8Z" fill="none"/>
  <path id="Caminho_3" data-name="Caminho 3" d="M231.6,357.2a17.19,17.19,0,0,1-11.2-4.4l-89.2-89.2a15.694,15.694,0,0,1,0-22L142.8,230c6-6,16.4-6,22,0l66.8,66.8L342,186.4a15.712,15.712,0,0,1,11.2-4.4,17.19,17.19,0,0,1,11.2,4.4l11.2,11.2h0a15.694,15.694,0,0,1,0,22L242.8,352.4A15.8,15.8,0,0,1,231.6,357.2ZM154,233.6a7.9,7.9,0,0,0-5.6,2.4l-11.6,11.6a7.993,7.993,0,0,0,0,10.8L226,347.6a7.993,7.993,0,0,0,10.8,0L369.6,214.8a7.993,7.993,0,0,0,0-10.8l-11.2-11.2a7.993,7.993,0,0,0-10.8,0L234.4,306a3.867,3.867,0,0,1-5.6,0l-69.6-69.6A5.829,5.829,0,0,0,154,233.6Z" fill="none"/>
</svg>
