<svg xmlns="http://www.w3.org/2000/svg" xmlns:xlink="http://www.w3.org/1999/xlink" width="646" height="292" viewBox="0 0 646 292">
  <defs>
    <clipPath id="clip-path">
      <rect id="Retângulo_2" data-name="Retângulo 2" width="381" height="150" transform="translate(-0.133 0.333)"/>
    </clipPath>
  </defs>
  <g id="Grupo_2" data-name="Grupo 2" transform="translate(-238 -377)">
    <g id="Web_1920_7" data-name="Web 1920 – 7" transform="translate(375.133 448.667)" clip-path="url(#clip-path)">
      <rect id="Retângulo_1" data-name="Retângulo 1" width="381" height="150" transform="translate(-0.133 0.333)" fill="rgba(255,255,255,0)"/>
      <g id="freepik--Pin--inject-1--inject-79" transform="translate(0 0.706)">
        <g id="freepik--pin--inject-1--inject-79-2" data-name="freepik--pin--inject-1--inject-79" transform="translate(0)">
          <path id="Caminho_16" data-name="Caminho 16" d="M353.009,158.195h0l-.463-.267L338.172,149.7a19.817,19.817,0,0,0-11.226-3.288c-5.026,0-10.1,1.821-16.072,5.145-20.872,11.565-38.7,44.913-38.7,66.809V224.4c0,26.536,34.9,58.928,34.9,58.928l14.471,8.36a.062.062,0,0,0,.062.025c-.482-.571,15.378-23.712,30.354-68.852C368.495,172.873,353.318,158.483,353.009,158.195Zm-24.427,79.342c-11.833,6.827-21.726,3.251-24.532-7.764-5.417-.746-9.333-4.913-10.543-11.756-1.516-22.12,10.222-39.712,27.036-46.853,7.2-2.619,13.212-.751,16.432,4.661,9.878-1.7,16.947,5.073,16.947,17.821C353.925,209.8,342.565,229.464,328.582,237.537Z" transform="translate(-272.17 -146.406)" fill="#b19357"/>
          <path id="Caminho_17" data-name="Caminho 17" d="M384.012,221.168c0,16.154-11.344,35.818-25.343,43.889-11.833,6.827-21.726,3.251-24.532-7.763,3.555.515,7.753-.438,12.266-3.046,12.817-7.393,23.2-25.389,23.2-40.175a20.8,20.8,0,0,0-2.541-10.727C376.943,201.649,384.012,208.419,384.012,221.168Z" transform="translate(-302.257 -173.927)" fill="#b79759"/>
          <path id="Caminho_18" data-name="Caminho 18" d="M343.44,290.748l8.041,4.646V279.816l-8.041-4.646Z" transform="translate(-306.774 -208.924)" fill="#c53f3f"/>
          <path id="Caminho_19" data-name="Caminho 19" d="M343.44,290.748l8.041,4.646V279.816l-8.041-4.646Z" transform="translate(-306.774 -208.924)" opacity="0.2"/>
          <path id="Caminho_20" data-name="Caminho 20" d="M382.849,241.916l-18.64-8.736L345.57,263.442l6.946-4.013v15.578l8.807-5.084V259.731l5.767-3.328v10.186l8.821-5.093V245.918Z" transform="translate(-307.807 -188.537)" fill="#c53f3f"/>
          <path id="Caminho_21" data-name="Caminho 21" d="M348.569,224.15l8.046,4.646-18.639,30.262-8.046-4.646Z" transform="translate(-300.214 -184.153)" fill="#c53f3f"/>
          <path id="Caminho_22" data-name="Caminho 22" d="M348.569,224.15l8.046,4.646-18.639,30.262-8.046-4.646Z" transform="translate(-300.214 -184.153)" opacity="0.1"/>
          <path id="Caminho_23" data-name="Caminho 23" d="M366.16,224.15l8.046,4.646,18.639,8.736-8.046-4.646Z" transform="translate(-317.804 -184.153)" fill="#c53f3f"/>
          <path id="Caminho_24" data-name="Caminho 24" d="M366.16,224.15l8.046,4.646,18.639,8.736-8.046-4.646Z" transform="translate(-317.804 -184.153)" fill="#fff" opacity="0.4"/>
          <path id="Caminho_25" data-name="Caminho 25" d="M376.19,291.84l5.767-3.334V278.32l-5.767,3.328Z" transform="translate(-322.674 -210.454)" fill="#c53f3f"/>
          <path id="Caminho_26" data-name="Caminho 26" d="M376.19,291.84l5.767-3.334V278.32l-5.767,3.328Z" transform="translate(-322.674 -210.454)" opacity="0.2"/>
          <path id="Caminho_27" data-name="Caminho 27" d="M367.289,166.691h0l-.463-.267c-6.977-3.92-16.3-3.4-26.542,2.51-15.436,8.926-28.81,27.673-35.134,47.332-2.51,7.795-3.57,11.922-3.57,19.457v6.055c0,20.45,22.8,47.962,33.467,57.781a4.813,4.813,0,0,0,.777.586.062.062,0,0,0,.062.025,5.237,5.237,0,0,0,7.46-2.161c9.189-18.813,35.981-75.533,35.981-97.528v-6.035C379.325,180.813,374.717,171.157,367.289,166.691ZM318.331,238.27c-.144-.561-.276-1.147-.38-1.749a27.7,27.7,0,0,1-.432-5.114c0-16.154,11.319-35.812,25.343-43.885a30.274,30.274,0,0,1,4.63-2.181,21.834,21.834,0,0,1,3.771-1.029c9.878-1.7,16.947,5.073,16.947,17.821,0,16.154-11.344,35.818-25.343,43.889C331.044,252.861,321.135,249.283,318.331,238.27Z" transform="translate(-286.449 -154.903)" fill="#efb542"/>
        </g>
      </g>
    </g>
    <text id="LOGOhere" transform="translate(238 596)" fill="#8a1d26" font-size="199" font-family="Poppins-Bold, Poppins" font-weight="700"><tspan x="0" y="0">h</tspan></text>
    <text id="LOGOhere-2" data-name="LOGOhere" transform="translate(474 596)" fill="#8a1d26" font-size="209" font-family="Poppins-Bold, Poppins" font-weight="700"><tspan x="0" y="0">me.</tspan></text>
  </g>
</svg>
