<svg xmlns="http://www.w3.org/2000/svg" xmlns:xlink="http://www.w3.org/1999/xlink" width="541.106" height="276.423" viewBox="0 0 541.106 276.423">
  <defs>
    <clipPath id="clip-path">
      <rect id="Retângulo_2" data-name="Retângulo 2" width="248" height="97" transform="translate(0 0)"/>
    </clipPath>
  </defs>
  <g id="Grupo_4" data-name="Grupo 4" transform="translate(-746.072 -335.433)">
    <g id="Grupo_3" data-name="Grupo 3" transform="translate(746.072 335.433)">
      <path id="icons8-casa" d="M271.553,3,1,114.988l4.3,2.931c11.931,8.166,34.712,9.575,50.081,3.1L271.553,29.877,487.73,121.016c15.369,6.477,38.15,5.069,50.081-3.1l4.3-2.931L463.559,82.477V25.4H385.011V49.965Zm0,44.8L62.093,132.906V240.415H481.014v-94.07Zm-52.365,94.07h104.73V222.5H219.188Z" transform="translate(-1 -3)" fill="#fcf7f7"/>
      <g id="Caminho_24" data-name="Caminho 24" transform="translate(197.89 81.032)" fill="#fcf7f7">
        <path d="M0,0H138.606V144.033H0Z" stroke="none"/>
        <path d="M 1 1 L 1 143.0328063964844 L 137.6064758300781 143.0328063964844 L 137.6064758300781 1 L 1 1 M 0 0 L 138.6064758300781 0 L 138.6064758300781 144.0328063964844 L 0 144.0328063964844 L 0 0 Z" stroke="none" fill="rgba(112,112,112,0)"/>
      </g>
    </g>
    <g id="Grupo_2" data-name="Grupo 2" transform="translate(806 420.857)">
      <g id="Web_1920_7" data-name="Web 1920 – 7" transform="translate(89 47)" clip-path="url(#clip-path)">
        <rect id="Retângulo_1" data-name="Retângulo 1" width="248" height="97" transform="translate(0 0)" fill="rgba(255,255,255,0)"/>
        <g id="freepik--Pin--inject-1--inject-79" transform="translate(0.201 0.077)">
          <g id="freepik--pin--inject-1--inject-79-2" data-name="freepik--pin--inject-1--inject-79">
            <path id="Caminho_16" data-name="Caminho 16" d="M324.753,154.074h0l-.3-.174-9.35-5.354a12.891,12.891,0,0,0-7.3-2.139c-3.269,0-6.569,1.185-10.454,3.347-13.577,7.523-25.176,29.215-25.176,43.457v3.925c0,17.261,22.7,38.331,22.7,38.331l9.413,5.438a.04.04,0,0,0,.04.017c-.314-.372,10-15.424,19.744-44.786C334.826,163.622,324.954,154.261,324.753,154.074Zm-15.889,51.61c-7.7,4.441-14.132,2.115-15.958-5.05-3.524-.485-6.071-3.2-6.858-7.647-.986-14.389,6.649-25.831,17.586-30.477,4.685-1.7,8.594-.489,10.689,3.032,6.425-1.1,11.023,3.3,11.023,11.592C325.349,187.642,317.96,200.433,308.864,205.684Z" transform="translate(-272.17 -146.406)" fill="#b19357"/>
            <path id="Caminho_17" data-name="Caminho 17" d="M366.579,214.848c0,10.508-7.379,23.3-16.485,28.549-7.7,4.441-14.132,2.115-15.957-5.05a12.594,12.594,0,0,0,7.979-1.981c8.337-4.809,15.093-16.515,15.093-26.133a13.531,13.531,0,0,0-1.653-6.977C361.981,202.152,366.579,206.556,366.579,214.848Z" transform="translate(-313.4 -184.12)" fill="#b79759"/>
            <path id="Caminho_18" data-name="Caminho 18" d="M343.44,285.3l5.231,3.022V278.192l-5.231-3.022Z" transform="translate(-319.59 -232.079)" fill="#c53f3f"/>
            <path id="Caminho_19" data-name="Caminho 19" d="M343.44,285.3l5.231,3.022V278.192l-5.231-3.022Z" transform="translate(-319.59 -232.079)" opacity="0.2"/>
            <path id="Caminho_20" data-name="Caminho 20" d="M369.819,238.862l-12.125-5.682L345.57,252.864l4.518-2.61v10.133l5.729-3.307v-6.63l3.751-2.165v6.626l5.737-3.313V241.466Z" transform="translate(-321.007 -204.141)" fill="#c53f3f"/>
            <path id="Caminho_21" data-name="Caminho 21" d="M342.054,224.15l5.234,3.022-12.124,19.684-5.234-3.022Z" transform="translate(-310.601 -198.133)" fill="#c53f3f"/>
            <path id="Caminho_22" data-name="Caminho 22" d="M342.054,224.15l5.234,3.022-12.124,19.684-5.234-3.022Z" transform="translate(-310.601 -198.133)" opacity="0.1"/>
            <path id="Caminho_23" data-name="Caminho 23" d="M366.16,224.15l5.234,3.022,12.124,5.682-5.234-3.022Z" transform="translate(-334.706 -198.133)" fill="#c53f3f"/>
            <path id="Caminho_24-2" data-name="Caminho 24" d="M366.16,224.15l5.234,3.022,12.124,5.682-5.234-3.022Z" transform="translate(-334.706 -198.133)" fill="#fff" opacity="0.4"/>
            <path id="Caminho_25" data-name="Caminho 25" d="M376.19,287.115l3.751-2.169V278.32l-3.751,2.165Z" transform="translate(-341.38 -234.175)" fill="#c53f3f"/>
            <path id="Caminho_26" data-name="Caminho 26" d="M376.19,287.115l3.751-2.169V278.32l-3.751,2.165Z" transform="translate(-341.38 -234.175)" opacity="0.2"/>
            <path id="Caminho_27" data-name="Caminho 27" d="M344.321,165.718h0l-.3-.174c-4.538-2.55-10.6-2.208-17.265,1.633-10.041,5.806-18.74,18-22.853,30.788-1.633,5.07-2.322,7.755-2.322,12.656v3.939c0,13.3,14.832,31.2,21.769,37.584a3.131,3.131,0,0,0,.505.381.04.04,0,0,0,.04.017,3.407,3.407,0,0,0,4.852-1.406c5.977-12.238,23.4-49.132,23.4-63.439v-3.925C352.151,174.9,349.154,168.623,344.321,165.718Zm-31.846,46.56c-.094-.365-.179-.746-.247-1.138a18.021,18.021,0,0,1-.281-3.326c0-10.508,7.362-23.295,16.485-28.546a19.693,19.693,0,0,1,3.012-1.419,14.207,14.207,0,0,1,2.453-.669c6.425-1.1,11.023,3.3,11.023,11.592,0,10.508-7.379,23.3-16.485,28.549C320.745,221.768,314.3,219.441,312.476,212.277Z" transform="translate(-291.738 -158.05)" fill="#efb542"/>
          </g>
        </g>
      </g>
      <text id="LOGOhere" transform="translate(0 142)" fill="#8a1d26" font-size="129" font-family="Poppins-Bold, Poppins" font-weight="700"><tspan x="0" y="0">h</tspan></text>
      <text id="LOGOhere-2" data-name="LOGOhere" transform="translate(154 143)" fill="#8a1d26" font-size="136" font-family="Poppins-Bold, Poppins" font-weight="700"><tspan x="0" y="0">me.</tspan></text>
    </g>
  </g>
</svg>
