<svg xmlns="http://www.w3.org/2000/svg" width="48" height="48" viewBox="0 0 48 48">
  <g id="image-1" transform="translate(-12 -12)">
    <g id="color">
      <path id="Caminho_1" data-name="Caminho 1" d="M36,13A23,23,0,1,0,59,36,23.026,23.026,0,0,0,36,13Z" fill="#8a1d26"/>
    </g>
    <g id="line">
      <circle id="Elipse_1" data-name="Elipse 1" cx="23" cy="23" r="23" transform="translate(13 13)" fill="none" stroke="#efb542" stroke-miterlimit="10" stroke-width="2"/>
      <path id="Caminho_2" data-name="Caminho 2" d="M28,46a9.485,9.485,0,0,1,8.421-4A9.255,9.255,0,0,1,44,46" fill="none" stroke="#efb542" stroke-linecap="round" stroke-linejoin="round" stroke-miterlimit="10" stroke-width="2"/>
      <path id="Caminho_3" data-name="Caminho 3" d="M30,32.925a3,3,0,1,1-3-3,3,3,0,0,1,3,3" fill="#efb542"/>
      <path id="Caminho_4" data-name="Caminho 4" d="M48,32.925a3,3,0,1,1-3-3,3,3,0,0,1,3,3" fill="#efb542"/>
      <line id="Linha_1" data-name="Linha 1" x2="7" y2="4" transform="translate(23 24)" fill="none" stroke="#efb542" stroke-linecap="round" stroke-linejoin="round" stroke-miterlimit="10" stroke-width="2"/>
      <line id="Linha_2" data-name="Linha 2" x1="7" y2="4" transform="translate(42 24)" fill="none" stroke="#efb542" stroke-linecap="round" stroke-linejoin="round" stroke-miterlimit="10" stroke-width="2"/>
    </g>
  </g>
</svg>
