<svg xmlns="http://www.w3.org/2000/svg" width="48" height="48" viewBox="0 0 48 48">
  <g id="image-2" transform="translate(-12 -12)">
    <g id="color">
      <path id="Caminho_5" data-name="Caminho 5" d="M36,13A23,23,0,1,0,59,36,23.026,23.026,0,0,0,36,13Z" fill="#efb542"/>
    </g>
    <g id="line">
      <circle id="Elipse_2" data-name="Elipse 2" cx="23" cy="23" r="23" transform="translate(13 13)" fill="none" stroke="#8a1d26" stroke-miterlimit="10" stroke-width="2"/>
      <path id="Caminho_6" data-name="Caminho 6" d="M30,31a3,3,0,1,1-3-3,3,3,0,0,1,3,3" fill="#8a1d26"/>
      <path id="Caminho_7" data-name="Caminho 7" d="M48,31a3,3,0,1,1-3-3,3,3,0,0,1,3,3" fill="#8a1d26"/>
      <path id="Caminho_8" data-name="Caminho 8" d="M28,46a9.485,9.485,0,0,1,8.421-4A9.255,9.255,0,0,1,44,46" fill="none" stroke="#8a1d26" stroke-linecap="round" stroke-linejoin="round" stroke-miterlimit="10" stroke-width="2"/>
    </g>
  </g>
</svg>
