<svg xmlns="http://www.w3.org/2000/svg" width="967.337" height="781.325" viewBox="0 0 967.337 781.325">
  <g id="Login-amico_1_" data-name="Login-amico (1)" transform="translate(-27.762 -63.955)">
    <g id="freepik--Shadow--inject-35" transform="translate(27.762 454.887)">
      <path id="freepik--shadow--inject-35-2" data-name="freepik--shadow--inject-35" d="M399.2,447.156c-35.237-20.344-35.237-53.323,0-73.667s92.37-20.344,127.607,0,35.237,53.323,0,73.667S434.438,467.5,399.2,447.156Z" transform="translate(414.102 -72.021)" fill="#e0e0e0"/>
      <path id="freepik--shadow--inject-35-3" data-name="freepik--shadow--inject-35" d="M124.368,610.7,31.68,557.2c-5.223-3.011-5.223-7.914,0-10.925L570.821,235a20.914,20.914,0,0,1,18.907,0L682.44,288.5c5.223,3.011,5.223,7.914,0,10.925L143.3,610.7a20.96,20.96,0,0,1-18.93,0Z" transform="translate(-27.763 -232.74)" fill="#e0e0e0"/>
    </g>
    <g id="freepik--Window--inject-35" transform="translate(188.618 63.955)">
      <g id="freepik--window--inject-35-2" data-name="freepik--window--inject-35" transform="translate(0 0)">
        <g id="freepik--window--inject-35-3" data-name="freepik--window--inject-35">
          <g id="freepik--window--inject-35-4" data-name="freepik--window--inject-35">
            <path id="Caminho_1" data-name="Caminho 1" d="M615.375,60.484a4.926,4.926,0,0,0-5.063.388L102.439,354.264a15.3,15.3,0,0,0-6.842,12.02v348.2a6.842,6.842,0,0,0,2.942,6.044c1.118.616,7.093,4.083,8.872,5.04a3.991,3.991,0,0,0,4.014-.228L619.184,431.946a15.3,15.3,0,0,0,6.842-12.019v-350a4.789,4.789,0,0,0-2.144-4.561C622.742,64.612,616.652,61.236,615.375,60.484Z" transform="translate(-95.47 -59.947)" fill="#c53f3f"/>
            <path id="Caminho_2" data-name="Caminho 2" d="M106.322,356.4l507.9-293.279c3.832-2.281,6.842-.411,6.842,4.014v350a15.3,15.3,0,0,1-6.842,12.019l-507.9,293.393c-3.832,2.281-6.842-1.391-6.842-5.816V368.416a15.349,15.349,0,0,1,6.842-12.019Z" transform="translate(-90.48 -57.153)" fill="#fafafa"/>
            <path id="Caminho_3" data-name="Caminho 3" d="M617.32,64.431h0c1.346,0,1.551,1.688,1.551,2.691v350a12.955,12.955,0,0,1-5.816,10.035L105.227,720.551a2.281,2.281,0,0,1-1.14.365c-1.277,0-2.281-1.961-2.281-4.2V368.406a13.091,13.091,0,0,1,5.7-10.1L615.358,65.069a4.037,4.037,0,0,1,1.961-.639m0-2.281a6.386,6.386,0,0,0-3.1.958l-507.9,293.279a15.349,15.349,0,0,0-6.842,12.019V716.719c0,3.512,1.961,6.477,4.561,6.477a4.561,4.561,0,0,0,2.281-.661L614.195,429.142a15.3,15.3,0,0,0,6.842-12.019v-350c0-3.147-1.551-4.972-3.832-4.972Z" transform="translate(-90.48 -57.143)" fill="#e0e0e0"/>
            <path id="Caminho_4" data-name="Caminho 4" d="M98.467,535.9c.753.388,6.158,3.467,8.53,4.835a7.093,7.093,0,0,1-2.554-5.839V209.32l-8.895-5.2V529.854a6.842,6.842,0,0,0,2.919,6.044Z" transform="translate(-95.534 124.682)" fill="#f0f0f0"/>
            <path id="Caminho_5" data-name="Caminho 5" d="M621.151,67.05c0-4.379-3.125-6.158-6.842-3.946L106.322,356.383A15.349,15.349,0,0,0,99.48,368.4V391.21L621.151,89.857Z" transform="translate(-90.48 -57.14)" fill="#8a1d26"/>
            <g id="Grupo_1" data-name="Grupo 1" transform="translate(2.135)" opacity="0.4">
              <path id="Caminho_6" data-name="Caminho 6" d="M618.073,65.919l-507.9,293.256a14.254,14.254,0,0,0-4.881,5.177l-8.826-5.132a13.685,13.685,0,0,1,4.835-4.949L609.178,60.879a4.927,4.927,0,0,1,5.063-.411c1.232.775,7,4.037,8.484,4.835a5.017,5.017,0,0,0-4.653.616Z" transform="translate(-96.47 -59.955)" fill="#fff"/>
            </g>
            <path id="Caminho_7" data-name="Caminho 7" d="M95.54,220.728v-22.6a14.255,14.255,0,0,1,2.121-6.956l8.849,5.109a13.867,13.867,0,0,0-2.075,6.842v22.807Z" transform="translate(-95.527 108.096)" opacity="0.15"/>
          </g>
        </g>
        <path id="Caminho_8" data-name="Caminho 8" d="M454.917,180.109,150.736,355.725a11.2,11.2,0,0,0-5.086,8.781v87.215a11.2,11.2,0,0,0,5.086,8.781l8.872,5.109a11.267,11.267,0,0,0,10.172,0L473.915,289.995a11.244,11.244,0,0,0,5.086-8.8V193.953a11.2,11.2,0,0,0-5.086-8.781l-8.895-5.109a11.2,11.2,0,0,0-10.1.046Z" transform="translate(-31.349 92.359)" fill="#c53f3f"/>
        <path id="Caminho_9" data-name="Caminho 9" d="M478.156,193.159c-.365-2.623-2.486-3.581-5.04-2.1L168.935,366.676a10.24,10.24,0,0,0-3.581,3.786L146.31,359.469a10.423,10.423,0,0,1,3.558-3.74l304.2-175.616a11.2,11.2,0,0,1,10.149,0l8.895,5.109A11.4,11.4,0,0,1,478.156,193.159Z" transform="translate(-30.504 92.378)" fill="#fff" opacity="0.5"/>
        <path id="Caminho_10" data-name="Caminho 10" d="M168.913,364.626a11.4,11.4,0,0,1-9.283-.411l-8.895-5.109a11.244,11.244,0,0,1-5.086-8.781V263.11a10.56,10.56,0,0,1,1.505-5.04L166.2,269.063a10.217,10.217,0,0,0-1.505,4.995V361.3C164.694,364.192,166.519,365.538,168.913,364.626Z" transform="translate(-31.349 193.777)" fill="#263238"/>
        <path id="Caminho_11" data-name="Caminho 11" d="M159.06,360.237,463.241,184.621c2.805-1.619,5.086-.319,5.086,2.919v87.238a11.244,11.244,0,0,1-5.086,8.8L159.106,459.2c-2.805,1.619-5.086.3-5.086-2.942V369.041A11.244,11.244,0,0,1,159.06,360.237Z" transform="translate(-20.63 98.817)" fill="#8a1d26"/>
        <path id="Caminho_12" data-name="Caminho 12" d="M373.4,199.84,149.888,328.906a10.423,10.423,0,0,0-3.558,3.74l19.044,10.993a10.24,10.24,0,0,1,3.581-3.786L392.466,210.81Z" transform="translate(-30.478 119.2)" fill="#455a64"/>
        <path id="Caminho_13" data-name="Caminho 13" d="M382.6,204.65,159.086,333.694A11.244,11.244,0,0,0,154,342.5v87.192c0,3.239,2.281,4.561,5.086,2.942L382.6,303.588Z" transform="translate(-20.655 125.361)" fill="#37474f"/>
        <path id="Caminho_14" data-name="Caminho 14" d="M183.7,294.657l115.336-66.574c4.767-2.76,8.644-.8,8.644,4.379a18.543,18.543,0,0,1-8.667,14.369L183.7,313.427c-4.767,2.76-8.667.8-8.667-4.379A18.611,18.611,0,0,1,183.7,294.657Z" transform="translate(6.279 153.77)" fill="#efb542"/>
        <path id="Caminho_15" data-name="Caminho 15" d="M194.7,266.283a.228.228,0,0,1,.342,0,.844.844,0,0,1,.137.525v12.977a21.761,21.761,0,0,1-.319,3.74,14.484,14.484,0,0,1-.958,3.284,11.655,11.655,0,0,1-1.6,2.691,8.371,8.371,0,0,1-2.281,1.893,4.219,4.219,0,0,1-2.281.684,2.281,2.281,0,0,1-1.6-.844,5.131,5.131,0,0,1-.958-2.281,15.759,15.759,0,0,1-.3-3.353v-13a1.641,1.641,0,0,1,.137-.661.821.821,0,0,1,.342-.456l1.437-.844a.251.251,0,0,1,.342,0,.8.8,0,0,1,.137.525v12.818a8.644,8.644,0,0,0,.205,2.1,2.281,2.281,0,0,0,.547,1.186,1.026,1.026,0,0,0,.844.365,2.282,2.282,0,0,0,1.095-.365,4.923,4.923,0,0,0,1.095-.889,5.406,5.406,0,0,0,.867-1.368,8.6,8.6,0,0,0,.57-1.825,12.039,12.039,0,0,0,.182-2.281v-12.84a1.665,1.665,0,0,1,.16-.661.821.821,0,0,1,.342-.456Z" transform="translate(18.905 204.197)" fill="#fafafa"/>
        <path id="Caminho_16" data-name="Caminho 16" d="M196.327,278.17a.822.822,0,0,0-.114-.479.5.5,0,0,0-.433-.159,3.126,3.126,0,0,0-.844,0l-1.323.251a2.69,2.69,0,0,1-1.3,0,1.573,1.573,0,0,1-.821-.616,3.259,3.259,0,0,1-.433-1.209,8.528,8.528,0,0,1,.73-5.725,9.851,9.851,0,0,1,1.14-1.825,5.726,5.726,0,0,1,1.551-1.346,3.945,3.945,0,0,1,1.574-.547,1.916,1.916,0,0,1,1.163.251,1.892,1.892,0,0,1,.753.867,3.627,3.627,0,0,1,.3,1.346,1.117,1.117,0,0,1-.137.661.821.821,0,0,1-.342.456l-1.368.8a.41.41,0,0,1-.411,0l-.3-.228a.753.753,0,0,0-.411-.16,1.872,1.872,0,0,0-.821.3,3.515,3.515,0,0,0-.935.821,1.984,1.984,0,0,0-.411,1.254,1.435,1.435,0,0,0,0,.525.525.525,0,0,0,.388.228,2.282,2.282,0,0,0,.753,0l1.277-.228a2.157,2.157,0,0,1,2.281.593,4.789,4.789,0,0,1,.661,2.805,8,8,0,0,1-.274,2.007,9.739,9.739,0,0,1-.775,2.053,8.664,8.664,0,0,1-1.254,1.87,6.455,6.455,0,0,1-1.665,1.391,3.717,3.717,0,0,1-1.665.57,2.052,2.052,0,0,1-1.209-.342,2.1,2.1,0,0,1-.775-.981A3.422,3.422,0,0,1,190.6,282a1.232,1.232,0,0,1,.137-.684.821.821,0,0,1,.342-.456l1.368-.8c.182,0,.319-.114.411,0l.3.319a.684.684,0,0,0,.479.228,1.46,1.46,0,0,0,.889-.3,4.264,4.264,0,0,0,1.095-.889,2.828,2.828,0,0,0,.388-.616,1.368,1.368,0,0,0,.319-.639Z" transform="translate(26.217 204.581)" fill="#fafafa"/>
        <path id="Caminho_17" data-name="Caminho 17" d="M195.15,275.372a20.363,20.363,0,0,1,.3-3.535,17.011,17.011,0,0,1,.889-3.216A10.949,10.949,0,0,1,197.7,266a5.863,5.863,0,0,1,1.825-1.711,2.486,2.486,0,0,1,1.8-.388,2.281,2.281,0,0,1,1.368.935,5.7,5.7,0,0,1,.89,2.053,12.729,12.729,0,0,1,.319,2.919v1.414a1.368,1.368,0,0,1-.16.684.821.821,0,0,1-.342.456l-5.93,3.444a3.56,3.56,0,0,0,.16,1.186,1.482,1.482,0,0,0,.456.661.958.958,0,0,0,.661.205,1.871,1.871,0,0,0,.776-.274,3.307,3.307,0,0,0,.912-.73,4.175,4.175,0,0,0,.593-.867,6.031,6.031,0,0,1,.319-.525,1.457,1.457,0,0,1,.342-.3l1.414-.821a.274.274,0,0,1,.342,0,.639.639,0,0,1,.137.525,4.4,4.4,0,0,1-.274,1.3,9.894,9.894,0,0,1-.775,1.825,10.47,10.47,0,0,1-1.277,1.87,6.841,6.841,0,0,1-1.733,1.482,2.759,2.759,0,0,1-1.825.433,2.28,2.28,0,0,1-1.368-.958,6.042,6.042,0,0,1-.89-2.281A15.507,15.507,0,0,1,195.15,275.372Zm4.379-7.276a2.667,2.667,0,0,0-.889.775,4.377,4.377,0,0,0-.616,1.049,7.728,7.728,0,0,0-.388,1.163,7.466,7.466,0,0,0-.16,1.095l4.014-2.281a6.626,6.626,0,0,0-.137-.935,1.505,1.505,0,0,0-.319-.753.866.866,0,0,0-.593-.365,1.368,1.368,0,0,0-.912.251Z" transform="translate(32.046 201.199)" fill="#fafafa"/>
        <path id="Caminho_18" data-name="Caminho 18" d="M204.565,265.49a3.671,3.671,0,0,0-1.551,1.733,7.845,7.845,0,0,0-.479,3.01v8.233a1.665,1.665,0,0,1-.137.684.821.821,0,0,1-.342.456l-1.346.775a.228.228,0,0,1-.342,0,.844.844,0,0,1-.137-.525V265.1a1.826,1.826,0,0,1,.137-.684.935.935,0,0,1,.342-.456l1.346-.775a.251.251,0,0,1,.342,0,.73.73,0,0,1,.137.5v.73a9.4,9.4,0,0,1,1-1.733,4.151,4.151,0,0,1,1.368-1.209l.821-.479a.228.228,0,0,1,.319,0,.844.844,0,0,1,.16.525V263.6a1.665,1.665,0,0,1-.16.684.935.935,0,0,1-.319.456Z" transform="translate(38.552 197.442)" fill="#fafafa"/>
        <path id="Caminho_19" data-name="Caminho 19" d="M214.24,270.633a.228.228,0,0,1,.342,0,.844.844,0,0,1,.137.525v2.281a1.825,1.825,0,0,1-.137.684,1.186,1.186,0,0,1-.342.433l-7.8,4.561a.251.251,0,0,1-.342,0,.776.776,0,0,1-.137-.5V258.089a1.825,1.825,0,0,1,.137-.684.866.866,0,0,1,.342-.433l1.437-.844a.251.251,0,0,1,.342,0,.776.776,0,0,1,.137.5v17.356Z" transform="translate(45.89 191.204)" fill="#fafafa"/>
        <path id="Caminho_20" data-name="Caminho 20" d="M215.17,255.323a2.737,2.737,0,0,1,1.756-.479,2.1,2.1,0,0,1,1.391.684,4.377,4.377,0,0,1,.912,1.688,9.76,9.76,0,0,1,.411,2.486v3.216a15.966,15.966,0,0,1-.411,2.942,14.286,14.286,0,0,1-.912,2.737,10.173,10.173,0,0,1-1.391,2.281,6.294,6.294,0,0,1-1.756,1.574,2.988,2.988,0,0,1-1.779.479,2.076,2.076,0,0,1-1.368-.684,3.877,3.877,0,0,1-.912-1.665,9.763,9.763,0,0,1-.411-2.486V264.9a14.48,14.48,0,0,1,.388-2.965,15.1,15.1,0,0,1,.935-2.76,11.016,11.016,0,0,1,1.368-2.281A6.068,6.068,0,0,1,215.17,255.323Zm2.144,5.884a4.56,4.56,0,0,0-.251-1.482,1.414,1.414,0,0,0-.5-.73.98.98,0,0,0-.661-.16,1.985,1.985,0,0,0-.73.3,3.215,3.215,0,0,0-.73.547,4.084,4.084,0,0,0-.661.912,4.992,4.992,0,0,0-.5,1.323,9.121,9.121,0,0,0-.274,1.779v2.851a5.383,5.383,0,0,0,.274,1.482,1.391,1.391,0,0,0,.5.73.844.844,0,0,0,.661.137,2.05,2.05,0,0,0,.73-.274,3.808,3.808,0,0,0,.73-.547,4.945,4.945,0,0,0,.661-.912,5.931,5.931,0,0,0,.5-1.323,8.145,8.145,0,0,0,.251-1.779,4.967,4.967,0,0,0,0-.639v-1.6A4.8,4.8,0,0,0,217.314,261.207Z" transform="translate(51.962 189.636)" fill="#fafafa"/>
        <path id="Caminho_21" data-name="Caminho 21" d="M220.177,273.271a3.238,3.238,0,0,0,.775-.661,5.59,5.59,0,0,0,.707-1.049,7.032,7.032,0,0,0,.525-1.437,6.838,6.838,0,0,0,.205-1.71V267.25c0,.228-.228.5-.388.821a6.83,6.83,0,0,1-.547.958,9.117,9.117,0,0,1-.775.912,4.014,4.014,0,0,1-.981.753,2.1,2.1,0,0,1-1.619.319,2.281,2.281,0,0,1-1.232-.935,6.2,6.2,0,0,1-.8-1.916,13.116,13.116,0,0,1-.319-2.623q0-.445,0-1.095v-1.118a19.266,19.266,0,0,1,.319-2.988,18,18,0,0,1,.8-2.851,11.41,11.41,0,0,1,1.232-2.281,5.2,5.2,0,0,1,1.619-1.551,3.216,3.216,0,0,1,.981-.388,2.123,2.123,0,0,1,.775,0,1.414,1.414,0,0,1,.547.3,2.077,2.077,0,0,1,.388.388v-.73a1.826,1.826,0,0,1,.137-.684.867.867,0,0,1,.342-.433l1.346-.8a.251.251,0,0,1,.342,0,.844.844,0,0,1,.16.525v14.825a15.646,15.646,0,0,1-1.209,6.477,8.279,8.279,0,0,1-3.33,3.877,3.512,3.512,0,0,1-1.688.525,2.281,2.281,0,0,1-1.346-.342,3.08,3.08,0,0,1-.912-1.095,4.562,4.562,0,0,1-.365-1.642,1.232,1.232,0,0,1,.137-.684.821.821,0,0,1,.342-.456l1.209-.684a.3.3,0,0,1,.433,0,2.278,2.278,0,0,1,.3.388,1.072,1.072,0,0,0,.639.5C219.2,273.727,219.607,273.5,220.177,273.271Zm-2.144-11.062v1.779a3.877,3.877,0,0,0,.73,2.554,1.118,1.118,0,0,0,1.46,0,3.922,3.922,0,0,0,1.482-1.779,8.256,8.256,0,0,0,.684-3.011q0-.513,0-1.232v-1.186a3.49,3.49,0,0,0-.684-2.281,1.1,1.1,0,0,0-1.482,0,3.946,3.946,0,0,0-1.46,1.756,8.734,8.734,0,0,0-.73,3.4Z" transform="translate(58.404 185.03)" fill="#fafafa"/>
        <path id="Caminho_22" data-name="Caminho 22" d="M223.142,247.2a.251.251,0,0,1,.319,0,.73.73,0,0,1,.16.525v2.486a1.506,1.506,0,0,1-.16.684.981.981,0,0,1-.319.433l-1.528.889a.228.228,0,0,1-.342,0,.661.661,0,0,1-.16-.5v-2.486a1.5,1.5,0,0,1,.16-.684.866.866,0,0,1,.342-.433Zm.388,21.416a1.642,1.642,0,0,1-.137.661,1.117,1.117,0,0,1-.342.456l-1.368.775a.205.205,0,0,1-.319,0,.73.73,0,0,1-.16-.525V255.23a1.505,1.505,0,0,1,.16-.684,1.072,1.072,0,0,1,.319-.456l1.368-.775a.251.251,0,0,1,.342,0,.775.775,0,0,1,.137.5Z" transform="translate(65.293 179.785)" fill="#fafafa"/>
        <path id="Caminho_23" data-name="Caminho 23" d="M232.312,261.45a1.824,1.824,0,0,1-.137.684.867.867,0,0,1-.342.433l-1.368.8a.228.228,0,0,1-.319,0,.73.73,0,0,1-.16-.525v-8.028a5.588,5.588,0,0,0-.5-2.76c-.319-.57-.821-.661-1.528-.251a3.741,3.741,0,0,0-1.482,1.984,9.58,9.58,0,0,0-.547,3.353v8.051a1.824,1.824,0,0,1-.137.684.821.821,0,0,1-.342.456l-1.346.775a.228.228,0,0,1-.342,0,.73.73,0,0,1-.137-.5V251.849a1.665,1.665,0,0,1,.137-.684.821.821,0,0,1,.342-.456l1.346-.775a.228.228,0,0,1,.342,0,.845.845,0,0,1,.137.525v.707a11.752,11.752,0,0,1,1.095-1.984,4.288,4.288,0,0,1,1.483-1.391,2.486,2.486,0,0,1,1.8-.456,1.847,1.847,0,0,1,1.186.935,5.794,5.794,0,0,1,.639,1.984,20.523,20.523,0,0,1,.183,2.737Z" transform="translate(68.507 179.997)" fill="#fafafa"/>
        <path id="Caminho_24" data-name="Caminho 24" d="M290.818,253.774l-22.146,12.772,3.444-31.064c-2.668-1.414-4.356-4.858-4.356-9.807,0-8.826,5.383-19.067,12-22.807s11.974.228,11.974,9.123a30.244,30.244,0,0,1-4.333,14.825Z" transform="translate(125.041 121.281)" fill="#455a64"/>
        <path id="Caminho_25" data-name="Caminho 25" d="M290.329,230.714l-19.5-11.244-2.668,24.039Z" transform="translate(125.553 144.341)" fill="#37474f"/>
        <path id="Caminho_26" data-name="Caminho 26" d="M278.738,202.855a26.114,26.114,0,0,0-10.218,13.57l17.858,10.309h0a30.243,30.243,0,0,0,4.333-14.825C290.757,203.083,285.4,199.046,278.738,202.855Z" transform="translate(126.014 121.226)" fill="#37474f"/>
        <path id="Caminho_27" data-name="Caminho 27" d="M265.964,158.269c-7.595-4.379-18.063-3.763-29.649,2.919-23.127,13.365-41.874,45.82-41.874,72.527,0,13.411,4.744,22.807,12.362,27.141l14.756,8.576c7.572,4.379,18.041,3.74,29.649-2.942,23.127-13.342,41.874-45.82,41.874-72.527,0-13.342-4.7-22.807-12.27-27.072" transform="translate(31.138 62.38)" fill="#8a1d26"/>
        <path id="Caminho_28" data-name="Caminho 28" d="M242.834,164.959c-23.127,13.365-41.874,45.843-41.874,72.527s18.748,37.541,41.874,24.176,41.9-45.82,41.874-72.527S265.938,151.617,242.834,164.959Z" transform="translate(39.488 67.208)" fill="#8a1d26"/>
        <path id="Caminho_29" data-name="Caminho 29" d="M255.41,196.37v3.056a67.351,67.351,0,0,1-23.1,24.221c-9.009,5.177-17.151,5.747-23.127,2.44v-6.295a41.053,41.053,0,0,1,18.839-32.637l6.09-3.512c5.383-3.1,10.628-3.512,14.734-1.118S255.41,189.961,255.41,196.37Z" transform="translate(50.015 95.051)" fill="#c53f3f"/>
        <path id="Caminho_30" data-name="Caminho 30" d="M262.544,158.266l14.825,8.621c-7.572-4.4-18.041-3.786-29.65,2.9-15.144,8.758-28.418,25.7-35.762,43.858l-14.848-8.6c7.367-18.246,20.527-35.1,35.762-43.858C244.5,154.525,254.972,153.887,262.544,158.266Z" transform="translate(34.557 62.384)" fill="#fff" opacity="0.4"/>
        <path id="Caminho_31" data-name="Caminho 31" d="M221.021,225.154l-14.209-8.233c-7.618-4.333-12.362-13.684-12.362-27.141L209.3,198.4C209.389,211.4,213.768,220.661,221.021,225.154Z" transform="translate(30.829 104.857)" opacity="0.2"/>
        <path id="Caminho_32" data-name="Caminho 32" d="M200.511,177.21l14.848,8.6a77.8,77.8,0,0,0-6.021,28.669h0l-14.848-8.621a78.069,78.069,0,0,1,6.021-28.646Z" transform="translate(31.088 90.642)" opacity="0.1"/>
        <path id="Caminho_33" data-name="Caminho 33" d="M221.737,199.958a7.959,7.959,0,0,1-4.037-1.049,9.876,9.876,0,0,1-4.356-9.123,26.046,26.046,0,0,1,11.951-20.709h0a8.94,8.94,0,0,1,14.414,8.347,26.092,26.092,0,0,1-11.951,20.709,12.064,12.064,0,0,1-6.021,1.825Z" transform="translate(55.294 77.299)" fill="#fff"/>
        <path id="Caminho_34" data-name="Caminho 34" d="M248.842,182.516c-4.105-2.395-9.351-1.984-14.734,1.118l-6.09,3.512a41.053,41.053,0,0,0-18.839,32.66v6.318c5.975,3.307,14.118,2.737,23.127-2.44a67.35,67.35,0,0,0,23.1-24.221v-3.056C255.41,189.974,253.038,184.934,248.842,182.516Z" transform="translate(50.015 95.038)" fill="#fff"/>
      </g>
    </g>
    <g id="freepik--Character--inject-35" transform="translate(653.703 323.281)">
      <g id="freepik--character--inject-35-2" data-name="freepik--character--inject-35">
        <path id="Caminho_35" data-name="Caminho 35" d="M465.786,241.619c-9.579,16.193-18.793,30.265-25.27,37.016-12.293,5.7-41.167,14.505-52.457,15.965a8.325,8.325,0,0,1-5.656-1.323c-4.447-2.919-7.891-3.4-12.567-5.018-3.672-1.254-5.223-3.011-5.907-2.281a4.174,4.174,0,0,0,.388,5.816,30.833,30.833,0,0,0,5.793,4.333,34.209,34.209,0,0,1-15.281.274c-9.784-2.577-14.391,2.121-7.777,12.749,2.281,3.786,11.677,9.876,30.562,8.233a171.047,171.047,0,0,0,20.093-2.281c18.109-3.877,38.248-7.618,50.632-11.4a31.931,31.931,0,0,0,12.042-8.347c20.823-23.742,27.734-40.665,36.856-56.038l-.775-25.088C481.683,213.725,473.791,228.071,465.786,241.619Z" transform="translate(-248.752 -124.86)" fill="#ffa8a7"/>
        <path id="Caminho_36" data-name="Caminho 36" d="M440.362,214.13a23.742,23.742,0,0,0-22.579,9.647c-10.126,12.977-28.053,44.132-28.053,44.132s5.861,15.623,21.69,18.246l25.43-34.348S448.892,227.951,440.362,214.13Z" transform="translate(-190.121 -125.265)" fill="#455a64"/>
        <rect id="Retângulo_1" data-name="Retângulo 1" width="16.581" height="29.558" transform="translate(288.649 439.048)" fill="#ffa8a7"/>
        <path id="Caminho_37" data-name="Caminho 37" d="M420.612,384.422l-16.558.593-.844-31.292,17.4-.593Z" transform="translate(-172.856 53.053)" fill="#ffa8a7"/>
        <path id="Caminho_38" data-name="Caminho 38" d="M486.218,255.427c0,16.467-2.418,149.137-2.418,149.137.365,4.744,4.561,13.5,3.718,31.725-1.254,24.746-2.919,89.792-2.919,89.792a21.074,21.074,0,0,1-18.451.365s-13.456-91.229-16.421-115.656c-2.6-21.416-9.26-92.3-9.26-92.3L431.5,402.283a103.158,103.158,0,0,1,2.053,27.369c-.775,11.4-6.112,70.429-6.112,70.429a21.918,21.918,0,0,1-19.135,1.528s-9.442-88.948-9.625-99.394c-.228-11.86,5.519-146.925,5.519-146.925Z" transform="translate(-178.662 -72.253)" fill="#37474f"/>
        <path id="Caminho_39" data-name="Caminho 39" d="M443.49,378.218v-2.463c-1.6.707-5.268,15.349-11.86,21.6-5.223,4.972-12.339,10.7-14.163,16.239s9.921,8.94,14.825,8.051c5.656-1.049,15.509-5.223,17.972-9.123s3.626-9.556,5.633-12.384,6.637-5.975,7.709-9.26a21.938,21.938,0,0,0-.935-9.123c-.775-3.056-1.6-6.409-2.6-6.112v1.87a12.864,12.864,0,0,1-8.3,2.919C449.352,380.635,443.468,380.133,443.49,378.218Z" transform="translate(-154.841 81.859)" fill="#263238"/>
        <path id="Caminho_40" data-name="Caminho 40" d="M425.637,365.442c-.867,0-1.574,1.3-3.467,3.444a36.489,36.489,0,0,1-9.739,7.3c-6.2,3.239-18.246,8.211-23.742,10.788-3.421,1.6-3.261,5.884.274,8.325s12.042,4.2,22.26,1.825c5.565-1.3,12.818-6.66,17.425-6.363s13.16.205,16.558-2.281,2.03-7.64,1.072-12.088c-1.049-4.881-2.281-12.476-3.9-12.133v1.711c-1.984,3.147-12.27,4.425-16.649,2.121Z" transform="translate(-194.622 67.288)" fill="#263238"/>
        <path id="Caminho_41" data-name="Caminho 41" d="M429.961,290.748a60.941,60.941,0,0,1-23.081-13.8s4.561,8.69,17.7,16.786l-2.828,74.831Z" transform="translate(-168.156 -44.513)" fill="#263238"/>
        <path id="Caminho_42" data-name="Caminho 42" d="M475.046,216.443s13.684,3.147,12.7,27.871L484.9,283.656v59.071c-12.179,13.821-66.141,12.818-84.729-1.095,0,0,2.1-69.9,3.353-96.817.89-19.113,5.291-28.737,24.085-30.835l23.1,1Z" transform="translate(-176.75 -125.16)" fill="#8a1d26"/>
        <path id="Caminho_43" data-name="Caminho 43" d="M453.679,206.974A25.088,25.088,0,0,1,429,232.655c-13.684,0-21.713-11.814-24.678-25.681-5.474-25.385,11.039-25.7,24.677-25.7a25.2,25.2,0,0,1,24.678,25.7Z" transform="translate(-172.807 -167.053)" fill="#263238"/>
        <path id="Caminho_44" data-name="Caminho 44" d="M436.426,197.09s-3.786,18.519-5.314,21.576a8.052,8.052,0,0,1-4.561,3.9l.274-13.023Z" transform="translate(-142.964 -146.792)" fill="#263238"/>
        <path id="Caminho_45" data-name="Caminho 45" d="M430.122,185.481s2.714-.684,5.611,3.832c2.463,3.854,3.033,12.521-.844,22.807l-7.139.867Z" transform="translate(-141.427 -161.708)" fill="#263238"/>
        <path id="Caminho_46" data-name="Caminho 46" d="M429.94,189.582l8.758.16a4.128,4.128,0,0,0-3.991-4.561,4.858,4.858,0,0,0-4.767,4.4Z" transform="translate(-138.623 -162.045)" fill="#263238"/>
        <path id="Caminho_47" data-name="Caminho 47" d="M431.027,190.524,437.5,184.3a4.174,4.174,0,0,0-6.135-.251A4.79,4.79,0,0,0,431.027,190.524Z" transform="translate(-138.638 -165.063)" fill="#263238"/>
        <path id="Caminho_48" data-name="Caminho 48" d="M455.362,219.254c1.437.889,3.467-1.961,5.246-3.9s7.3-3.718,10.172,2.577-2.03,12.521-6.135,14.574c-7.367,3.649-9.693-1.665-9.693-1.665l-.616,29.33c-10.354,15.965-33.846,15.463-25.385-.775v-8.918a46.847,46.847,0,0,1-10.537.547c-5.748-.912-9.351-5.633-11.107-12.111-2.782-10.4-3.854-18.793-1.482-39.251,2.6-22.4,27.642-22.648,41.053-13.684S455.362,219.254,455.362,219.254Z" transform="translate(-171.183 -168.089)" fill="#ffa8a7"/>
        <path id="Caminho_49" data-name="Caminho 49" d="M428.268,203.12c5.975-.593,11.883-1.825,17.881-2.281a11.635,11.635,0,0,1,3.877.182c4.561,1.254,4.014,6.591,4.744,10.309,1.254,6.432,2.281,17.311,4.7,17.356.73,0,3.467-4.721,5.246-6.409a9.42,9.42,0,0,0,1.6-4.9c.456-2.646.684-5.36.889-8.051.182-2.281.411-4.561.411-6.842a32.115,32.115,0,0,0-.616-7.686,13.432,13.432,0,0,0-3.193-5.747l-.456-.5a30.265,30.265,0,0,0-10.7-7.207,64.615,64.615,0,0,0-18.109-3.946,177.894,177.894,0,0,1-18.451-2.281,1.916,1.916,0,0,0-1.072,0,1.688,1.688,0,0,0-.867,1.369,7.618,7.618,0,0,0,3.079,7.526c-4.128.319-8.872-1.825-12.841-2.919a2.6,2.6,0,0,0-2.03,0,2.007,2.007,0,0,0-.8,1.163,7.254,7.254,0,0,0-.114,3.284A18.884,18.884,0,0,0,405,194.659a22.26,22.26,0,0,0,12.316,8.051A35.945,35.945,0,0,0,428.268,203.12Z" transform="translate(-175.289 -175.036)" fill="#263238"/>
        <path id="Caminho_50" data-name="Caminho 50" d="M415.24,217.653s12.818-2.691,17.288-5.177a15.1,15.1,0,0,0,6.2-6.386,21.323,21.323,0,0,1-3.535,7.526c-3.261,4.379-19.956,7.572-19.956,7.572Z" transform="translate(-157.449 -135.265)" fill="#f28f8f"/>
        <path id="Caminho_51" data-name="Caminho 51" d="M416.591,197.57a2.668,2.668,0,0,0,2.554,2.76,2.782,2.782,0,1,0-2.554-2.76Z" transform="translate(-155.721 -149.758)" fill="#263238"/>
        <path id="Caminho_52" data-name="Caminho 52" d="M418.39,192.148l5.5,3.17a3.489,3.489,0,0,0-1.277-4.561,3.011,3.011,0,0,0-4.219,1.391Z" transform="translate(-153.415 -155.397)" fill="#263238"/>
        <path id="Caminho_53" data-name="Caminho 53" d="M419.032,204.11l-5.862,2.281a3.056,3.056,0,0,0,3.991,2.007,3.421,3.421,0,0,0,1.87-4.288Z" transform="translate(-160.1 -137.801)" fill="#f28f8f"/>
        <path id="Caminho_54" data-name="Caminho 54" d="M406.589,195.2l5.018-4.014a2.965,2.965,0,0,0-4.356-.707,3.581,3.581,0,0,0-.661,4.721Z" transform="translate(-169.302 -156.1)" fill="#263238"/>
        <path id="Caminho_55" data-name="Caminho 55" d="M407.221,197.232a2.577,2.577,0,1,0,2.577-2.782,2.668,2.668,0,0,0-2.577,2.782Z" transform="translate(-167.722 -150.173)" fill="#263238"/>
        <path id="Caminho_56" data-name="Caminho 56" d="M418.591,194.73l-.3,16.216-9.214-2.1Z" transform="translate(-165.339 -149.814)" fill="#f28f8f"/>
        <path id="Caminho_57" data-name="Caminho 57" d="M317.31,262.771l14.3-8.256,5.656-6.865-14.277,8.256-5.679,6.865" transform="translate(-282.871 -82.038)" fill="#c53f3f"/>
        <path id="Caminho_58" data-name="Caminho 58" d="M317.31,262.771l14.3-8.256,5.656-6.865-14.277,8.256-5.679,6.865" transform="translate(-282.871 -82.038)" opacity="0.4"/>
        <path id="Caminho_59" data-name="Caminho 59" d="M334.36,274.686l14.3-8.256,11.928-10.56L346.311,264.1,334.36,274.686" transform="translate(-261.035 -71.511)" fill="#c53f3f"/>
        <path id="Caminho_60" data-name="Caminho 60" d="M334.36,274.686l14.3-8.256,11.928-10.56L346.311,264.1,334.36,274.686" transform="translate(-261.035 -71.511)" opacity="0.4"/>
        <path id="Caminho_61" data-name="Caminho 61" d="M496.943,346.551a30.312,30.312,0,0,1,5.907,15.555A30.63,30.63,0,0,1,496.943,346.551Zm33.23.433c-4.812-32.728-22.4-65.092-43.334-77.2-10.058-5.816-19.363-6.021-26.821-1.665l-13.456,7.754-.753.456a17.057,17.057,0,0,0-1.733,1.095,23.348,23.348,0,0,0-3.1,2.554l-.456.433c-.411.411-.844.889-1.232,1.346s-.981,1.163-1.437,1.779a33.82,33.82,0,0,0-2.623,4.014,23.654,23.654,0,0,0-1.163,2.281L316.537,222l-14.277,8.233v9.123l1.209.684,1.14.661v1.825l-2.281,1.346v5.291l17.265,36.492,17.06,9.876,5.679-6.842,15.053,9.009,8.644,14.8,9.533,5.5,11.928-10.583,14.642,8.461L407.06,336.2l24.609,14.232a133.849,133.849,0,0,0,4.561,15.258c.16.5.365,1.026.57,1.6,8.165,21.439,21.142,39.8,35.785,48.26a36.7,36.7,0,0,0,5.5,2.669,28.682,28.682,0,0,0,3.079,1.026q1.368.365,2.737.616a24.291,24.291,0,0,0,8.712,0l1.186-.3a10.683,10.683,0,0,0,1.665-.479l1.277-.5a7.49,7.49,0,0,0,1.3-.616,12.393,12.393,0,0,0,1.232-.616l.593-.365a.96.96,0,0,0,.3-.16c3.262-1.87,11.29-6.523,13.479-7.754,10.856-6.295,17.881-22.214,17.881-44.725A117.4,117.4,0,0,0,530.173,346.984Z" transform="translate(-302.146 -114.889)" fill="#c53f3f"/>
        <path id="Caminho_62" data-name="Caminho 62" d="M492.782,369.547c-5.656-3.261-10.218-12.932-10.218-21.6s4.561-13.069,10.218-9.83,10.195,12.932,10.195,21.621S498.415,372.808,492.782,369.547Zm23.1-18.953c-4.79-32.706-22.374-65.092-43.334-77.18-9.716-5.611-18.7-6.021-26-2.167l-.753.456a17.067,17.067,0,0,0-1.733,1.095,23.347,23.347,0,0,0-3.1,2.554l-.456.433c-.411.411-.844.889-1.232,1.346s-.981,1.163-1.437,1.779a33.819,33.819,0,0,0-2.623,4.014,23.67,23.67,0,0,0-1.163,2.281,55.5,55.5,0,0,0-4.561,13.89L302.25,225.61v9.123l1.209.684,1.14.661V237.9l-2.281,1.346v5.291l17.265,36.492,17.06,9.876,5.679-6.842,15.053,9.009,8.644,14.8,9.533,5.5,11.928-10.583,14.642,8.461,4.926,20.321L431.681,345.8a133.868,133.868,0,0,0,4.561,15.258c.16.5.365,1.026.57,1.6,8.165,21.439,21.142,39.8,35.785,48.26a36.7,36.7,0,0,0,5.5,2.669,28.678,28.678,0,0,0,3.079,1.026q1.369.365,2.737.616a24.289,24.289,0,0,0,8.712,0l1.186-.3a10.682,10.682,0,0,0,1.665-.479l1.277-.5a7.5,7.5,0,0,0,1.3-.616,12.4,12.4,0,0,0,1.232-.616l.593-.365a.96.96,0,0,0,.3-.16c10.4-6.568,17.083-22.26,17.083-44.223A121.181,121.181,0,0,0,515.886,350.594Z" transform="translate(-302.159 -110.266)" fill="#8a1d26"/>
        <path id="Caminho_63" data-name="Caminho 63" d="M401.723,297.143c0,8.69-4.561,13.091-10.195,9.83s-10.218-12.909-10.218-21.6,4.561-13.091,10.218-9.83a14.552,14.552,0,0,1,4.174,3.832,30.516,30.516,0,0,0,5.907,15.554,18,18,0,0,1,.114,2.212Z" transform="translate(-200.904 -47.692)" opacity="0.4"/>
        <path id="Caminho_64" data-name="Caminho 64" d="M450.454,340.114c0,22.511-7.025,38.43-17.881,44.725-2.281,1.232-10.218,5.884-13.479,7.754,10.4-6.569,17.083-22.26,17.083-44.223a121.169,121.169,0,0,0-1.323-17.356c-4.79-32.706-22.374-65.092-43.334-77.18-9.716-5.611-18.7-6.021-26-2.167l13.456-7.754c7.458-4.356,16.763-4.151,26.821,1.665,20.96,12.111,38.544,44.474,43.334,77.2a117.388,117.388,0,0,1,1.323,17.334Z" transform="translate(-221.127 -90.685)" fill="#fff" opacity="0.4"/>
        <path id="Caminho_65" data-name="Caminho 65" d="M406.093,294.045c0,21.963-6.683,37.655-17.083,44.223,3.261-1.87,11.29-6.523,13.479-7.755,10.856-6.295,17.881-22.214,17.881-44.725V283.28l-14.277,8.256C406.07,292.426,406.093,293.247,406.093,294.045Z" transform="translate(-191.043 -36.406)" fill="#8a1d26"/>
        <path id="Caminho_66" data-name="Caminho 66" d="M406.093,294.045c0,21.963-6.683,37.655-17.083,44.223,3.261-1.87,11.29-6.523,13.479-7.755,10.856-6.295,17.881-22.214,17.881-44.725V283.28l-14.277,8.256C406.07,292.426,406.093,293.247,406.093,294.045Z" transform="translate(-190.017 -36.406)" opacity="0.1"/>
        <path id="Caminho_67" data-name="Caminho 67" d="M430.026,302.583v4.63L302.26,233.454l2.349-1.368V230.17Z" transform="translate(-302.146 -104.425)" opacity="0.15"/>
        <path id="Caminho_68" data-name="Caminho 68" d="M430.026,303.436v2.714L302.26,232.391l2.349-1.368V231Z" transform="translate(-302.146 -103.362)" opacity="0.15"/>
        <path id="Caminho_69" data-name="Caminho 69" d="M411.533,374.006a27.369,27.369,0,0,1-13.684-4.082c-20.823-12.02-37.769-47.781-37.769-79.712,0-18.634,5.633-32.546,15.463-38.225,6.842-3.968,14.939-3.467,23.446,1.437,20.8,12.019,37.746,47.9,37.746,79.826,0,18.611-5.633,32.546-15.463,38.2a19.41,19.41,0,0,1-9.739,2.554ZM385.419,251.645a17.243,17.243,0,0,0-8.667,2.281c-8.963,5.177-14.323,18.748-14.323,36.264,0,31.2,16.421,66.141,36.629,77.727,7.732,4.561,15.053,4.972,21.142,1.46,8.963-5.177,14.323-18.725,14.323-36.241,0-31.223-16.421-66.141-36.606-77.75a25.089,25.089,0,0,0-12.5-3.649Z" transform="translate(-228.094 -79.875)" opacity="0.15"/>
        <path id="Caminho_70" data-name="Caminho 70" d="M434.013,289.809a55.492,55.492,0,0,0-4.561,13.89L302.21,230.213l14.277-8.233Z" transform="translate(-302.21 -114.915)" fill="#fff" opacity="0.4"/>
        <path id="Caminho_71" data-name="Caminho 71" d="M490.277,304.734c6.66-12.612,14.277-40.939,18.063-55.239,5.383-20.3-3.33-33.071-13.228-33.6-6.181.958-26.548,75.013-26.548,75.013-2.281,1.8-33.23,17.516-43.174,21.462a7.8,7.8,0,0,1-5.519,0c-4.767-1.733-8.028-1.414-12.7-1.87-3.672-.365-5.519-1.665-6-.889a4.2,4.2,0,0,0,1.8,5.405,29.973,29.973,0,0,0,6.386,2.782,38.98,38.98,0,0,1-12.339,1.665c-9.579-.205-13.023,3.946-5.588,13.684,4.561,6.067,12.111,7.983,28.965,2.167,4.835-1.688,11.4-4.949,17.539-7.162,12.635-4.561,15.965-5.109,25.59-8.37C477.551,315.043,487.312,310.345,490.277,304.734Z" transform="translate(-193.098 -122.701)" fill="#ffa8a7"/>
        <path id="Caminho_72" data-name="Caminho 72" d="M444.578,215.06c5.816.8,11.4,2.1,14.848,6.842s6.2,11.4,2.828,29.535A283.488,283.488,0,0,1,451.9,289.024s-13.548,5.793-27.939-8.895l9.9-38.271S435.455,216.976,444.578,215.06Z" transform="translate(-146.281 -123.777)" fill="#455a64"/>
      </g>
    </g>
  </g>
</svg>
