<svg xmlns="http://www.w3.org/2000/svg" xmlns:xlink="http://www.w3.org/1999/xlink" width="940" height="427" viewBox="0 0 940 427">
  <defs>
    <clipPath id="clip-path">
      <rect id="Retângulo_2" data-name="Retângulo 2" width="552" height="218"/>
    </clipPath>
  </defs>
  <g id="Grupo_2" data-name="Grupo 2" transform="translate(-238 -377)">
    <g id="Web_1920_7" data-name="Web 1920 – 7" transform="translate(437 481)" clip-path="url(#clip-path)">
      <rect id="Retângulo_1" data-name="Retângulo 1" width="552" height="218" fill="rgba(255,255,255,0)"/>
      <g id="freepik--Pin--inject-1--inject-79" transform="translate(-272.17 -145.381)">
        <g id="freepik--pin--inject-1--inject-79-2" data-name="freepik--pin--inject-1--inject-79" transform="translate(272.17 146.406)">
          <path id="Caminho_16" data-name="Caminho 16" d="M389.479,163.513h0l-.672-.388L367.948,151.18a28.758,28.758,0,0,0-16.29-4.771c-7.294,0-14.655,2.643-23.323,7.466-30.289,16.783-56.165,65.176-56.165,96.95v8.757c0,38.508,50.648,85.513,50.648,85.513l21,12.132a.09.09,0,0,0,.09.037c-.7-.829,22.315-34.41,44.048-99.914C411.951,184.813,389.927,163.931,389.479,163.513ZM354.032,278.65c-17.171,9.907-31.528,4.718-35.6-11.266-7.861-1.083-13.543-7.13-15.3-17.059-2.2-32.1,14.834-57.628,39.233-67.991,10.452-3.8,19.172-1.09,23.846,6.764,14.334-2.464,24.592,7.361,24.592,25.861C390.808,238.4,374.324,266.936,354.032,278.65Z" transform="translate(-272.17 -146.406)" fill="#b19357"/>
          <path id="Caminho_17" data-name="Caminho 17" d="M406.513,229.324c0,23.442-16.462,51.977-36.776,63.69-17.171,9.907-31.528,4.718-35.6-11.266,5.159.747,11.251-.635,17.8-4.42,18.6-10.728,33.671-36.843,33.671-58.3,0-6.376-1.329-11.624-3.688-15.566C396.255,201,406.513,210.824,406.513,229.324Z" transform="translate(-287.875 -160.771)" fill="#b79759"/>
          <path id="Caminho_18" data-name="Caminho 18" d="M343.44,297.776l11.669,6.742V281.912L343.44,275.17Z" transform="translate(-290.232 -179.038)" fill="#c53f3f"/>
          <path id="Caminho_19" data-name="Caminho 19" d="M343.44,297.776l11.669,6.742V281.912L343.44,275.17Z" transform="translate(-290.232 -179.038)" opacity="0.2"/>
          <path id="Caminho_20" data-name="Caminho 20" d="M399.667,245.857,372.618,233.18,345.57,277.094l10.079-5.823v22.606L368.43,286.5V271.71l8.369-4.83v14.782l12.8-7.391V251.665Z" transform="translate(-290.771 -168.397)" fill="#c53f3f"/>
          <path id="Caminho_21" data-name="Caminho 21" d="M356.978,224.15l11.676,6.742-27.048,43.914-11.676-6.742Z" transform="translate(-286.808 -166.108)" fill="#c53f3f"/>
          <path id="Caminho_22" data-name="Caminho 22" d="M356.978,224.15l11.676,6.742-27.048,43.914-11.676-6.742Z" transform="translate(-286.808 -166.108)" opacity="0.1"/>
          <path id="Caminho_23" data-name="Caminho 23" d="M366.16,224.15l11.676,6.742,27.048,12.677-11.676-6.742Z" transform="translate(-295.989 -166.108)" fill="#c53f3f"/>
          <path id="Caminho_24" data-name="Caminho 24" d="M366.16,224.15l11.676,6.742,27.048,12.677-11.676-6.742Z" transform="translate(-295.989 -166.108)" fill="#fff" opacity="0.4"/>
          <path id="Caminho_25" data-name="Caminho 25" d="M376.19,297.94l8.369-4.838V278.32l-8.369,4.83Z" transform="translate(-298.531 -179.836)" fill="#c53f3f"/>
          <path id="Caminho_26" data-name="Caminho 26" d="M376.19,297.94l8.369-4.838V278.32l-8.369,4.83Z" transform="translate(-298.531 -179.836)" opacity="0.2"/>
          <path id="Caminho_27" data-name="Caminho 27" d="M396.933,167.948h0l-.672-.388c-10.124-5.689-23.651-4.927-38.516,3.643-22.4,12.953-41.808,40.158-50.984,68.685-3.643,11.311-5.181,17.3-5.181,28.235v8.787c0,29.676,33.088,69.6,48.565,83.848a6.982,6.982,0,0,0,1.127.851.09.09,0,0,0,.09.037,7.6,7.6,0,0,0,10.825-3.136c13.334-27.3,52.213-109.61,52.213-141.527v-8.757C414.4,188.441,407.713,174.428,396.933,167.948ZM325.888,271.819c-.209-.814-.4-1.665-.552-2.538a40.2,40.2,0,0,1-.627-7.421c0-23.442,16.425-51.969,36.776-63.683a43.933,43.933,0,0,1,6.719-3.165,31.69,31.69,0,0,1,5.472-1.493c14.334-2.464,24.592,7.361,24.592,25.861,0,23.442-16.462,51.977-36.776,63.69C344.336,292.992,329.957,287.8,325.888,271.819Z" transform="translate(-279.623 -150.841)" fill="#efb542"/>
        </g>
      </g>
    </g>
    <text id="LOGOhere" transform="translate(238 697)" fill="#8a1d26" font-size="290" font-family="Poppins-Bold, Poppins" font-weight="700"><tspan x="0" y="0">h</tspan></text>
    <text id="LOGOhere-2" data-name="LOGOhere" transform="translate(581 697)" fill="#8a1d26" font-size="305" font-family="Poppins-Bold, Poppins" font-weight="700"><tspan x="0" y="0">me.</tspan></text>
  </g>
</svg>
