<svg xmlns="http://www.w3.org/2000/svg" xmlns:xlink="http://www.w3.org/1999/xlink" width="903" height="409" viewBox="0 0 903 409">
  <defs>
    <clipPath id="clip-path">
      <rect id="Retângulo_2" data-name="Retângulo 2" width="535" height="210" transform="translate(0.067 0.464)"/>
    </clipPath>
  </defs>
  <g id="Grupo_1" data-name="Grupo 1" transform="translate(-596 -131)">
    <g id="Grupo_2" data-name="Grupo 2" transform="translate(358 -246)">
      <g id="Web_1920_7" data-name="Web 1920 – 7" transform="translate(429.933 477.536)" clip-path="url(#clip-path)">
        <rect id="Retângulo_1" data-name="Retângulo 1" width="535" height="210" transform="translate(0.067 0.464)" fill="rgba(255,255,255,0)"/>
        <g id="freepik--Pin--inject-1--inject-79" transform="translate(0.529 1.038)">
          <g id="freepik--pin--inject-1--inject-79-2" data-name="freepik--pin--inject-1--inject-79" transform="translate(0)">
            <path id="Caminho_16" data-name="Caminho 16" d="M385.625,162.951h0l-.65-.375L364.8,151.023a27.814,27.814,0,0,0-15.755-4.614c-7.054,0-14.173,2.556-22.557,7.221-29.294,16.232-54.32,63.035-54.32,93.765v8.469c0,37.243,48.984,82.7,48.984,82.7l20.31,11.733a.087.087,0,0,0,.087.036c-.677-.8,21.582-33.279,42.6-96.631C407.358,183.551,386.058,163.355,385.625,162.951ZM351.342,274.3c-16.607,9.581-30.492,4.563-34.43-10.9-7.6-1.047-13.1-6.9-14.8-16.5-2.128-31.045,14.347-55.735,37.944-65.757,10.109-3.675,18.542-1.054,23.062,6.542,13.863-2.383,23.784,7.119,23.784,25.011C386.91,235.377,370.968,262.976,351.342,274.3Z" transform="translate(-272.17 -146.406)" fill="#bcbcbc"/>
            <path id="Caminho_17" data-name="Caminho 17" d="M404.135,228.462c0,22.672-15.921,50.269-35.568,61.6-16.607,9.582-30.492,4.563-34.43-10.9,4.989.722,10.881-.614,17.215-4.275,17.989-10.375,32.565-35.632,32.565-56.384,0-6.167-1.285-11.242-3.567-15.055C394.214,201.069,404.135,210.57,404.135,228.462Z" transform="translate(-289.395 -162.161)" fill="#bcbcbc"/>
            <path id="Caminho_18" data-name="Caminho 18" d="M343.44,297.033l11.286,6.521V281.69l-11.286-6.52Z" transform="translate(-291.98 -182.196)" fill="#fff"/>
            <path id="Caminho_19" data-name="Caminho 19" d="M343.44,297.033l11.286,6.521V281.69l-11.286-6.52Z" transform="translate(-291.98 -182.196)" opacity="0.2"/>
            <path id="Caminho_20" data-name="Caminho 20" d="M397.89,245.44l-26.16-12.26L345.57,275.651l9.748-5.632v21.863l12.361-7.135v-14.3l8.094-4.671v14.3l12.379-7.148V251.058Z" transform="translate(-292.572 -170.525)" fill="#fff"/>
            <path id="Caminho_21" data-name="Caminho 21" d="M356.089,224.15l11.292,6.52-26.159,42.471-11.292-6.521Z" transform="translate(-288.225 -168.015)" fill="#fff"/>
            <path id="Caminho_22" data-name="Caminho 22" d="M356.089,224.15l11.292,6.52-26.159,42.471-11.292-6.521Z" transform="translate(-288.225 -168.015)" opacity="0.1"/>
            <path id="Caminho_23" data-name="Caminho 23" d="M366.16,224.15l11.292,6.52,26.159,12.26-11.292-6.52Z" transform="translate(-298.295 -168.015)" fill="#fff"/>
            <path id="Caminho_24" data-name="Caminho 24" d="M366.16,224.15l11.292,6.52,26.159,12.26-11.292-6.52Z" transform="translate(-298.295 -168.015)" fill="#fff" opacity="0.4"/>
            <path id="Caminho_25" data-name="Caminho 25" d="M376.19,297.3l8.094-4.679v-14.3l-8.094,4.671Z" transform="translate(-301.083 -183.072)" fill="#fff"/>
            <path id="Caminho_26" data-name="Caminho 26" d="M376.19,297.3l8.094-4.679v-14.3l-8.094,4.671Z" transform="translate(-301.083 -183.072)" opacity="0.2"/>
            <path id="Caminho_27" data-name="Caminho 27" d="M393.8,167.815h0l-.65-.375c-9.791-5.5-22.874-4.765-37.251,3.523-21.664,12.527-40.434,38.839-49.309,66.428-3.523,10.939-5.011,16.732-5.011,27.307v8.5c0,28.7,32,67.313,46.969,81.093a6.757,6.757,0,0,0,1.09.823.087.087,0,0,0,.087.036,7.35,7.35,0,0,0,10.469-3.033c12.9-26.4,50.5-106.009,50.5-136.877V206.77C410.693,187.635,404.226,174.082,393.8,167.815ZM325.089,268.273c-.2-.787-.387-1.61-.534-2.455a38.881,38.881,0,0,1-.606-7.177c0-22.672,15.885-50.261,35.568-61.591a42.486,42.486,0,0,1,6.5-3.061,30.642,30.642,0,0,1,5.292-1.444c13.863-2.383,23.784,7.119,23.784,25.011,0,22.672-15.921,50.269-35.568,61.6C342.931,288.751,329.025,283.729,325.089,268.273Z" transform="translate(-280.344 -151.27)" fill="#fff"/>
          </g>
        </g>
      </g>
      <text id="LOGOhere" transform="translate(238 682)" fill="#fff" font-size="277" font-family="Poppins-Bold, Poppins" font-weight="700"><tspan x="0" y="0">h</tspan></text>
      <text id="LOGOhere-2" data-name="LOGOhere" transform="translate(569 684)" fill="#fff" font-size="292" font-family="Poppins-Bold, Poppins" font-weight="700"><tspan x="0" y="0">me.</tspan></text>
    </g>
  </g>
</svg>
