<svg xmlns="http://www.w3.org/2000/svg" xmlns:xlink="http://www.w3.org/1999/xlink" width="991" height="735" viewBox="0 0 991 735">
  <defs>
    <clipPath id="clip-Web_1920_1">
      <rect width="991" height="735"/>
    </clipPath>
  </defs>
  <g id="Web_1920_1" data-name="Web 1920 – 1" clip-path="url(#clip-Web_1920_1)">
    <rect width="991" height="735" fill="rgba(255,255,255,0)"/>
    <g id="House_searching-cuate" data-name="House searching-cuate" transform="translate(-22.66 -191.714)">
      <g id="freepik--background-complete--inject-5" transform="translate(92.755 68.996)">
        <path id="Caminho_459" data-name="Caminho 459" d="M959.108,282.026H880.629v95.319h-20.2V323.376H760.618v85.447H747.41V208.29h-86.74v55.058H616.21v68.471H602.752V288.743H523.887V417.288H500.829V312.777H428.7V233.436H379.66V188.25H322.946V388.692H303.882V305.038H210.424V424.777H197.51V327.052H102.736V239H49.63v410.1H959.108Z" transform="translate(-49.63 82.396)" fill="#ebebeb"/>
        <rect id="Retângulo_611" data-name="Retângulo 611" width="13.277" height="18.224" transform="translate(899.856 394.629) rotate(180)" fill="#fff"/>
        <rect id="Retângulo_612" data-name="Retângulo 612" width="13.277" height="18.224" transform="translate(876.843 394.629) rotate(180)" fill="#fff"/>
        <rect id="Retângulo_613" data-name="Retângulo 613" width="13.277" height="18.224" transform="translate(853.808 394.629) rotate(180)" fill="#fff"/>
        <rect id="Retângulo_614" data-name="Retângulo 614" width="13.277" height="18.224" transform="translate(899.856 422.044) rotate(180)" fill="#fff"/>
        <rect id="Retângulo_615" data-name="Retângulo 615" width="13.277" height="18.224" transform="translate(876.843 422.044) rotate(180)" fill="#fff"/>
        <rect id="Retângulo_616" data-name="Retângulo 616" width="13.277" height="18.224" transform="translate(853.808 422.044) rotate(180)" fill="#fff"/>
        <rect id="Retângulo_617" data-name="Retângulo 617" width="13.277" height="18.224" transform="translate(899.856 449.46) rotate(180)" fill="#fff"/>
        <rect id="Retângulo_618" data-name="Retângulo 618" width="13.277" height="18.224" transform="translate(876.843 449.46) rotate(180)" fill="#fff"/>
        <rect id="Retângulo_619" data-name="Retângulo 619" width="13.277" height="18.224" transform="translate(853.808 449.46) rotate(180)" fill="#fff"/>
        <rect id="Retângulo_620" data-name="Retângulo 620" width="13.277" height="18.224" transform="translate(899.856 476.898) rotate(180)" fill="#fff"/>
        <rect id="Retângulo_621" data-name="Retângulo 621" width="13.277" height="18.224" transform="translate(876.843 476.898) rotate(180)" fill="#fff"/>
        <rect id="Retângulo_622" data-name="Retângulo 622" width="13.277" height="18.224" transform="translate(853.808 476.898) rotate(180)" fill="#fff"/>
        <rect id="Retângulo_623" data-name="Retângulo 623" width="13.277" height="15.206" transform="translate(440.124 423.429) rotate(180)" fill="#fff"/>
        <rect id="Retângulo_624" data-name="Retângulo 624" width="13.277" height="15.206" transform="translate(417.111 423.429) rotate(180)" fill="#fff"/>
        <rect id="Retângulo_625" data-name="Retângulo 625" width="13.277" height="15.206" transform="translate(394.076 423.429) rotate(180)" fill="#fff"/>
        <rect id="Retângulo_626" data-name="Retângulo 626" width="13.277" height="15.206" transform="translate(440.124 446.283) rotate(180)" fill="#fff"/>
        <rect id="Retângulo_627" data-name="Retângulo 627" width="13.277" height="15.206" transform="translate(417.111 446.283) rotate(180)" fill="#fff"/>
        <rect id="Retângulo_628" data-name="Retângulo 628" width="13.277" height="15.206" transform="translate(394.076 446.283) rotate(180)" fill="#fff"/>
        <rect id="Retângulo_629" data-name="Retângulo 629" width="13.277" height="15.206" transform="translate(440.124 469.159) rotate(180)" fill="#fff"/>
        <rect id="Retângulo_630" data-name="Retângulo 630" width="13.277" height="15.206" transform="translate(417.111 469.159) rotate(180)" fill="#fff"/>
        <rect id="Retângulo_631" data-name="Retângulo 631" width="13.277" height="15.206" transform="translate(394.076 469.159) rotate(180)" fill="#fff"/>
        <rect id="Retângulo_632" data-name="Retângulo 632" width="13.277" height="15.206" transform="translate(440.124 492.036) rotate(180)" fill="#fff"/>
        <rect id="Retângulo_633" data-name="Retângulo 633" width="13.277" height="15.206" transform="translate(417.111 492.036) rotate(180)" fill="#fff"/>
        <rect id="Retângulo_634" data-name="Retângulo 634" width="13.277" height="15.206" transform="translate(394.076 492.036) rotate(180)" fill="#fff"/>
        <rect id="Retângulo_635" data-name="Retângulo 635" width="13.277" height="15.206" transform="translate(440.124 515.48) rotate(180)" fill="#fff"/>
        <rect id="Retângulo_636" data-name="Retângulo 636" width="13.277" height="15.206" transform="translate(417.111 515.48) rotate(180)" fill="#fff"/>
        <rect id="Retângulo_637" data-name="Retângulo 637" width="13.277" height="15.206" transform="translate(394.076 515.48) rotate(180)" fill="#fff"/>
        <rect id="Retângulo_638" data-name="Retângulo 638" width="13.277" height="15.206" transform="translate(440.124 538.923) rotate(180)" fill="#fff"/>
        <rect id="Retângulo_639" data-name="Retângulo 639" width="13.277" height="15.206" transform="translate(417.111 538.923) rotate(180)" fill="#fff"/>
        <rect id="Retângulo_640" data-name="Retângulo 640" width="13.277" height="15.206" transform="translate(394.076 538.923) rotate(180)" fill="#fff"/>
        <rect id="Retângulo_641" data-name="Retângulo 641" width="13.277" height="15.206" transform="translate(440.124 562.345) rotate(180)" fill="#fff"/>
        <rect id="Retângulo_642" data-name="Retângulo 642" width="13.277" height="15.206" transform="translate(417.111 562.345) rotate(180)" fill="#fff"/>
        <rect id="Retângulo_643" data-name="Retângulo 643" width="13.277" height="15.206" transform="translate(394.076 562.345) rotate(180)" fill="#fff"/>
        <rect id="Retângulo_644" data-name="Retângulo 644" width="13.277" height="15.206" transform="translate(440.124 585.789) rotate(180)" fill="#fff"/>
        <rect id="Retângulo_645" data-name="Retângulo 645" width="13.277" height="15.206" transform="translate(417.111 585.789) rotate(180)" fill="#fff"/>
        <rect id="Retângulo_646" data-name="Retângulo 646" width="13.277" height="15.206" transform="translate(394.076 585.789) rotate(180)" fill="#fff"/>
        <rect id="Retângulo_647" data-name="Retângulo 647" width="76.437" height="11.393" transform="translate(799.453 428.853) rotate(180)" fill="#fff"/>
        <rect id="Retângulo_648" data-name="Retângulo 648" width="76.437" height="11.393" transform="translate(799.453 450.98) rotate(180)" fill="#fff"/>
        <rect id="Retângulo_649" data-name="Retângulo 649" width="76.437" height="11.393" transform="translate(799.453 473.085) rotate(180)" fill="#fff"/>
        <rect id="Retângulo_650" data-name="Retângulo 650" width="76.437" height="11.393" transform="translate(799.453 495.19) rotate(180)" fill="#fff"/>
        <rect id="Retângulo_651" data-name="Retângulo 651" width="76.437" height="11.393" transform="translate(799.453 517.318) rotate(180)" fill="#fff"/>
        <rect id="Retângulo_652" data-name="Retângulo 652" width="76.437" height="11.393" transform="translate(799.453 539.423) rotate(180)" fill="#fff"/>
        <rect id="Retângulo_653" data-name="Retângulo 653" width="76.437" height="11.393" transform="translate(799.453 561.55) rotate(180)" fill="#fff"/>
        <rect id="Retângulo_654" data-name="Retângulo 654" width="76.437" height="11.393" transform="translate(799.453 583.633) rotate(180)" fill="#fff"/>
        <rect id="Retângulo_655" data-name="Retângulo 655" width="70.286" height="11.393" transform="translate(242.927 409.449) rotate(180)" fill="#fff"/>
        <rect id="Retângulo_656" data-name="Retângulo 656" width="70.286" height="11.393" transform="translate(242.927 431.576) rotate(180)" fill="#fff"/>
        <rect id="Retângulo_657" data-name="Retângulo 657" width="70.286" height="11.393" transform="translate(242.927 453.704) rotate(180)" fill="#fff"/>
        <rect id="Retângulo_658" data-name="Retângulo 658" width="70.286" height="11.393" transform="translate(242.927 475.809) rotate(180)" fill="#fff"/>
        <rect id="Retângulo_659" data-name="Retângulo 659" width="70.286" height="11.393" transform="translate(242.927 497.914) rotate(180)" fill="#fff"/>
        <rect id="Retângulo_660" data-name="Retângulo 660" width="70.286" height="11.393" transform="translate(242.927 520.041) rotate(180)" fill="#fff"/>
        <rect id="Retângulo_661" data-name="Retângulo 661" width="70.286" height="11.393" transform="translate(242.927 542.146) rotate(180)" fill="#fff"/>
        <rect id="Retângulo_662" data-name="Retângulo 662" width="70.286" height="11.393" transform="translate(242.927 564.274) rotate(180)" fill="#fff"/>
        <rect id="Retângulo_663" data-name="Retângulo 663" width="70.286" height="11.393" transform="translate(242.927 585.267) rotate(180)" fill="#fff"/>
        <rect id="Retângulo_664" data-name="Retângulo 664" width="70.286" height="11.393" transform="translate(242.927 606.282) rotate(180)" fill="#fff"/>
        <rect id="Retângulo_665" data-name="Retângulo 665" width="70.286" height="11.393" transform="translate(242.927 627.298) rotate(180)" fill="#fff"/>
        <rect id="Retângulo_666" data-name="Retângulo 666" width="70.286" height="11.393" transform="translate(242.927 648.29) rotate(180)" fill="#fff"/>
        <rect id="Retângulo_667" data-name="Retângulo 667" width="70.286" height="11.393" transform="translate(242.927 669.306) rotate(180)" fill="#fff"/>
        <rect id="Retângulo_668" data-name="Retângulo 668" width="74.235" height="11.393" transform="translate(133.265 436.16) rotate(180)" fill="#fff"/>
        <rect id="Retângulo_669" data-name="Retângulo 669" width="74.235" height="11.393" transform="translate(133.265 458.288) rotate(180)" fill="#fff"/>
        <rect id="Retângulo_670" data-name="Retângulo 670" width="74.235" height="11.393" transform="translate(133.265 480.416) rotate(180)" fill="#fff"/>
        <rect id="Retângulo_671" data-name="Retângulo 671" width="74.235" height="11.393" transform="translate(133.265 502.521) rotate(180)" fill="#fff"/>
        <rect id="Retângulo_672" data-name="Retângulo 672" width="74.235" height="11.393" transform="translate(133.265 524.626) rotate(180)" fill="#fff"/>
        <rect id="Retângulo_673" data-name="Retângulo 673" width="74.235" height="11.393" transform="translate(133.265 546.753) rotate(180)" fill="#fff"/>
        <rect id="Retângulo_674" data-name="Retângulo 674" width="74.235" height="11.393" transform="translate(133.265 568.858) rotate(180)" fill="#fff"/>
        <rect id="Retângulo_675" data-name="Retângulo 675" width="74.235" height="11.393" transform="translate(133.265 590.986) rotate(180)" fill="#fff"/>
        <rect id="Retângulo_676" data-name="Retângulo 676" width="74.235" height="11.393" transform="translate(133.265 610.776) rotate(180)" fill="#fff"/>
        <rect id="Retângulo_677" data-name="Retângulo 677" width="74.235" height="11.393" transform="translate(133.265 630.566) rotate(180)" fill="#fff"/>
        <rect id="Retângulo_678" data-name="Retângulo 678" width="74.235" height="11.393" transform="translate(133.265 650.356) rotate(180)" fill="#fff"/>
        <rect id="Retângulo_679" data-name="Retângulo 679" width="23.603" height="11.007" transform="translate(530.041 392.473) rotate(180)" fill="#fff"/>
        <rect id="Retângulo_680" data-name="Retângulo 680" width="23.603" height="11.007" transform="translate(530.041 413.829) rotate(180)" fill="#fff"/>
        <rect id="Retângulo_681" data-name="Retângulo 681" width="23.603" height="11.007" transform="translate(530.041 435.185) rotate(180)" fill="#fff"/>
        <rect id="Retângulo_682" data-name="Retângulo 682" width="23.603" height="11.007" transform="translate(530.041 456.541) rotate(180)" fill="#fff"/>
        <rect id="Retângulo_683" data-name="Retângulo 683" width="23.603" height="11.007" transform="translate(530.041 477.897) rotate(180)" fill="#fff"/>
        <rect id="Retângulo_684" data-name="Retângulo 684" width="23.603" height="11.007" transform="translate(530.041 499.253) rotate(180)" fill="#fff"/>
        <rect id="Retângulo_685" data-name="Retângulo 685" width="23.603" height="11.007" transform="translate(530.041 520.609) rotate(180)" fill="#fff"/>
        <rect id="Retângulo_686" data-name="Retângulo 686" width="23.603" height="11.007" transform="translate(530.041 541.965) rotate(180)" fill="#fff"/>
        <rect id="Retângulo_687" data-name="Retângulo 687" width="23.603" height="11.007" transform="translate(497.928 392.473) rotate(180)" fill="#fff"/>
        <rect id="Retângulo_688" data-name="Retângulo 688" width="23.603" height="11.007" transform="translate(497.928 413.829) rotate(180)" fill="#fff"/>
        <rect id="Retângulo_689" data-name="Retângulo 689" width="23.603" height="11.007" transform="translate(497.928 435.185) rotate(180)" fill="#fff"/>
        <rect id="Retângulo_690" data-name="Retângulo 690" width="23.603" height="11.007" transform="translate(497.928 456.541) rotate(180)" fill="#fff"/>
        <rect id="Retângulo_691" data-name="Retângulo 691" width="23.603" height="11.007" transform="translate(497.928 477.897) rotate(180)" fill="#fff"/>
        <rect id="Retângulo_692" data-name="Retângulo 692" width="23.603" height="11.007" transform="translate(497.928 499.253) rotate(180)" fill="#fff"/>
        <rect id="Retângulo_693" data-name="Retângulo 693" width="23.603" height="11.007" transform="translate(497.928 520.609) rotate(180)" fill="#fff"/>
        <rect id="Retângulo_694" data-name="Retângulo 694" width="23.603" height="11.007" transform="translate(497.928 541.965) rotate(180)" fill="#fff"/>
        <rect id="Retângulo_695" data-name="Retângulo 695" width="24.601" height="17.362" transform="translate(684.617 319.599) rotate(180)" fill="#fff"/>
        <rect id="Retângulo_696" data-name="Retângulo 696" width="24.601" height="17.362" transform="translate(647.964 319.599) rotate(180)" fill="#fff"/>
        <rect id="Retângulo_697" data-name="Retângulo 697" width="24.601" height="17.362" transform="translate(684.617 345.086) rotate(180)" fill="#fff"/>
        <rect id="Retângulo_698" data-name="Retângulo 698" width="24.601" height="17.362" transform="translate(647.964 345.086) rotate(180)" fill="#fff"/>
        <rect id="Retângulo_699" data-name="Retângulo 699" width="24.601" height="17.362" transform="translate(684.617 370.595) rotate(180)" fill="#fff"/>
        <rect id="Retângulo_700" data-name="Retângulo 700" width="24.601" height="17.362" transform="translate(647.964 370.595) rotate(180)" fill="#fff"/>
        <rect id="Retângulo_701" data-name="Retângulo 701" width="24.601" height="17.362" transform="translate(684.617 396.081) rotate(180)" fill="#fff"/>
        <rect id="Retângulo_702" data-name="Retângulo 702" width="24.601" height="17.362" transform="translate(647.964 396.081) rotate(180)" fill="#fff"/>
        <rect id="Retângulo_703" data-name="Retângulo 703" width="24.601" height="17.362" transform="translate(684.617 421.59) rotate(180)" fill="#fff"/>
        <rect id="Retângulo_704" data-name="Retângulo 704" width="24.601" height="17.362" transform="translate(647.964 421.59) rotate(180)" fill="#fff"/>
        <rect id="Retângulo_705" data-name="Retângulo 705" width="24.601" height="17.362" transform="translate(684.617 447.1) rotate(180)" fill="#fff"/>
        <rect id="Retângulo_706" data-name="Retângulo 706" width="24.601" height="17.362" transform="translate(647.964 447.1) rotate(180)" fill="#fff"/>
        <rect id="Retângulo_707" data-name="Retângulo 707" width="24.601" height="17.362" transform="translate(684.617 472.586) rotate(180)" fill="#fff"/>
        <rect id="Retângulo_708" data-name="Retângulo 708" width="24.601" height="17.362" transform="translate(647.964 472.586) rotate(180)" fill="#fff"/>
        <rect id="Retângulo_709" data-name="Retângulo 709" width="24.601" height="17.362" transform="translate(684.617 498.095) rotate(180)" fill="#fff"/>
        <rect id="Retângulo_710" data-name="Retângulo 710" width="24.601" height="17.362" transform="translate(647.964 498.095) rotate(180)" fill="#fff"/>
        <rect id="Retângulo_711" data-name="Retângulo 711" width="24.601" height="17.362" transform="translate(602.506 370.595) rotate(180)" fill="#fff"/>
        <rect id="Retângulo_712" data-name="Retângulo 712" width="24.601" height="17.362" transform="translate(602.506 396.081) rotate(180)" fill="#fff"/>
        <rect id="Retângulo_713" data-name="Retângulo 713" width="24.601" height="17.362" transform="translate(602.506 421.59) rotate(180)" fill="#fff"/>
        <rect id="Retângulo_714" data-name="Retângulo 714" width="24.601" height="17.362" transform="translate(602.506 447.1) rotate(180)" fill="#fff"/>
        <rect id="Retângulo_715" data-name="Retângulo 715" width="24.601" height="17.362" transform="translate(602.506 472.586) rotate(180)" fill="#fff"/>
        <rect id="Retângulo_716" data-name="Retângulo 716" width="24.601" height="17.362" transform="translate(602.506 498.095) rotate(180)" fill="#fff"/>
        <rect id="Retângulo_717" data-name="Retângulo 717" width="24.601" height="17.362" transform="translate(684.617 523.287) rotate(180)" fill="#fff"/>
        <rect id="Retângulo_718" data-name="Retângulo 718" width="24.601" height="17.362" transform="translate(647.964 523.287) rotate(180)" fill="#fff"/>
        <rect id="Retângulo_719" data-name="Retângulo 719" width="24.601" height="17.362" transform="translate(602.506 523.287) rotate(180)" fill="#fff"/>
        <rect id="Retângulo_720" data-name="Retângulo 720" width="24.601" height="17.362" transform="translate(684.617 548.455) rotate(180)" fill="#fff"/>
        <rect id="Retângulo_721" data-name="Retângulo 721" width="24.601" height="17.362" transform="translate(647.964 548.455) rotate(180)" fill="#fff"/>
        <rect id="Retângulo_722" data-name="Retângulo 722" width="24.601" height="17.362" transform="translate(602.506 548.455) rotate(180)" fill="#fff"/>
        <rect id="Retângulo_723" data-name="Retângulo 723" width="24.601" height="17.362" transform="translate(684.617 573.647) rotate(180)" fill="#fff"/>
        <rect id="Retângulo_724" data-name="Retângulo 724" width="24.601" height="17.362" transform="translate(647.964 573.647) rotate(180)" fill="#fff"/>
        <rect id="Retângulo_725" data-name="Retângulo 725" width="24.601" height="17.362" transform="translate(602.506 573.647) rotate(180)" fill="#fff"/>
        <rect id="Retângulo_726" data-name="Retângulo 726" width="24.601" height="17.362" transform="translate(684.617 598.838) rotate(180)" fill="#fff"/>
        <rect id="Retângulo_727" data-name="Retângulo 727" width="24.601" height="17.362" transform="translate(647.964 598.838) rotate(180)" fill="#fff"/>
        <rect id="Retângulo_728" data-name="Retângulo 728" width="24.601" height="17.362" transform="translate(602.506 598.838) rotate(180)" fill="#fff"/>
        <rect id="Retângulo_729" data-name="Retângulo 729" width="24.601" height="17.362" transform="translate(684.617 624.03) rotate(180)" fill="#fff"/>
        <rect id="Retângulo_730" data-name="Retângulo 730" width="24.601" height="17.362" transform="translate(647.964 624.03) rotate(180)" fill="#fff"/>
        <rect id="Retângulo_731" data-name="Retângulo 731" width="24.601" height="17.362" transform="translate(602.506 624.03) rotate(180)" fill="#fff"/>
        <rect id="Retângulo_732" data-name="Retângulo 732" width="13.277" height="15.206" transform="translate(369.066 342.203) rotate(180)" fill="#fff"/>
        <rect id="Retângulo_733" data-name="Retângulo 733" width="13.277" height="15.206" transform="translate(346.053 342.203) rotate(180)" fill="#fff"/>
        <rect id="Retângulo_734" data-name="Retângulo 734" width="13.277" height="15.206" transform="translate(369.066 365.08) rotate(180)" fill="#fff"/>
        <rect id="Retângulo_735" data-name="Retângulo 735" width="13.277" height="15.206" transform="translate(346.053 365.08) rotate(180)" fill="#fff"/>
        <rect id="Retângulo_736" data-name="Retângulo 736" width="13.277" height="15.206" transform="translate(369.066 387.956) rotate(180)" fill="#fff"/>
        <rect id="Retângulo_737" data-name="Retângulo 737" width="13.277" height="15.206" transform="translate(346.053 387.956) rotate(180)" fill="#fff"/>
        <rect id="Retângulo_738" data-name="Retângulo 738" width="13.277" height="15.206" transform="translate(369.066 410.856) rotate(180)" fill="#fff"/>
        <rect id="Retângulo_739" data-name="Retângulo 739" width="13.277" height="15.206" transform="translate(346.053 410.856) rotate(180)" fill="#fff"/>
        <rect id="Retângulo_740" data-name="Retângulo 740" width="13.277" height="15.206" transform="translate(369.066 434.3) rotate(180)" fill="#fff"/>
        <rect id="Retângulo_741" data-name="Retângulo 741" width="13.277" height="15.206" transform="translate(346.053 434.3) rotate(180)" fill="#fff"/>
        <rect id="Retângulo_742" data-name="Retângulo 742" width="13.277" height="15.206" transform="translate(369.066 457.721) rotate(180)" fill="#fff"/>
        <rect id="Retângulo_743" data-name="Retângulo 743" width="13.277" height="15.206" transform="translate(346.053 457.721) rotate(180)" fill="#fff"/>
        <rect id="Retângulo_744" data-name="Retângulo 744" width="13.277" height="15.206" transform="translate(369.066 481.165) rotate(180)" fill="#fff"/>
        <rect id="Retângulo_745" data-name="Retângulo 745" width="13.277" height="15.206" transform="translate(346.053 481.165) rotate(180)" fill="#fff"/>
        <rect id="Retângulo_746" data-name="Retângulo 746" width="13.277" height="15.206" transform="translate(369.066 504.609) rotate(180)" fill="#fff"/>
        <rect id="Retângulo_747" data-name="Retângulo 747" width="13.277" height="15.206" transform="translate(346.053 504.609) rotate(180)" fill="#fff"/>
        <rect id="Retângulo_748" data-name="Retângulo 748" width="13.277" height="15.206" transform="translate(369.066 528.302) rotate(180)" fill="#fff"/>
        <rect id="Retângulo_749" data-name="Retângulo 749" width="13.277" height="15.206" transform="translate(346.053 528.302) rotate(180)" fill="#fff"/>
        <rect id="Retângulo_750" data-name="Retângulo 750" width="13.277" height="15.206" transform="translate(369.066 551.973) rotate(180)" fill="#fff"/>
        <rect id="Retângulo_751" data-name="Retângulo 751" width="13.277" height="15.206" transform="translate(346.053 551.973) rotate(180)" fill="#fff"/>
        <rect id="Retângulo_752" data-name="Retângulo 752" width="13.277" height="15.206" transform="translate(369.066 575.667) rotate(180)" fill="#fff"/>
        <rect id="Retângulo_753" data-name="Retângulo 753" width="13.277" height="15.206" transform="translate(346.053 575.667) rotate(180)" fill="#fff"/>
        <rect id="Retângulo_754" data-name="Retângulo 754" width="13.277" height="15.206" transform="translate(369.066 599.383) rotate(180)" fill="#fff"/>
        <rect id="Retângulo_755" data-name="Retângulo 755" width="13.277" height="15.206" transform="translate(346.053 599.383) rotate(180)" fill="#fff"/>
        <rect id="Retângulo_756" data-name="Retângulo 756" width="13.277" height="17.906" transform="translate(44.777 347.378) rotate(180)" fill="#fff"/>
        <rect id="Retângulo_757" data-name="Retângulo 757" width="13.277" height="17.906" transform="translate(21.787 347.378) rotate(180)" fill="#fff"/>
        <rect id="Retângulo_758" data-name="Retângulo 758" width="13.277" height="17.906" transform="translate(44.777 374.339) rotate(180)" fill="#fff"/>
        <rect id="Retângulo_759" data-name="Retângulo 759" width="13.277" height="17.906" transform="translate(21.787 374.339) rotate(180)" fill="#fff"/>
        <rect id="Retângulo_760" data-name="Retângulo 760" width="13.277" height="17.906" transform="translate(44.777 401.278) rotate(180)" fill="#fff"/>
        <rect id="Retângulo_761" data-name="Retângulo 761" width="13.277" height="17.906" transform="translate(21.787 401.278) rotate(180)" fill="#fff"/>
        <rect id="Retângulo_762" data-name="Retângulo 762" width="13.277" height="17.906" transform="translate(44.777 428.24) rotate(180)" fill="#fff"/>
        <rect id="Retângulo_763" data-name="Retângulo 763" width="13.277" height="17.906" transform="translate(21.787 428.24) rotate(180)" fill="#fff"/>
        <rect id="Retângulo_764" data-name="Retângulo 764" width="13.277" height="17.906" transform="translate(44.777 455.86) rotate(180)" fill="#fff"/>
        <rect id="Retângulo_765" data-name="Retângulo 765" width="13.277" height="17.906" transform="translate(21.787 455.86) rotate(180)" fill="#fff"/>
        <rect id="Retângulo_766" data-name="Retângulo 766" width="13.277" height="17.906" transform="translate(44.777 483.48) rotate(180)" fill="#fff"/>
        <rect id="Retângulo_767" data-name="Retângulo 767" width="13.277" height="17.906" transform="translate(21.787 483.48) rotate(180)" fill="#fff"/>
        <rect id="Retângulo_768" data-name="Retângulo 768" width="13.277" height="17.906" transform="translate(44.777 511.077) rotate(180)" fill="#fff"/>
        <rect id="Retângulo_769" data-name="Retângulo 769" width="13.277" height="17.906" transform="translate(21.787 511.077) rotate(180)" fill="#fff"/>
        <rect id="Retângulo_770" data-name="Retângulo 770" width="13.277" height="17.906" transform="translate(44.777 538.719) rotate(180)" fill="#fff"/>
        <rect id="Retângulo_771" data-name="Retângulo 771" width="13.277" height="17.906" transform="translate(21.787 538.719) rotate(180)" fill="#fff"/>
        <rect id="Retângulo_772" data-name="Retângulo 772" width="13.277" height="17.906" transform="translate(44.777 566.634) rotate(180)" fill="#fff"/>
        <rect id="Retângulo_773" data-name="Retângulo 773" width="13.277" height="17.906" transform="translate(21.787 566.634) rotate(180)" fill="#fff"/>
        <rect id="Retângulo_774" data-name="Retângulo 774" width="13.277" height="17.906" transform="translate(44.777 594.526) rotate(180)" fill="#fff"/>
        <rect id="Retângulo_775" data-name="Retângulo 775" width="13.277" height="17.906" transform="translate(21.787 594.526) rotate(180)" fill="#fff"/>
        <rect id="Retângulo_776" data-name="Retângulo 776" width="13.277" height="17.906" transform="translate(44.777 622.441) rotate(180)" fill="#fff"/>
        <rect id="Retângulo_777" data-name="Retângulo 777" width="13.277" height="17.906" transform="translate(21.787 622.441) rotate(180)" fill="#fff"/>
        <rect id="Retângulo_778" data-name="Retângulo 778" width="13.277" height="17.906" transform="translate(44.777 650.356) rotate(180)" fill="#fff"/>
        <rect id="Retângulo_779" data-name="Retângulo 779" width="13.277" height="17.906" transform="translate(21.787 650.356) rotate(180)" fill="#fff"/>
        <rect id="Retângulo_780" data-name="Retângulo 780" width="13.277" height="15.206" transform="translate(319.818 342.203) rotate(180)" fill="#fff"/>
        <rect id="Retângulo_781" data-name="Retângulo 781" width="13.277" height="15.206" transform="translate(296.805 342.203) rotate(180)" fill="#fff"/>
        <rect id="Retângulo_782" data-name="Retângulo 782" width="13.277" height="15.206" transform="translate(319.818 318.759) rotate(180)" fill="#fff"/>
        <rect id="Retângulo_783" data-name="Retângulo 783" width="13.277" height="15.206" transform="translate(296.805 318.759) rotate(180)" fill="#fff"/>
        <rect id="Retângulo_784" data-name="Retângulo 784" width="13.277" height="15.206" transform="translate(319.818 295.316) rotate(180)" fill="#fff"/>
        <rect id="Retângulo_785" data-name="Retângulo 785" width="13.277" height="15.206" transform="translate(296.805 295.316) rotate(180)" fill="#fff"/>
        <rect id="Retângulo_786" data-name="Retângulo 786" width="13.277" height="15.206" transform="translate(319.818 365.08) rotate(180)" fill="#fff"/>
        <rect id="Retângulo_787" data-name="Retângulo 787" width="13.277" height="15.206" transform="translate(296.805 365.08) rotate(180)" fill="#fff"/>
        <rect id="Retângulo_788" data-name="Retângulo 788" width="13.277" height="15.206" transform="translate(319.818 387.956) rotate(180)" fill="#fff"/>
        <rect id="Retângulo_789" data-name="Retângulo 789" width="13.277" height="15.206" transform="translate(296.805 387.956) rotate(180)" fill="#fff"/>
        <rect id="Retângulo_790" data-name="Retângulo 790" width="13.277" height="15.206" transform="translate(319.818 410.856) rotate(180)" fill="#fff"/>
        <rect id="Retângulo_791" data-name="Retângulo 791" width="13.277" height="15.206" transform="translate(296.805 410.856) rotate(180)" fill="#fff"/>
        <rect id="Retângulo_792" data-name="Retângulo 792" width="13.277" height="15.206" transform="translate(319.818 434.3) rotate(180)" fill="#fff"/>
        <rect id="Retângulo_793" data-name="Retângulo 793" width="13.277" height="15.206" transform="translate(296.805 434.3) rotate(180)" fill="#fff"/>
        <rect id="Retângulo_794" data-name="Retângulo 794" width="13.277" height="15.206" transform="translate(319.818 457.721) rotate(180)" fill="#fff"/>
        <rect id="Retângulo_795" data-name="Retângulo 795" width="13.277" height="15.206" transform="translate(296.805 457.721) rotate(180)" fill="#fff"/>
        <rect id="Retângulo_796" data-name="Retângulo 796" width="13.277" height="15.206" transform="translate(319.818 481.165) rotate(180)" fill="#fff"/>
        <rect id="Retângulo_797" data-name="Retângulo 797" width="13.277" height="15.206" transform="translate(296.805 481.165) rotate(180)" fill="#fff"/>
        <rect id="Retângulo_798" data-name="Retângulo 798" width="13.277" height="15.206" transform="translate(319.818 504.609) rotate(180)" fill="#fff"/>
        <rect id="Retângulo_799" data-name="Retângulo 799" width="13.277" height="15.206" transform="translate(296.805 504.609) rotate(180)" fill="#fff"/>
        <rect id="Retângulo_800" data-name="Retângulo 800" width="13.277" height="15.206" transform="translate(319.818 528.302) rotate(180)" fill="#fff"/>
        <rect id="Retângulo_801" data-name="Retângulo 801" width="13.277" height="15.206" transform="translate(296.805 528.302) rotate(180)" fill="#fff"/>
        <rect id="Retângulo_802" data-name="Retângulo 802" width="13.277" height="15.206" transform="translate(319.818 551.973) rotate(180)" fill="#fff"/>
        <rect id="Retângulo_803" data-name="Retângulo 803" width="13.277" height="15.206" transform="translate(296.805 551.973) rotate(180)" fill="#fff"/>
        <rect id="Retângulo_804" data-name="Retângulo 804" width="13.277" height="15.206" transform="translate(319.818 575.667) rotate(180)" fill="#fff"/>
        <rect id="Retângulo_805" data-name="Retângulo 805" width="13.277" height="15.206" transform="translate(296.805 575.667) rotate(180)" fill="#fff"/>
        <rect id="Retângulo_806" data-name="Retângulo 806" width="13.277" height="15.206" transform="translate(319.818 599.383) rotate(180)" fill="#fff"/>
        <rect id="Retângulo_807" data-name="Retângulo 807" width="13.277" height="15.206" transform="translate(296.805 599.383) rotate(180)" fill="#fff"/>
        <path id="Caminho_460" data-name="Caminho 460" d="M582.8,210.869H338.44s24.238-66.179,61.526-66.179,48.953,45.685,48.953,45.685,25.169-24.828,45.844-24.828,38.581,32.794,38.581,32.794S562.6,180.707,582.8,210.869Z" transform="translate(317.014 27.097)" fill="#fff"/>
        <path id="Caminho_462" data-name="Caminho 462" d="M276.311,205.718H53.9s30.457-68.085,63.047-72.261,48.159,50.519,48.159,50.519,21.016-19.359,37.538-19.359,29.3,25.509,29.3,25.509S264.963,172.652,276.311,205.718Z" transform="translate(-44.209 12.548)" fill="#fff"/>
      </g>
      <g id="freepik--Shadow--inject-5" transform="translate(268.845 869.457)">
        <ellipse id="Elipse_7" data-name="Elipse 7" cx="370.019" cy="24.488" rx="370.019" ry="24.488" fill="#ebebeb"/>
      </g>
      <g id="freepik--Table--inject-5" transform="translate(15.66 799.352)">
        <path id="Caminho_464" data-name="Caminho 464" d="M1079.328,391.945l-132.97.545-132.947.2-265.917.363-265.917-.363-132.947-.2-132.97-.545,132.97-.567,132.947-.2,265.917-.363,265.917.363,132.947.2Z" transform="translate(-15.66 -390.81)" fill="#263238"/>
      </g>
      <g id="freepik--Character--inject-5" transform="translate(75.693 191.714)">
        <path id="Caminho_465" data-name="Caminho 465" d="M264.475,246.689c38.4,39.943,153.759,217.713,162.746,223.023,0,0,0,116.266-64.25,93.049s-123.143-231.807-135.716-298.3C220.628,229.35,233.11,214.1,264.475,246.689Z" transform="translate(190.736 11.061)" fill="#d3766a"/>
        <path id="Caminho_466" data-name="Caminho 466" d="M260.955,390.6,378.7,377.208s-73.032-96.885-110.774-131.472c-39.353-36.04-58.644-30.979-40.4,37.288C245.862,351.7,260.955,390.6,260.955,390.6Z" transform="translate(184.475 4.592)" fill="#c53f3f"/>
        <path id="Caminho_467" data-name="Caminho 467" d="M249.8,326.456a36.855,36.855,0,0,0-2.451,10.145,40.329,40.329,0,0,0,7.421-19.291,35.224,35.224,0,0,0-4.97,9.146Zm66.133,2.655a36.514,36.514,0,0,0-10.122-2.451,40.126,40.126,0,0,0,19.268,7.421,34.859,34.859,0,0,0-9.146-4.97Zm-17.543,45.8a36.791,36.791,0,0,0-5.447-8.874,36.743,36.743,0,0,0,3,9.963,34.561,34.561,0,0,0,5.4,8.9A37.066,37.066,0,0,0,298.393,374.91ZM229.309,227.392c-.59-1.248-1.18-2.474-1.861-3.7a12.453,12.453,0,0,0-2.428,0c.545,1.657,1.157,3.245,1.838,4.834a35.7,35.7,0,0,0,5.424,8.9,37.015,37.015,0,0,0-2.973-10.031ZM365,366.6l-2.27.908a37.4,37.4,0,0,0-8.919,5.424,37.012,37.012,0,0,0,10.008-2.973c.908-.408,1.793-.84,2.678-1.316Zm-90.78-93.526a37.173,37.173,0,0,0-8.9,5.4,36.312,36.312,0,0,0,10.009-2.95,36.813,36.813,0,0,0,8.9-5.424,36.312,36.312,0,0,0-10.054,2.973Zm-7.9.2a4.338,4.338,0,0,0-.386.295h.408a1.945,1.945,0,0,1-.068-.3Z" transform="translate(190.089 4.598)" fill="#fff"/>
        <path id="Caminho_468" data-name="Caminho 468" d="M240.9,293.507c2.746-.635,5.628-.885,8.42-1.271l8.669-1.2c5.833-.817,11.688-1.543,17.543-2.27,11.711-1.362,23.421-2.791,35.155-3.949,3.223-.318,6.468-.635,9.691-.885s6.809-.25,10.213-.5a.159.159,0,0,1,0,.318c-2.882.431-5.742,1.089-8.624,1.543s-5.946.862-8.919,1.226c-5.833.749-11.711,1.43-17.566,2.088-11.529,1.248-23.081,2.565-34.655,3.586l-9.668.817c-3.382.3-6.809.794-10.213.772a.159.159,0,0,1-.045-.272Z" transform="translate(210.177 80.509)" fill="#263238"/>
        <path id="Caminho_469" data-name="Caminho 469" d="M318.072,381.351l-57.1,6.491s-15.092-38.9-33.452-107.574c-7.739-28.959-8.715-46.547-4.267-54.468Z" transform="translate(184.48 7.348)" opacity="0.1"/>
        <path id="Caminho_470" data-name="Caminho 470" d="M373.7,485.364H194.616c-1.475-5.764-2.9-11.348-4.335-17.021-1.634-6.423-3.245-12.686-4.789-18.791-.34-1.362-.7-2.723-1.044-4.062q-1.77-7.013-3.472-13.617c-.681-2.7-1.362-5.356-2.02-7.989s-1.362-5.311-2.02-7.875c-.182-.681-.34-1.362-.522-2.02l-.545-2.27-.681-2.655h0c-.25-.931-.477-1.838-.7-2.746-.454-1.725-.885-3.427-1.294-5.084-.635-2.451-1.248-4.857-1.838-7.194-.25-1.021-.522-2.043-.772-3.041-.431-1.634-.84-3.223-1.226-4.789-.272-1.044-.522-2.065-.772-3.064q-1.589-6.173-2.95-11.574c-.25-.953-.477-1.884-.726-2.792-.386-1.566-.772-3.064-1.135-4.539q-.386-1.362-.681-2.655c-.794-3.087-1.521-5.9-2.133-8.374-.182-.658-.34-1.294-.5-1.906-.408-1.634-.794-3.086-1.112-4.38-.136-.522-.25-1.021-.386-1.475l-.363-1.43a3.8,3.8,0,0,0-.227-.908l-.318-1.226a1.119,1.119,0,0,0-.136-.545l-.408-1.611H331.83s5.742,19.79,14.933,51.7c1.861,6.491,3.881,13.617,6.037,20.947C358.905,433.665,366.031,458.493,373.7,485.364Z" transform="translate(104.385 151.982)" fill="#37474f"/>
        <path id="Caminho_471" data-name="Caminho 471" d="M202.866,462.492h-4.539q-9.94-41.146-19.268-82.451l-4.539-20.108-.408-1.884a.272.272,0,0,1,.522-.136,2.1,2.1,0,0,0,.182.613q3.018,10.8,6.014,21.628Q192.335,421.21,202.866,462.492Z" transform="translate(125.458 174.854)" fill="#263238"/>
        <path id="Caminho_472" data-name="Caminho 472" d="M326.179,339.753l-7.694,38.581-6.309,31.591-10.735,53.832-1.112,5.515-1.838,9.191-1.43,6.9H194.594c-1.452-5.787-2.9-11.348-4.312-17.021-1.634-6.423-3.245-12.686-4.789-18.791-.34-1.362-.7-2.723-1.044-4.062q-1.77-7.013-3.472-13.617c-.681-2.7-1.362-5.356-2.02-7.989s-1.362-5.311-2.02-7.875c-.182-.681-.34-1.362-.522-2.02l-.545-2.27-.681-2.655h0c-.25-.931-.477-1.838-.7-2.746-.454-1.725-.885-3.427-1.294-5.084-.635-2.451-1.248-4.857-1.838-7.194-.272-1.044-.522-2.043-.772-3.041-.431-1.634-.84-3.223-1.226-4.789-.272-1.044-.522-2.065-.772-3.064q-1.589-6.173-2.95-11.574c-.25-.953-.477-1.884-.726-2.792-.386-1.566-.772-3.064-1.135-4.539q-.386-1.362-.681-2.655c-.794-3.087-1.521-5.9-2.133-8.374-.182-.658-.34-1.294-.5-1.906-.408-1.634-.794-3.086-1.112-4.38-.136-.522-.25-1.021-.386-1.475l-.363-1.43a3.8,3.8,0,0,0-.227-.908l-.318-1.226a1.119,1.119,0,0,0-.136-.545l-.408-1.611Z" transform="translate(104.385 151.982)" fill="#263238"/>
        <path id="Caminho_473" data-name="Caminho 473" d="M371.1,339.748h0c0,.953-.726,11.348-2.406,27.234-.477,4.539-1.044,9.714-1.7,15.16-1.021,8.6-2.27,18.156-3.858,28.119-2.678,17.5-6.173,36.584-10.712,55.24-1.611,6.808-3.382,13.367-5.265,19.881H122.14c2.655-34.292,5.084-65.316,7.013-89.759,2.7-34.406,4.539-55.943,4.539-55.943H337.81Z" transform="translate(59.483 151.919)" fill="#37474f"/>
        <path id="Caminho_474" data-name="Caminho 474" d="M254.2,351.821c-.25,8.057-.59,16.091-1.112,24.1-.545,8.692-1.339,17.362-2.474,26.031a2.747,2.747,0,0,1-.113.953q-1.589,12.187-3.654,24.306c-1.294,7.535-2.27,15.659-5.583,22.695a22.129,22.129,0,0,1-5.265,7.1,15.546,15.546,0,0,1-7.194,3.722,8.69,8.69,0,0,1-1.339.227h-.386a.5.5,0,0,1,.25.477,69.271,69.271,0,0,1-.318,8.125v.34c-.272,2.27-.7,4.652-1.135,6.967h-3.858v-.136c.681-2.542,1.248-5.106,1.884-7.671s1.543-5.174,2.156-7.83a.522.522,0,0,1,.182-.25,12.005,12.005,0,0,1-11.62-7.285,20.856,20.856,0,0,1-.182-10.576c.7-4.539,1.384-9.214,2.088-13.821,1.316-8.465,3.018-16.84,4.539-25.259l.681-3.836c3.018-17.135,6.173-34.269,9.963-51.245.136-.7.3-1.407.454-2.111s.862-.34.817.113c-.113,1.135-.227,2.269-.363,3.427q-1,9.781-2.27,19.472c-1.089,7.6-1.838,15.251-2.9,22.854-.363,2.587-.726,5.174-1.112,7.762-1.748,12.5-3.563,24.964-5.7,37.469-1,5.787-4.539,16.159,3.722,17.952a8.489,8.489,0,0,0,5.651-.7,17.747,17.747,0,0,0,7.739-9.781,129.825,129.825,0,0,0,4.426-20.834q2.043-11.348,3.631-22.9h0q2.043-14.321,4.267-28.618,1.112-7.285,2.27-14.57l1.089-6.809C253.455,351.208,254.2,351.344,254.2,351.821Z" transform="translate(175.906 160.521)" fill="#263238"/>
        <path id="Caminho_475" data-name="Caminho 475" d="M144.189,409.447a113.472,113.472,0,0,0,27.756-3.745c4.176-1.067,8.306-2.406,12.414-3.745a32.2,32.2,0,0,0,11.211-5.628c6.309-5.447,9.237-14,11.983-21.628a209.193,209.193,0,0,0,7.24-26.258c0-.431.726-.272.749.136a101.743,101.743,0,0,1-3.79,29.8c-2.27,8.238-5.311,17.407-11.96,23.172s-16.477,8.215-25.441,9.3a117.2,117.2,0,0,1-30.23-.408.5.5,0,0,1,.068-1Z" transform="translate(86.795 162.718)" fill="#263238"/>
        <path id="Caminho_476" data-name="Caminho 476" d="M142.624,348.731q-.749,18.882-1.589,37.81-1.929,44.051-4.244,88.1H132.57q2.9-44.142,6.1-88.238,1.384-18.86,2.86-37.7a.545.545,0,1,1,1.089.023Z" transform="translate(72.724 162.703)" fill="#263238"/>
        <path id="Caminho_477" data-name="Caminho 477" d="M419.67,586.5,114.4,563.356s61.413-243.4,182.672-332.89c31-22.854,64.93-8.193,80.2,8.9C416.084,282.891,420.578,585.529,419.67,586.5Z" transform="translate(49.657 -1.63)" fill="#c53f3f"/>
        <path id="Caminho_478" data-name="Caminho 478" d="M306.961,235.737a37.743,37.743,0,0,0-2.451,10.122,36.308,36.308,0,0,0,4.993-9.078,37.742,37.742,0,0,0,2.451-10.122,37.063,37.063,0,0,0-4.993,9.078ZM273.826,367.05a35.473,35.473,0,0,0-2.428,10.145,40.6,40.6,0,0,0,7.4-19.291,36.627,36.627,0,0,0-4.97,9.146ZM164.754,423.356A37.062,37.062,0,0,0,162.3,433.5a40.328,40.328,0,0,0,7.421-19.291A38.221,38.221,0,0,0,164.754,423.356Zm88.034,82.95a34.972,34.972,0,0,0-2.451,10.122,40.6,40.6,0,0,0,7.4-19.291A36.313,36.313,0,0,0,252.788,506.306Zm133.22-179.472a36.855,36.855,0,0,0-2.451,10.145,40.328,40.328,0,0,0,7.421-19.291,35.222,35.222,0,0,0-4.97,9.191ZM331.676,491.94a35.357,35.357,0,0,0-2.474,10.122,35.9,35.9,0,0,0,4.97-9.078,36.9,36.9,0,0,0,2.451-10.122,35.837,35.837,0,0,0-4.947,9.078Zm-110-171.279a36.7,36.7,0,0,0-2.451,10.122,39.988,39.988,0,0,0,7.4-19.291,35.586,35.586,0,0,0-4.948,9.169Zm121.963-43.574a35.723,35.723,0,0,0-10.122-2.451,36.314,36.314,0,0,0,9.078,4.947,35.494,35.494,0,0,0,10.145,2.451,35.97,35.97,0,0,0-9.1-4.948ZM378.223,386.5a36.11,36.11,0,0,0-10.122-2.451A35.52,35.52,0,0,0,377.179,389,36.129,36.129,0,0,0,387.3,391.47a35.539,35.539,0,0,0-9.078-4.879Zm9.282,130.768a36.7,36.7,0,0,0-10.122-2.451,35.587,35.587,0,0,0,9.078,4.97,37.1,37.1,0,0,0,10.122,2.451,36.974,36.974,0,0,0-9.078-4.879ZM170.2,506.511a36.513,36.513,0,0,0-10.122-2.451,40.123,40.123,0,0,0,19.268,7.421,36.312,36.312,0,0,0-9.146-4.88Zm78.547-83.971a36.743,36.743,0,0,0-10.122-2.474,36.449,36.449,0,0,0,9.078,4.993,37.741,37.741,0,0,0,10.122,2.451,36.308,36.308,0,0,0-9.078-4.9ZM365.514,227.748c-.318-.681-.635-1.339-.976-2h0c-1.112-.84-2.269-1.657-3.518-2.451a46.781,46.781,0,0,0,2.043,5.583,35.7,35.7,0,0,0,5.424,8.9,37.016,37.016,0,0,0-2.973-9.963ZM276.3,298.33a36.109,36.109,0,0,0-5.424-8.9,39.875,39.875,0,0,0,8.4,18.882,35.834,35.834,0,0,0-2.973-9.986Zm78.774,268.55a36.718,36.718,0,0,0-5.4-8.9,36.583,36.583,0,0,0,2.95,9.986,38.13,38.13,0,0,0,4.97,8.352h.363a36.059,36.059,0,0,0-2.882-9.441ZM326.093,408.718a37.108,37.108,0,0,0-5.424-8.9,40.852,40.852,0,0,0,8.375,18.882A36.583,36.583,0,0,0,326.093,408.718Zm-207.931,120.6c-.136.477-.272.953-.431,1.407.3.318.567.658.84.976a20.075,20.075,0,0,0-.408-2.315Zm90.78-60.55a36.7,36.7,0,0,0-5.424-8.874,39.92,39.92,0,0,0,8.4,18.86,36.857,36.857,0,0,0-3.041-9.918Zm19.472,87.376a36.817,36.817,0,0,0-5.424-8.9,40.692,40.692,0,0,0,8.4,18.9,36.314,36.314,0,0,0-3.041-9.918ZM381.083,451.021a37.263,37.263,0,0,0-8.9,5.424,40.689,40.689,0,0,0,18.9-8.4,36.307,36.307,0,0,0-10.077,3.041ZM140.289,464.275l-1.157,3.132a32.112,32.112,0,0,0,6.808-4.426,28.389,28.389,0,0,0-5.719,1.362Zm155.642,75.62a36.45,36.45,0,0,0-8.9,5.4,36.971,36.971,0,0,0,10.008-2.95,37.353,37.353,0,0,0,8.9-5.447,35.493,35.493,0,0,0-10.077,3.064ZM156.743,560.139l-1.566.749,5.333.409a31.5,31.5,0,0,0,6.218-4.13,37.106,37.106,0,0,0-10.054,3.041Zm53.469-186.621a38.585,38.585,0,0,0-8.9,5.424,40.691,40.691,0,0,0,18.9-8.375,36.312,36.312,0,0,0-10.077,3.018Zm78.252,86.922a36.9,36.9,0,0,0-8.9,5.447,40.419,40.419,0,0,0,18.9-8.4,36.973,36.973,0,0,0-10.077,3.018Zm40.851-119.489a38.01,38.01,0,0,0-8.9,5.424A40.148,40.148,0,0,0,339.3,338a36.815,36.815,0,0,0-10.122,3.018Z" transform="translate(53.884 4.174)" fill="#fff"/>
        <path id="Caminho_479" data-name="Caminho 479" d="M244.192,321.507c-17.611-2.61-35.495-38.15-38.581-62.389-.2-1.679,27.234-54.037,31.523-64.953C238.019,191.9,299.2,238.1,299.2,238.1s-15.886,20.244-23.308,39.376C275.375,279.067,261.213,324,244.192,321.507Z" transform="translate(165.447 -32.915)" fill="#d3766a"/>
        <path id="Caminho_480" data-name="Caminho 480" d="M289.025,238.1s-15.887,20.244-23.33,39.353c-.136.386-1.044,3.2-2.542,7.217-31.455-15.886-44.278-44.255-49.452-62.979,5.946-11.915,11.484-23.1,13.254-27.529C227.839,191.918,289.025,238.1,289.025,238.1Z" transform="translate(175.718 -32.914)" fill="#263238"/>
        <path id="Caminho_481" data-name="Caminho 481" d="M241.71,167.553c-17.906,20.72-35.813,95.455-25.577,118.422,14.865,33.271,54.468,53.265,86.513,32,31.16-20.63,52.766-118.445,39.9-140.868C323.616,144.064,268.127,136.96,241.71,167.553Z" transform="translate(175.01 -91.341)" fill="#d3766a"/>
        <path id="Caminho_482" data-name="Caminho 482" d="M255.2,188.628c-2.27.182-4.539,0-6.808,0a11.008,11.008,0,0,1-6.967-1.362,3.54,3.54,0,0,1-.862-4.221,8.738,8.738,0,0,1,8.034-3.722,12.846,12.846,0,0,1,8.806,2.814,3.767,3.767,0,0,1-2.2,6.491Z" transform="translate(209.363 -51.707)" fill="#263238"/>
        <path id="Caminho_483" data-name="Caminho 483" d="M250.539,188.264c0-.2-.454.159-.5.386-.84,5.106-2.678,10.826-7.6,11.6a.148.148,0,0,0,0,.3C248.178,200.859,250.539,193.257,250.539,188.264Z" transform="translate(212.025 -40.38)" fill="#263238"/>
        <path id="Caminho_484" data-name="Caminho 484" d="M249.138,185.611c-8.057-2.27-11.96,14.048-4.539,16.113S255.879,187.494,249.138,185.611Z" transform="translate(209.93 -43.946)" fill="#263238"/>
        <path id="Caminho_485" data-name="Caminho 485" d="M259.778,191.021c0-.182.34.34.3.545-1.362,4.993-2.088,10.962,2.065,13.617.136,0,0,.34-.113.272C256.646,203.458,257.69,195.56,259.778,191.021Z" transform="translate(232.062 -36.851)" fill="#263238"/>
        <path id="Caminho_486" data-name="Caminho 486" d="M265.288,189.19c8.261,1.316,5.016,17.725-2.633,16.5S258.366,188.078,265.288,189.19Z" transform="translate(232.317 -39.196)" fill="#263238"/>
        <path id="Caminho_487" data-name="Caminho 487" d="M271.707,192.858a62.5,62.5,0,0,1-6.082-3.245,11.053,11.053,0,0,1-5.56-4.539,3.54,3.54,0,0,1,1.226-4.153c2.792-1.816,6.014-.976,8.874.431a12.959,12.959,0,0,1,6.513,6.627,3.79,3.79,0,0,1-4.97,4.879Z" transform="translate(234.272 -50.944)" fill="#263238"/>
        <path id="Caminho_488" data-name="Caminho 488" d="M238.81,207.565c.908,1.475,1.725,3.382,3.518,3.972a13.618,13.618,0,0,0,5.742,0,.182.182,0,0,1,.136.318,6.967,6.967,0,0,1-7.035,1.2,5.492,5.492,0,0,1-2.9-5.4C238.265,207.361,238.674,207.338,238.81,207.565Z" transform="translate(206.869 -15.994)" fill="#263238"/>
        <path id="Caminho_489" data-name="Caminho 489" d="M242.437,229.078a17.747,17.747,0,0,0,9.645,10.372,22.49,22.49,0,0,0,6.1,1.77,5.582,5.582,0,0,0,1.2.136,9.218,9.218,0,0,0,1.157,0,1.248,1.248,0,0,0,1.271-.885h0a4.543,4.543,0,0,0,0-.545h0v-.454c1.021-3.858,2.065-9.85,2.065-9.85,1.248,1.044,7.694,6.037,8.079,3.972,3.018-17.021,6.355-35.949,5.764-53.537a.477.477,0,0,0-.953,0c-3.54,16.25-4.2,33.021-7.512,49.407a30.231,30.231,0,0,0-7.33-4.448c-.59,0-1.793,11.62-2.406,13.3a1.007,1.007,0,0,1,0,.181c-6.809-.726-11.166-3.881-16.454-9.759C242.732,228.352,242.232,228.6,242.437,229.078Z" transform="translate(212.139 -51.328)" fill="#263238"/>
        <path id="Caminho_490" data-name="Caminho 490" d="M258.648,211.089a20.992,20.992,0,0,1-9.668,4.357,9.419,9.419,0,0,1-5.651-.976c-3.767-2.02-3-5.742-1.5-8.738a22.694,22.694,0,0,1,2.973-4.4A27.1,27.1,0,0,0,258.648,211.089Z" transform="translate(209.862 -23.716)" fill="#263238"/>
        <path id="Caminho_491" data-name="Caminho 491" d="M248.98,212.983a9.419,9.419,0,0,1-5.651-.976c-3.767-2.02-3-5.742-1.5-8.738C246.052,204.745,249.615,208.717,248.98,212.983Z" transform="translate(209.862 -21.254)" fill="#ff97b8"/>
        <path id="Caminho_492" data-name="Caminho 492" d="M350.424,216.9c-31.773,13.3-63.909-23.489-63.909-23.489a30.933,30.933,0,0,1-34.723,12.755s-15.251,46-27.688,43.234c-18.9-4.04-11.347-69.537-2.791-80.93s25.35-11.348,25.35-11.348,3.2-9.555,16.772-16.068c14.979-7.217,56.737,15.41,56.737,15.41a42.325,42.325,0,0,1,14.638-13.05,11.938,11.938,0,0,1,16.522,5.061,28.412,28.412,0,0,0-6.967,10.667c-5.106,13.345,6.173,15.682,8.692,3.132a20,20,0,0,0-1.725-13.8c7.262-7.035,16.908-7.807,21.515-2.27C381.311,156.351,376.863,205.872,350.424,216.9Z" transform="translate(173.984 -102.039)" fill="#263238"/>
        <path id="Caminho_493" data-name="Caminho 493" d="M247.361,223.3a21.923,21.923,0,1,1,28.573-19.495h0A21.946,21.946,0,0,1,247.361,223.3Zm12.528-38.922a19.041,19.041,0,1,0,12.545,22.883,19.218,19.218,0,0,0-12.545-22.883Z" transform="translate(199.112 -50.16)" fill="#c53f3f"/>
        <path id="Caminho_494" data-name="Caminho 494" d="M265.739,227.2c-7.852-2.95-11.938-13.617-9.078-24.76a26.03,26.03,0,0,1,8.193-13.753,13.617,13.617,0,0,1,22.695,5.628,26.281,26.281,0,0,1,.794,16c-2.9,11.711-12.369,19.495-21.106,17.316a8.674,8.674,0,0,1-1.5-.431Zm12.278-38.922-1.067-.318a11.642,11.642,0,0,0-10.326,2.973,23.285,23.285,0,0,0-7.24,12.21c-2.519,10.167,1.226,19.881,8.42,21.651s15.047-5.038,17.566-15.183a23.172,23.172,0,0,0-.681-14.184,12.005,12.005,0,0,0-6.672-7.149Z" transform="translate(229.097 -44.885)" fill="#c53f3f"/>
        <path id="Caminho_495" data-name="Caminho 495" d="M251.687,194.428l-1.407-2.565c3.79-2.111,12.051-4.289,16.2,2.269l-2.5,1.543C260.288,189.8,252.027,194.224,251.687,194.428Z" transform="translate(222.156 -38.42)" fill="#c53f3f"/>
        <path id="Caminho_496" data-name="Caminho 496" d="M209.489,192.641l-2.269-1.816c.862-1.067,8.511-10.44,15.115-10.213,6.2.227,44.006,11.348,45.617,11.915l-.84,2.814c-10.848-3.223-40.079-11.643-44.868-11.8C217.841,183.381,211.555,190.053,209.489,192.641Z" transform="translate(167.492 -50.023)" fill="#c53f3f"/>
        <path id="Caminho_497" data-name="Caminho 497" d="M237.736,201.795s-6.1-29.231-18.723-27.983-14.752,38.854-4.652,48.454a13.254,13.254,0,0,0,19.132.454Z" transform="translate(168.454 -58.7)" fill="#d3766a"/>
        <path id="Caminho_498" data-name="Caminho 498" d="M213.806,178.566c-.182-.113-.34.136-.2.3,6.967,6.99,8.034,16.681,7.694,26.077-1.18-4.176-3.858-7.353-9.305-6.15-.272,0-.2.477,0,.545a8.1,8.1,0,0,1,7.126,6.15,39.762,39.762,0,0,1,1.112,8.352.843.843,0,0,0,1.679,0,.774.774,0,0,1,0-.227C226.765,203.122,224.858,184.557,213.806,178.566Z" transform="translate(173.32 -52.652)" fill="#263238"/>
        <path id="Caminho_499" data-name="Caminho 499" d="M304.534,278.95c5.742-15.115,138.871,12.255,133.56,35.427C418.6,399.256,364.268,475.1,350.537,492.442c-18.02,22.695-53.878,17.657-66.95,3.9C264.637,476.4,298.861,293.929,304.534,278.95Z" transform="translate(257.252 69.307)" fill="#d3766a"/>
        <path id="Caminho_500" data-name="Caminho 500" d="M294.824,294.987a172.961,172.961,0,0,0-7.013,24.964c-1.929,8.4-3.609,16.84-4.97,25.328A381.972,381.972,0,0,0,278.3,397.16c-.25,9.713,0,19.4,0,29.118,0,.227.363.2.363,0,0-8.6.522-17.271,1.226-25.85s1.566-17.316,2.678-25.918c2.156-16.908,4.539-33.793,7.6-50.564q1.271-7.058,2.655-14.071c.976-4.857,2.088-9.691,2.723-14.616C295.55,294.9,294.983,294.579,294.824,294.987Z" transform="translate(257.589 94.938)" fill="#263238"/>
        <path id="Caminho_501" data-name="Caminho 501" d="M341.133,206.265a235.13,235.13,0,0,1-5.174,34.337c-.431,1.929-.908,3.9-1.384,5.855-1.906,7.762-4.176,15.569-6.808,23.081q-.908,2.723-1.906,5.379c-8.057,21.764-18.7,40.488-30.684,48.431a58.008,58.008,0,0,1-9.645,5.22,117.2,117.2,0,0,1-58.1-97.7l-3.631-1c.567-.885,1.157-1.793,1.725-2.746s1.271-2.156,1.884-3.291a117.129,117.129,0,0,1,33.089-78c28.527-7.671,62.684,3.291,77.049,28.323C341.042,180.347,342.109,192.012,341.133,206.265Z" transform="translate(188.54 -97.235)" fill="#d3766a"/>
        <path id="Caminho_502" data-name="Caminho 502" d="M258.075,186.4a69.987,69.987,0,0,1-7.24,0c-2.792,0-5.016.2-7.4-1.453a3.722,3.722,0,0,1-.908-4.539c1.748-3.087,5.152-3.881,8.511-3.949a13.617,13.617,0,0,1,9.328,2.973,3.994,3.994,0,0,1-2.292,6.967Z" transform="translate(211.796 -55.315)" fill="#263238"/>
        <path id="Caminho_503" data-name="Caminho 503" d="M253.1,186.032c0-.2-.477.182-.522.386-.885,5.424-2.837,11.484-8.057,12.3a.161.161,0,0,0,0,.318C250.6,199.264,253.1,191.207,253.1,186.032Z" transform="translate(214.666 -43.21)" fill="#263238"/>
        <path id="Caminho_504" data-name="Caminho 504" d="M251.613,183.176c-8.533-2.383-12.664,14.865-4.766,17.067S258.762,185.173,251.613,183.176Z" transform="translate(212.449 -47.049)" fill="#263238"/>
        <path id="Caminho_505" data-name="Caminho 505" d="M262.893,188.9c0-.182.363.363.3.59-1.453,5.288-2.27,11.6,2.269,14.525.136,0,0,.363-.113.295C259.579,202.063,260.669,193.712,262.893,188.9Z" transform="translate(235.892 -39.542)" fill="#263238"/>
        <path id="Caminho_506" data-name="Caminho 506" d="M268.739,186.962c8.738,1.407,5.288,18.791-2.814,17.5S261.408,185.782,268.739,186.962Z" transform="translate(236.151 -42.029)" fill="#263238"/>
        <path id="Caminho_507" data-name="Caminho 507" d="M275.514,190.8c-2.27-.976-4.244-2.27-6.423-3.427a11.847,11.847,0,0,1-5.9-4.743,3.745,3.745,0,0,1,1.294-4.38c2.973-1.929,6.377-1.044,9.4.454a13.617,13.617,0,0,1,6.809,7.013,3.994,3.994,0,0,1-5.175,5.084Z" transform="translate(238.227 -54.422)" fill="#263238"/>
        <path id="Caminho_508" data-name="Caminho 508" d="M240.673,206.43c.976,1.543,1.838,3.563,3.745,4.2a14,14,0,0,0,6.06,0,.2.2,0,0,1,.159.34,7.376,7.376,0,0,1-7.467,1.271,5.832,5.832,0,0,1-3.064-5.719C240.083,206.2,240.514,206.2,240.673,206.43Z" transform="translate(209.204 -17.446)" fill="#263238"/>
        <path id="Caminho_509" data-name="Caminho 509" d="M244.531,229.18a18.7,18.7,0,0,0,10.19,11.007,23.514,23.514,0,0,0,6.468,1.861,6.49,6.49,0,0,0,1.294.159,9.616,9.616,0,0,0,1.2,0,1.339,1.339,0,0,0,1.362-.931h0a2.1,2.1,0,0,0,0-.545h0v-.477c1.089-4.085,2.27-10.44,2.27-10.44,1.316,1.112,8.148,6.4,8.533,4.221,3.2-18.156,6.808-38.1,6.128-56.737a.5.5,0,0,0-1,0c-3.767,17.2-4.539,34.973-7.966,52.2a32.794,32.794,0,0,0-7.966-4.539c-.613,0-1.906,12.3-2.542,14.094a.566.566,0,0,1,0,.182c-7.1-.772-11.824-4.085-17.407-10.349C244.826,228.431,244.3,228.681,244.531,229.18Z" transform="translate(214.787 -54.857)" fill="#263238"/>
        <path id="Caminho_510" data-name="Caminho 510" d="M261.69,210.207a22.037,22.037,0,0,1-10.235,4.539,9.759,9.759,0,0,1-5.969-1.044c-4.017-2.133-3.177-6.082-1.589-9.237a23.9,23.9,0,0,1,3.132-4.675A28.778,28.778,0,0,0,261.69,210.207Z" transform="translate(212.381 -25.671)" fill="#263238"/>
        <path id="Caminho_511" data-name="Caminho 511" d="M251.444,212.161a9.759,9.759,0,0,1-5.969-1.044c-4.017-2.133-3.177-6.082-1.589-9.237C248.335,203.446,252.125,207.622,251.444,212.161Z" transform="translate(212.368 -23.018)" fill="#ff97b8"/>
        <path id="Caminho_512" data-name="Caminho 512" d="M342.738,214.893c-1.2.5-2.406.93-3.586,1.294-32.5,10.077-64.113-26.19-64.113-26.19a32.749,32.749,0,0,1-36.766,13.617A214.031,214.031,0,0,1,225.36,233.82a117.288,117.288,0,0,1,55.285-95.886,225.2,225.2,0,0,1,30.139,13.118,44.936,44.936,0,0,1,15.523-13.821,12.641,12.641,0,0,1,17.5,5.333,30.569,30.569,0,0,0-7.376,11.347c-5.4,14.116,6.536,16.59,9.191,3.314a21.129,21.129,0,0,0-1.816-14.638c7.694-7.421,17.906-8.238,22.7-2.269C375.442,150.8,370.767,203.2,342.738,214.893Z" transform="translate(190.52 -107.157)" fill="#263238"/>
        <path id="Caminho_513" data-name="Caminho 513" d="M271.633,183.136a23.1,23.1,0,0,0-13.367-5.311,22.039,22.039,0,0,0-4.425.159,23.194,23.194,0,0,0-17.52,12.142,18.919,18.919,0,0,0-1.271,2.86,22.219,22.219,0,0,0-1.384,6.536A23.262,23.262,0,0,0,249.71,223.08a24.379,24.379,0,0,0,5.674,1.067h1.452a23.262,23.262,0,0,0,23.035-19.722c0-.658.159-1.316.2-2s0-1,0-1.475a23.126,23.126,0,0,0-8.443-17.816Zm-16.068,37.9a20.108,20.108,0,0,1-2.542-39.807,19.743,19.743,0,0,1,5.061-.318,20.424,20.424,0,0,1,4.9.931,19.834,19.834,0,0,1,5.651,2.882,20.085,20.085,0,0,1-13.072,36.312Z" transform="translate(201.007 -53.614)" fill="#c53f3f"/>
        <path id="Caminho_514" data-name="Caminho 514" d="M292.2,192.34l-.408-.976a16.046,16.046,0,0,0-6.809-7.557,12.687,12.687,0,0,0-3.109-1.226,13.346,13.346,0,0,0-4.834-.272,17.044,17.044,0,0,0-8.874,4.062,24.28,24.28,0,0,0-4.811,5.56,27.707,27.707,0,0,0-2.519,4.9,23.968,23.968,0,0,0-1.135,3.4,6.361,6.361,0,0,0-.2.7,28.119,28.119,0,0,0,.408,15.637,16.477,16.477,0,0,0,9.328,10.6c.477.182.953.318,1.452.454a14.479,14.479,0,0,0,11.053-1.952,26.44,26.44,0,0,0,11.347-16.408A27.711,27.711,0,0,0,292.2,192.34Zm-2.269,16.182a25.372,25.372,0,0,1-6.377,11.779,12.981,12.981,0,0,1-12.21,4.312c-7.625-1.884-11.6-12.164-8.919-22.922a24.714,24.714,0,0,1,7.648-12.936,12.414,12.414,0,0,1,10.962-3.155,9.072,9.072,0,0,1,1.112.34,12.823,12.823,0,0,1,7.081,7.58,19.4,19.4,0,0,1,1.089,3.7,26.215,26.215,0,0,1-.3,11.3Z" transform="translate(232.702 -47.998)" fill="#c53f3f"/>
        <path id="Caminho_515" data-name="Caminho 515" d="M254.305,192.517l-1.475-2.723c4.017-2.27,12.777-4.539,17.157,2.5l-2.633,1.634C263.429,187.615,254.691,192.313,254.305,192.517Z" transform="translate(225.393 -41.207)" fill="#c53f3f"/>
        <path id="Caminho_516" data-name="Caminho 516" d="M250.5,187.439l-.885,2.973-2.065-.613c-5.106-1.5-12.641-3.677-20.153-5.765l-3.631-1c.567-.885,1.157-1.793,1.725-2.746l1.838.522c9.078,2.5,17.861,5.061,21.492,6.128Z" transform="translate(188.502 -50.427)" fill="#c53f3f"/>
        <g id="Grupo_14" data-name="Grupo 14" transform="translate(415.778 13.067)" opacity="0.3">
          <path id="Caminho_517" data-name="Caminho 517" d="M367.579,360.233a117.061,117.061,0,1,1,89.146-139.483A117.061,117.061,0,0,1,367.579,360.233Z" transform="translate(-225.315 -128.826)" fill="#fff"/>
          <path id="Caminho_518" data-name="Caminho 518" d="M231.67,205.18a117.129,117.129,0,0,0,157.98,47Z" transform="translate(-217.247 -31.895)" fill="#ebebeb"/>
          <path id="Caminho_519" data-name="Caminho 519" d="M233.15,175.912,449.524,240.3a117.714,117.714,0,0,0-2.723-27.665,114.674,114.674,0,0,0-11.007-29.867L276.066,135.22A117.149,117.149,0,0,0,233.15,175.912Z" transform="translate(-215.368 -120.71)" fill="#ebebeb"/>
          <path id="Caminho_520" data-name="Caminho 520" d="M226.178,199.325,432.271,260.6a118.173,118.173,0,0,0,12.913-19L225.724,176.29a113.185,113.185,0,0,0,.454,23.035Z" transform="translate(-225.281 -68.571)" fill="#ebebeb"/>
          <path id="Caminho_521" data-name="Caminho 521" d="M229.85,161.535l222.411,66.2c.227-1.407.431-2.814.59-4.221L231.62,157.7C231.007,158.948,230.395,160.219,229.85,161.535Z" transform="translate(-219.557 -92.171)" fill="#ebebeb"/>
          <path id="Caminho_522" data-name="Caminho 522" d="M268.38,130.271,367.1,159.638c-2.564-2.383-5.265-4.539-8.057-6.809L278.865,129A102.716,102.716,0,0,0,268.38,130.271Z" transform="translate(-170.643 -128.606)" fill="#ebebeb"/>
        </g>
        <rect id="Retângulo_808" data-name="Retângulo 808" width="30.774" height="135.33" transform="translate(604.205 382.563) rotate(167.58)" fill="#ebebeb"/>
        <path id="Caminho_523" data-name="Caminho 523" d="M476.818,225.244a130.133,130.133,0,1,0-99.109,155.075,130.133,130.133,0,0,0,99.109-155.075Zm-101.946,142.3A117.061,117.061,0,1,1,464,228.058,117.061,117.061,0,0,1,374.872,367.542Z" transform="translate(183.169 -123.069)" fill="#455a64"/>
        <path id="Caminho_524" data-name="Caminho 524" d="M315,406.673l45.458-10.009h0L334.681,279.49,289.2,289.5h0Z" transform="translate(271.565 75.508)" fill="#263238"/>
        <path id="Caminho_525" data-name="Caminho 525" d="M357.09,216.064a2.749,2.749,0,0,1-.114-.408c-.545-1.952.59,1.884.182.613s-1-3.064-1.566-4.539a99.356,99.356,0,0,0-7.262-15.206c-.386-.681-.817-1.362-1.2-2.043-.136-.227,1,1.589,0,.159l-.794-1.226c-1.044-1.566-2.111-3.109-3.223-4.539a93.175,93.175,0,0,0-8.011-9.441l-2.088-2.088c-.953-.93,1.112,1.021-.2-.182l-1.316-1.2c-1.7-1.475-3.45-2.9-5.265-4.267s-3.972-2.86-6.037-4.153c-.953-.59-1.906-1.157-2.882-1.7-1.679-.976.726.34-.522-.3l-1.793-.908a92.237,92.237,0,0,0-16.931-6.355h-.295l-.635-.136-2.61-.567c-1.7-.34-3.382-.635-5.106-.885a108.055,108.055,0,0,0-10.871-1,7.743,7.743,0,1,1,1.747-15.387,97.588,97.588,0,0,1,62.547,25.259,106.665,106.665,0,0,1,26.145,38.286,77.666,77.666,0,0,1,3.313,9.963,7.762,7.762,0,0,1-6.445,8.851A7.921,7.921,0,0,1,357,216.223Z" transform="translate(249.314 -101.247)" fill="#fff"/>
        <path id="Caminho_526" data-name="Caminho 526" d="M310.76,188.626a7.626,7.626,0,1,0,6.332-8.692,7.626,7.626,0,0,0-6.332,8.692Z" transform="translate(298.822 -51.001)" fill="#fff"/>
        <path id="Caminho_527" data-name="Caminho 527" d="M440.69,392.327s32.5-53.424-7.966-104.4c-16.658-20.97-55.966-58.576-135.716-53.333-18.928,1.248-45,16.431-13.367,25.623,22.468,6.536,38.695,3.881,51.086,10.054,0,0-30.888,23.262-28.891,42.167.885,8.443,1.543,26.894,6.423,44.459,0,0,6.4,4.539,11.6,3.767,0,0,14,40.4,64.363,52.811Z" transform="translate(245.714 17.887)" fill="#d3766a"/>
        <path id="Caminho_528" data-name="Caminho 528" d="M417.943,264.041c-13.027-5.2-40.851-15.728-66.61-16.454-28.618-.794-83.971,5.4-84.312,26.53-.272,15.5,21.061,14.979,21.061,14.979s-22.332,7.376-19.495,21.424c2.565,12.8,19.041,11.348,19.041,11.348s-12.777,6.808-7.921,18.655c5.833,14.252,31.637-2.269,49.929,6.99C333.858,349.692,417.943,264.041,417.943,264.041Z" transform="translate(243.406 34.923)" fill="#d3766a"/>
        <path id="Caminho_529" data-name="Caminho 529" d="M343.785,261.664c-13.05-2.86-44.391-1.77-67.132,10.644-.522.272-.59.817,0,.658a281.99,281.99,0,0,1,67.132-11.03C343.989,261.936,343.989,261.823,343.785,261.664Z" transform="translate(255.107 51.212)" fill="#263238"/>
        <path id="Caminho_530" data-name="Caminho 530" d="M342.657,273.822c-11.529-1.316-43.779,1.248-66.383,14.616-.522.3-.545.84,0,.658a301.3,301.3,0,0,1,66.428-15,.138.138,0,1,0-.045-.272Z" transform="translate(254.647 67.922)" fill="#263238"/>
        <path id="Caminho_531" data-name="Caminho 531" d="M367.259,344.645a138.329,138.329,0,0,1-33.18-12.55A92.326,92.326,0,0,1,306.6,309.4c-2.269-2.837-4.539-5.787-6.513-8.806s-4.153-6.445-6.491-9.441c-.182-.227-.613,0-.477.2a104.874,104.874,0,0,0,9.668,18A73.716,73.716,0,0,0,314.9,323.766a82.859,82.859,0,0,0,31.773,17.611,112.451,112.451,0,0,0,20.426,3.7C367.441,345.167,367.577,344.713,367.259,344.645Z" transform="translate(276.502 90.194)" fill="#263238"/>
        <path id="Caminho_532" data-name="Caminho 532" d="M275.452,252.5C216.99,331,119.424,535.6,105.081,565.69c-9.736,20.425,97,74.213,101.515,59.37,5.81-19.018,101.242-270.07,114.61-361.6C328.513,213.282,295.673,225.333,275.452,252.5Z" transform="translate(37.03 11.378)" fill="#d3766a"/>
        <path id="Caminho_533" data-name="Caminho 533" d="M288.62,433.251c-2.474,18.5-15.047,55.762-24.4,61.458s-58.485,4.539-83.245,4.539-29.5-6.922-29.208-15.433,52.357-10.145,52.357-10.145-69.4,19.79-86.854,23.126-57.645,13.39-63.546-1.067c-2.61-6.536,8.4-13.14,8.4-13.14s-16.862,4.925-19.563-3.45c-3.041-9.555,10.372-14.8,10.372-14.8s-10.553,2.111-10.8-5.674c-.454-17.475,65.543-26.008,65.543-26.008s-50.519,24.6-52.2,10.394c-2.269-19.631,101.31-41.169,112.091-49.725a201.992,201.992,0,0,0,21.946-21.311Z" transform="translate(-42.112 192.974)" fill="#d3766a"/>
        <path id="Caminho_534" data-name="Caminho 534" d="M90.9,435.386a7.671,7.671,0,0,1,2.269-6.627,21.556,21.556,0,0,1,6.037-3.9,80.965,80.965,0,0,1,14.184-4.539c9.759-2.474,19.767-4.221,29.73-6.808a122,122,0,0,0-30.5,3.4,56.011,56.011,0,0,0-14.593,5.583,19.744,19.744,0,0,0-6.105,5.22,7.9,7.9,0,0,0-1.021,7.671Z" transform="translate(19.115 245.625)" fill="#263238"/>
        <path id="Caminho_535" data-name="Caminho 535" d="M51,434.728c7.149-1.748,14.184-3.745,21.2-5.787s14-4.176,20.993-6.287l20.9-6.536c6.967-2.269,13.935-4.357,20.97-6.468a162.981,162.981,0,0,0-21.674,3.881c-7.172,1.634-14.207,3.677-21.22,5.81s-13.957,4.539-20.811,7.081S57.582,431.641,51,434.728Z" transform="translate(-30.829 240.745)" fill="#263238"/>
        <path id="Caminho_536" data-name="Caminho 536" d="M123.415,402a135.243,135.243,0,0,0-20.017,2.769,182.269,182.269,0,0,0-19.586,5.038,177.827,177.827,0,0,0-18.95,7.081,139.753,139.753,0,0,0-17.952,9.26c6.377-2.27,12.6-4.652,18.928-6.809s12.641-4.289,19.018-6.241,12.755-3.881,19.177-5.765S116.9,403.815,123.415,402Z" transform="translate(-36.022 231.034)" fill="#263238"/>
        <path id="Caminho_537" data-name="Caminho 537" d="M110.282,394.72a124.62,124.62,0,0,0-31.773,6.809,124.028,124.028,0,0,0-29.3,14.207c10.258-3.654,20.244-7.512,30.434-10.916S99.933,398.056,110.282,394.72Z" transform="translate(-33.102 221.792)" fill="#263238"/>
        <path id="Caminho_538" data-name="Caminho 538" d="M257.018,393.105,138.55,389.837S203.117,287.074,237.7,249.378c36.108-39.262,55.762-35.881,43.438,33.679C268.728,353.094,257.018,393.105,257.018,393.105Z" transform="translate(80.315 5.331)" fill="#c53f3f"/>
        <path id="Caminho_539" data-name="Caminho 539" d="M163.426,368.648a38.579,38.579,0,0,0-8.9,5.424,40.692,40.692,0,0,0,18.9-8.375A36.315,36.315,0,0,0,163.426,368.648Zm66.156-75.257a36.109,36.109,0,0,0-5.424-8.9,39.876,39.876,0,0,0,8.4,18.882,35.839,35.839,0,0,0-2.973-9.986Zm-54.627,22.332a36.7,36.7,0,0,0-2.451,10.122,39.988,39.988,0,0,0,7.4-19.291,35.585,35.585,0,0,0-4.947,9.169Zm52.2,46.389a35.471,35.471,0,0,0-2.428,10.145,40.6,40.6,0,0,0,7.4-19.291,36.632,36.632,0,0,0-5.016,9.146ZM261.877,227.19c-.567,1.18-1.089,2.383-1.589,3.609a37.742,37.742,0,0,0-2.451,10.122,36.314,36.314,0,0,0,4.993-9.078c.113-.3.2-.567.3-.862a23.8,23.8,0,0,0-1.294-3.79Z" transform="translate(100.602 9.113)" fill="#fff"/>
        <path id="Caminho_540" data-name="Caminho 540" d="M238.036,291.035c-2.814-.409-5.7-.409-8.511-.545l-8.738-.477q-8.806-.431-17.679-.7c-11.8-.363-23.58-.772-35.359-.931h-9.736c-3.245,0-6.808.34-10.213.363-.2,0-.182.318,0,.318,2.9.182,5.81.613,8.738.794s5.969.363,8.965.477c5.9.227,11.8.431,17.7.567,11.6.272,23.217.59,34.814.613h9.85c3.382,0,6.808.182,10.213-.113C238.172,291.33,238.218,291.058,238.036,291.035Z" transform="translate(91.876 86.793)" fill="#263238"/>
        <path id="Caminho_541" data-name="Caminho 541" d="M220.154,272.488c0-.227-.272-.363-.386-.136a89.507,89.507,0,0,0-5.628,12.6c.408-2.065.885-4.131,1.271-6.218,1.294-6.672,2.474-13.39,3.79-20.062a.2.2,0,0,0-.386,0c-3.064,11.484-6.627,22.854-9.35,34.428s-5.47,23.149-8.011,34.769c-1.384,6.423-2.633,14.434-4.04,20.834-3.427.408-7.83,0-11.529.477-.318,0-.227.567,0,.567,3.9.113,8.556,1,12.664.749.522,0,10.462-41.282,14.593-61.049C215.683,283.813,218.044,278.184,220.154,272.488Z" transform="translate(140.146 48.898)" fill="#263238"/>
        <path id="Caminho_542" data-name="Caminho 542" d="M284.924,251.928c-1.657,5.424-3.54,10.78-5.7,16.023a86.6,86.6,0,0,1-6.6,13.617c-4.9,7.739-12.437,14.139-21.991,14.116-9.078,0-17.384-5.265-23.194-11.983-6.355-7.33-10.576-16.522-14.366-25.373-2.269-5.469-4.539-11.052-6.355-16.7-.93-2.86-1.906-5.719-2.723-8.624s-1.521-5.833-2.519-8.67c0-.227-.5-.2-.431,0,1.679,6.536,6.559,27.234,8.511,32.5,3.586,9.645,7.626,19.608,14.094,27.733,6.128,7.671,14.457,13.481,24.42,14.434s18.5-4.289,23.989-12.187a63.886,63.886,0,0,0,7.489-16.045c2.111-6.218,3.881-12.6,5.492-18.973C285.128,251.882,284.924,251.859,284.924,251.928Z" transform="translate(159.643 5.277)" fill="#263238"/>
      </g>
      <g id="freepik--Houses--inject-5" transform="translate(281.032 636.493)">
        <path id="Caminho_543" data-name="Caminho 543" d="M496.958,510.529H334.212L326.95,367.46H496.958Z" transform="translate(114.15 -257.594)" fill="#dbdbdb"/>
        <path id="Caminho_544" data-name="Caminho 544" d="M401.86,408.4l58.462-73.191L506.847,408.4,499.585,551.47H401.86Z" transform="translate(209.248 -298.535)" fill="#c7c7c7"/>
        <path id="Caminho_545" data-name="Caminho 545" d="M391.779,324.97h173.73L628.17,427.188H607.994l-42.485-70.763-49,79.206H320.63Z" transform="translate(106.126 -311.535)" fill="#a6a6a6"/>
        <path id="Caminho_546" data-name="Caminho 546" d="M392.892,339.22H355.536L335.61,363.1h43.12Z" transform="translate(125.144 -293.444)" fill="#c7c7c7"/>
        <path id="Caminho_547" data-name="Caminho 547" d="M360.009,355.214v29.072H339.22V355.214l10.394-13Z" transform="translate(129.726 -289.648)" fill="#dbdbdb"/>
        <path id="Caminho_548" data-name="Caminho 548" d="M348.38,347.93h16.34l-16.34,29.1Z" transform="translate(141.355 -282.387)" fill="#c7c7c7"/>
        <rect id="Retângulo_809" data-name="Retângulo 809" width="11.824" height="19.949" transform="translate(472.895 66.02)" fill="#fbfaff"/>
        <rect id="Retângulo_810" data-name="Retângulo 810" width="3.813" height="6.423" transform="translate(474.348 67.404)" fill="#ebebeb"/>
        <rect id="Retângulo_811" data-name="Retângulo 811" width="3.813" height="6.423" transform="translate(479.431 67.404)" fill="#ebebeb"/>
        <rect id="Retângulo_812" data-name="Retângulo 812" width="3.813" height="9.509" transform="translate(474.348 74.984)" fill="#ebebeb"/>
        <rect id="Retângulo_813" data-name="Retângulo 813" width="3.813" height="9.509" transform="translate(479.431 74.984)" fill="#ebebeb"/>
        <path id="Caminho_549" data-name="Caminho 549" d="M432.507,339.22H395.151L376.45,363.1h41.8Z" transform="translate(176.99 -293.444)" fill="#c7c7c7"/>
        <path id="Caminho_550" data-name="Caminho 550" d="M400.309,355.214v29.072H379.52V355.214l10.394-13Z" transform="translate(180.887 -289.648)" fill="#dbdbdb"/>
        <path id="Caminho_551" data-name="Caminho 551" d="M388.68,347.93h16.363l-16.363,29.1Z" transform="translate(192.516 -282.387)" fill="#c7c7c7"/>
        <rect id="Retângulo_814" data-name="Retângulo 814" width="11.824" height="19.949" transform="translate(564.356 66.02)" fill="#fbfaff"/>
        <rect id="Retângulo_815" data-name="Retângulo 815" width="3.813" height="6.423" transform="translate(565.809 67.404)" fill="#ebebeb"/>
        <rect id="Retângulo_816" data-name="Retângulo 816" width="3.813" height="6.423" transform="translate(570.915 67.404)" fill="#ebebeb"/>
        <rect id="Retângulo_817" data-name="Retângulo 817" width="3.813" height="9.509" transform="translate(565.809 74.984)" fill="#ebebeb"/>
        <rect id="Retângulo_818" data-name="Retângulo 818" width="3.813" height="9.509" transform="translate(570.915 74.984)" fill="#ebebeb"/>
        <rect id="Retângulo_819" data-name="Retângulo 819" width="20.789" height="27.37" transform="translate(619.686 9.305)" fill="#dbdbdb"/>
        <path id="Caminho_552" data-name="Caminho 552" d="M414.8,323.15h16.34v4.4L414.8,350.52Z" transform="translate(225.675 -313.845)" fill="#c7c7c7"/>
        <rect id="Retângulo_820" data-name="Retângulo 820" width="23.126" height="9.305" transform="translate(617.349)" fill="#c7c7c7"/>
        <rect id="Retângulo_821" data-name="Retângulo 821" width="18.133" height="9.305" transform="translate(640.475)" fill="#a6a6a6"/>
        <rect id="Retângulo_822" data-name="Retângulo 822" width="25.736" height="43.461" transform="translate(465.565 135.807)" fill="#fbfaff"/>
        <rect id="Retângulo_823" data-name="Retângulo 823" width="8.284" height="14.003" transform="translate(468.742 138.825)" fill="#ebebeb"/>
        <rect id="Retângulo_824" data-name="Retângulo 824" width="8.284" height="14.003" transform="translate(479.84 138.825)" fill="#ebebeb"/>
        <rect id="Retângulo_825" data-name="Retângulo 825" width="8.284" height="20.743" transform="translate(468.742 155.347)" fill="#ebebeb"/>
        <rect id="Retângulo_826" data-name="Retângulo 826" width="8.284" height="20.743" transform="translate(479.84 155.347)" fill="#ebebeb"/>
        <rect id="Retângulo_827" data-name="Retângulo 827" width="25.736" height="43.461" transform="translate(561.156 135.807)" fill="#fbfaff"/>
        <rect id="Retângulo_828" data-name="Retângulo 828" width="8.284" height="14.003" transform="translate(564.333 138.825)" fill="#ebebeb"/>
        <rect id="Retângulo_829" data-name="Retângulo 829" width="8.284" height="14.003" transform="translate(575.431 138.825)" fill="#ebebeb"/>
        <rect id="Retângulo_830" data-name="Retângulo 830" width="8.284" height="20.743" transform="translate(564.333 155.347)" fill="#ebebeb"/>
        <rect id="Retângulo_831" data-name="Retângulo 831" width="8.284" height="20.743" transform="translate(575.431 155.347)" fill="#ebebeb"/>
        <rect id="Retângulo_832" data-name="Retângulo 832" width="25.736" height="43.461" transform="translate(465.565 196.198)" fill="#fbfaff"/>
        <rect id="Retângulo_833" data-name="Retângulo 833" width="8.284" height="14.003" transform="translate(468.742 199.217)" fill="#ebebeb"/>
        <rect id="Retângulo_834" data-name="Retângulo 834" width="8.284" height="14.003" transform="translate(479.84 199.217)" fill="#ebebeb"/>
        <rect id="Retângulo_835" data-name="Retângulo 835" width="8.284" height="20.743" transform="translate(468.742 215.738)" fill="#ebebeb"/>
        <rect id="Retângulo_836" data-name="Retângulo 836" width="8.284" height="20.743" transform="translate(479.84 215.738)" fill="#ebebeb"/>
        <rect id="Retângulo_837" data-name="Retângulo 837" width="25.736" height="43.461" transform="translate(561.156 196.198)" fill="#fbfaff"/>
        <rect id="Retângulo_838" data-name="Retângulo 838" width="8.284" height="14.003" transform="translate(564.333 199.217)" fill="#ebebeb"/>
        <rect id="Retângulo_839" data-name="Retângulo 839" width="8.284" height="14.003" transform="translate(575.431 199.217)" fill="#ebebeb"/>
        <rect id="Retângulo_840" data-name="Retângulo 840" width="8.284" height="20.743" transform="translate(564.333 215.738)" fill="#ebebeb"/>
        <rect id="Retângulo_841" data-name="Retângulo 841" width="8.284" height="20.743" transform="translate(575.431 215.738)" fill="#ebebeb"/>
        <rect id="Retângulo_842" data-name="Retângulo 842" width="25.736" height="43.461" transform="translate(513.224 135.807)" fill="#fbfaff"/>
        <rect id="Retângulo_843" data-name="Retângulo 843" width="8.284" height="14.003" transform="translate(516.402 138.825)" fill="#ebebeb"/>
        <rect id="Retângulo_844" data-name="Retângulo 844" width="8.284" height="14.003" transform="translate(527.522 138.825)" fill="#ebebeb"/>
        <rect id="Retângulo_845" data-name="Retângulo 845" width="8.284" height="20.743" transform="translate(516.402 155.347)" fill="#ebebeb"/>
        <rect id="Retângulo_846" data-name="Retângulo 846" width="8.284" height="20.743" transform="translate(527.522 155.347)" fill="#ebebeb"/>
        <rect id="Retângulo_847" data-name="Retângulo 847" width="25.736" height="43.461" transform="translate(513.224 196.493)" fill="#fbfaff"/>
        <rect id="Retângulo_848" data-name="Retângulo 848" width="8.284" height="14.003" transform="translate(516.402 199.489)" fill="#ebebeb"/>
        <rect id="Retângulo_849" data-name="Retângulo 849" width="8.284" height="14.003" transform="translate(527.522 199.489)" fill="#ebebeb"/>
        <rect id="Retângulo_850" data-name="Retângulo 850" width="8.284" height="20.743" transform="translate(516.402 216.034)" fill="#ebebeb"/>
        <rect id="Retângulo_851" data-name="Retângulo 851" width="8.284" height="20.743" transform="translate(527.522 216.034)" fill="#ebebeb"/>
        <rect id="Retângulo_852" data-name="Retângulo 852" width="25.736" height="43.461" transform="translate(683.096 179.268) rotate(180)" fill="#fbfaff"/>
        <rect id="Retângulo_853" data-name="Retângulo 853" width="8.284" height="14.003" transform="translate(671.635 138.825)" fill="#ebebeb"/>
        <rect id="Retângulo_854" data-name="Retângulo 854" width="8.284" height="14.003" transform="translate(660.515 138.825)" fill="#ebebeb"/>
        <rect id="Retângulo_855" data-name="Retângulo 855" width="8.284" height="20.743" transform="translate(671.635 155.347)" fill="#ebebeb"/>
        <rect id="Retângulo_856" data-name="Retângulo 856" width="8.284" height="20.743" transform="translate(660.515 155.347)" fill="#ebebeb"/>
        <rect id="Retângulo_857" data-name="Retângulo 857" width="25.736" height="36.789" transform="translate(683.096 112.09) rotate(180)" fill="#fbfaff"/>
        <rect id="Retângulo_858" data-name="Retângulo 858" width="8.284" height="14.003" transform="translate(671.635 78.298)" fill="#ebebeb"/>
        <rect id="Retângulo_859" data-name="Retângulo 859" width="8.284" height="14.003" transform="translate(660.515 78.298)" fill="#ebebeb"/>
        <rect id="Retângulo_860" data-name="Retângulo 860" width="8.284" height="14.003" transform="translate(671.635 94.979)" fill="#ebebeb"/>
        <rect id="Retângulo_861" data-name="Retângulo 861" width="8.284" height="14.003" transform="translate(660.515 94.979)" fill="#ebebeb"/>
        <rect id="Retângulo_862" data-name="Retângulo 862" width="31.206" height="56.669" transform="translate(684.9 253.35) rotate(-179.73)" fill="#fbfaff"/>
        <rect id="Retângulo_863" data-name="Retângulo 863" width="8.488" height="6.718" transform="translate(666.123 208.941) rotate(-89.73)" fill="#ebebeb"/>
        <rect id="Retângulo_864" data-name="Retângulo 864" width="8.488" height="6.718" transform="translate(657.344 208.896) rotate(-89.73)" fill="#ebebeb"/>
        <rect id="Retângulo_865" data-name="Retângulo 865" width="14.184" height="2.043" transform="translate(676.447 239.83) rotate(-179.73)" fill="#ebebeb"/>
        <rect id="Retângulo_866" data-name="Retângulo 866" width="8.488" height="6.718" transform="translate(670.364 204.618) rotate(-90)" fill="#ebebeb"/>
        <rect id="Retângulo_867" data-name="Retângulo 867" width="8.488" height="6.718" transform="translate(666.1 219.658) rotate(-89.73)" fill="#ebebeb"/>
        <rect id="Retângulo_868" data-name="Retângulo 868" width="8.488" height="6.718" transform="translate(657.253 219.59) rotate(-89.73)" fill="#ebebeb"/>
        <rect id="Retângulo_869" data-name="Retângulo 869" width="8.488" height="6.718" transform="translate(674.902 219.704) rotate(-89.73)" fill="#ebebeb"/>
        <rect id="Retângulo_870" data-name="Retângulo 870" width="8.488" height="6.718" transform="translate(666.054 230.398) rotate(-89.73)" fill="#ebebeb"/>
        <rect id="Retângulo_871" data-name="Retângulo 871" width="8.488" height="6.718" transform="translate(657.23 230.353) rotate(-89.73)" fill="#ebebeb"/>
        <rect id="Retângulo_872" data-name="Retângulo 872" width="8.488" height="6.718" transform="translate(674.856 230.444) rotate(-89.73)" fill="#ebebeb"/>
        <path id="Caminho_553" data-name="Caminho 553" d="M288.985,469.859H144.418L137.95,399.8H288.985Z" transform="translate(-125.785 -216.538)" fill="#dbdbdb"/>
        <path id="Caminho_554" data-name="Caminho 554" d="M204.48,436.118l51.926-65,41.35,65-6.468,70.059H204.48Z" transform="translate(-41.326 -252.947)" fill="#c7c7c7"/>
        <path id="Caminho_555" data-name="Caminho 555" d="M194.366,362.06H351.392l58.167,98.292H393.7l-44.437-73.986L306.57,460.352H132.59Z" transform="translate(-132.59 -264.449)" fill="#a6a6a6"/>
        <rect id="Retângulo_873" data-name="Retângulo 873" width="22.877" height="32.681" transform="translate(34.247 209.27)" fill="#fbfaff"/>
        <rect id="Retângulo_874" data-name="Retângulo 874" width="7.353" height="12.437" transform="translate(37.061 211.948)" fill="#dbdbdb"/>
        <rect id="Retângulo_875" data-name="Retângulo 875" width="7.353" height="12.437" transform="translate(46.933 211.948)" fill="#dbdbdb"/>
        <rect id="Retângulo_876" data-name="Retângulo 876" width="7.353" height="12.437" transform="translate(37.061 226.746)" fill="#dbdbdb"/>
        <rect id="Retângulo_877" data-name="Retângulo 877" width="7.353" height="12.437" transform="translate(46.933 226.746)" fill="#dbdbdb"/>
        <rect id="Retângulo_878" data-name="Retângulo 878" width="22.877" height="32.681" transform="translate(118.264 209.27)" fill="#fbfaff"/>
        <rect id="Retângulo_879" data-name="Retângulo 879" width="7.353" height="12.437" transform="translate(121.078 211.948)" fill="#dbdbdb"/>
        <rect id="Retângulo_880" data-name="Retângulo 880" width="7.353" height="12.437" transform="translate(130.95 211.948)" fill="#dbdbdb"/>
        <rect id="Retângulo_881" data-name="Retângulo 881" width="7.353" height="12.437" transform="translate(121.078 226.746)" fill="#dbdbdb"/>
        <rect id="Retângulo_882" data-name="Retângulo 882" width="7.353" height="12.437" transform="translate(130.95 226.746)" fill="#dbdbdb"/>
        <rect id="Retângulo_883" data-name="Retângulo 883" width="25.214" height="45.798" transform="translate(74.054 207.523)" fill="#fbfaff"/>
        <rect id="Retângulo_884" data-name="Retângulo 884" width="5.424" height="6.854" transform="translate(83.949 210.678)" fill="#dbdbdb"/>
        <rect id="Retângulo_885" data-name="Retângulo 885" width="5.424" height="6.854" transform="translate(91.075 210.678)" fill="#dbdbdb"/>
        <rect id="Retângulo_886" data-name="Retângulo 886" width="11.461" height="1.657" transform="translate(80.93 240.748)" fill="#dbdbdb"/>
        <rect id="Retângulo_887" data-name="Retângulo 887" width="5.424" height="6.854" transform="translate(76.823 210.678)" fill="#dbdbdb"/>
        <rect id="Retângulo_888" data-name="Retângulo 888" width="5.424" height="6.854" transform="translate(83.949 219.347)" fill="#dbdbdb"/>
        <rect id="Retângulo_889" data-name="Retângulo 889" width="5.424" height="6.854" transform="translate(91.075 219.347)" fill="#dbdbdb"/>
        <rect id="Retângulo_890" data-name="Retângulo 890" width="5.424" height="6.854" transform="translate(76.823 219.347)" fill="#dbdbdb"/>
        <rect id="Retângulo_891" data-name="Retângulo 891" width="5.424" height="6.854" transform="translate(83.949 228.016)" fill="#dbdbdb"/>
        <rect id="Retângulo_892" data-name="Retângulo 892" width="5.424" height="6.854" transform="translate(91.075 228.016)" fill="#dbdbdb"/>
        <rect id="Retângulo_893" data-name="Retângulo 893" width="5.424" height="6.854" transform="translate(76.823 228.016)" fill="#dbdbdb"/>
        <rect id="Retângulo_894" data-name="Retângulo 894" width="18.474" height="24.306" transform="translate(76.527 93.685)" fill="#dbdbdb"/>
        <path id="Caminho_556" data-name="Caminho 556" d="M174.45,360.33h14.525v3.9l-14.525,20.4Z" transform="translate(-79.449 -266.645)" fill="#c7c7c7"/>
        <rect id="Retângulo_895" data-name="Retângulo 895" width="20.539" height="8.261" transform="translate(74.462 85.401)" fill="#c7c7c7"/>
        <rect id="Retângulo_896" data-name="Retângulo 896" width="16.113" height="8.261" transform="translate(95.001 85.401)" fill="#a6a6a6"/>
        <path id="Caminho_557" data-name="Caminho 557" d="M229.68,457.708h46.888l4.471-48.318H229.68Z" transform="translate(-9.334 -204.363)" fill="#c7c7c7"/>
        <path id="Caminho_558" data-name="Caminho 558" d="M242.642,415.242,219.47,404.78l.522,58.78h22.65Z" transform="translate(-22.296 -210.216)" fill="#dbdbdb"/>
        <rect id="Retângulo_897" data-name="Retângulo 897" width="19.722" height="35.79" transform="translate(236.527 217.531)" fill="#fbfaff"/>
        <rect id="Retângulo_898" data-name="Retângulo 898" width="4.244" height="5.356" transform="translate(244.266 219.982)" fill="#dbdbdb"/>
        <rect id="Retângulo_899" data-name="Retângulo 899" width="4.244" height="5.356" transform="translate(249.826 219.982)" fill="#dbdbdb"/>
        <rect id="Retângulo_900" data-name="Retângulo 900" width="8.965" height="1.294" transform="translate(241.906 241.089)" fill="#dbdbdb"/>
        <rect id="Retângulo_901" data-name="Retângulo 901" width="4.244" height="5.356" transform="translate(238.706 219.982)" fill="#dbdbdb"/>
        <path id="Caminho_559" data-name="Caminho 559" d="M217.91,403.72h68.13l22.014,16.749H242.647Z" transform="translate(-24.276 -211.561)" fill="#a6a6a6"/>
        <path id="Caminho_560" data-name="Caminho 560" d="M242.647,420.469H217.91V403.72Z" transform="translate(-24.276 -211.561)" fill="#c7c7c7"/>
        <path id="Caminho_561" data-name="Caminho 561" d="M222.36,399.468a11.688,11.688,0,1,0,11.665-11.688A11.688,11.688,0,0,0,222.36,399.468Z" transform="translate(-18.627 -231.797)" fill="#fbfaff"/>
        <path id="Caminho_562" data-name="Caminho 562" d="M223.51,398a9.078,9.078,0,0,0,9.078,9.078,8.42,8.42,0,0,0,2.27-.3,9.078,9.078,0,0,0-2.27-17.838,8.581,8.581,0,0,0-2.27.295,8.241,8.241,0,0,0-2.928,1.362,9.078,9.078,0,0,0-3.881,7.4Z" transform="translate(-17.167 -230.325)" fill="#c7c7c7"/>
        <rect id="Retângulo_902" data-name="Retângulo 902" width="2.519" height="21.515" transform="translate(216.669 178.337) rotate(180)" fill="#fbfaff"/>
        <rect id="Retângulo_903" data-name="Retângulo 903" width="2.519" height="21.515" transform="translate(226.178 166.309) rotate(90)" fill="#fbfaff"/>
        <path id="Caminho_563" data-name="Caminho 563" d="M302.778,460.907H229.723L224.73,406.87h78.048Z" transform="translate(-15.618 -207.563)" fill="#c53f3f"/>
        <path id="Caminho_564" data-name="Caminho 564" d="M302.778,460.907H229.723L224.73,406.87h78.048Z" transform="translate(-15.618 -207.563)" opacity="0.2"/>
        <path id="Caminho_565" data-name="Caminho 565" d="M259.12,434.926l40.057-50.156,31.886,50.156-4.97,54.037H259.12Z" transform="translate(28.04 -235.619)" fill="#c53f3f"/>
        <path id="Caminho_566" data-name="Caminho 566" d="M316.7,452.194H217.57l60.3-75.824h74.462l44.754,75.824h-11.37l-33.384-51.949Z" transform="translate(-24.708 -246.282)" fill="#c53f3f"/>
        <path id="Caminho_567" data-name="Caminho 567" d="M316.7,452.194H217.57l60.3-75.824h74.462l44.754,75.824h-11.37l-33.384-51.949Z" transform="translate(-24.708 -246.282)" opacity="0.4"/>
        <rect id="Retângulo_904" data-name="Retângulo 904" width="20.652" height="27.189" transform="translate(371.381 63.024)" fill="#c53f3f"/>
        <rect id="Retângulo_905" data-name="Retângulo 905" width="20.652" height="27.189" transform="translate(371.381 63.024)" opacity="0.2"/>
        <rect id="Retângulo_906" data-name="Retângulo 906" width="16.25" height="27.189" transform="translate(392.033 63.024)" fill="#c53f3f"/>
        <rect id="Retângulo_907" data-name="Retângulo 907" width="22.967" height="9.237" transform="translate(369.066 53.764)" fill="#c53f3f"/>
        <rect id="Retângulo_908" data-name="Retângulo 908" width="22.967" height="9.237" transform="translate(369.066 53.764)" opacity="0.5"/>
        <rect id="Retângulo_909" data-name="Retângulo 909" width="18.02" height="9.237" transform="translate(392.033 53.764)" fill="#c53f3f"/>
        <rect id="Retângulo_910" data-name="Retângulo 910" width="18.02" height="9.237" transform="translate(392.033 53.764)" opacity="0.4"/>
        <path id="Caminho_568" data-name="Caminho 568" d="M431.811,474.486H270.11l-7.24-78.366H431.811Z" transform="translate(32.8 -221.21)" fill="#c53f3f"/>
        <path id="Caminho_569" data-name="Caminho 569" d="M431.811,474.486H270.11l-7.24-78.366H431.811Z" transform="translate(32.8 -221.21)" opacity="0.2"/>
        <path id="Caminho_570" data-name="Caminho 570" d="M337.31,436.807l58.076-72.737,46.252,72.737-7.24,78.366H337.31Z" transform="translate(127.302 -261.897)" fill="#c53f3f"/>
        <path id="Caminho_571" data-name="Caminho 571" d="M506.754,381.588l47.75,73.849h16.681l-63-101.537H336.179L249.03,463.857H459.117Z" transform="translate(15.23 -274.808)" fill="#c53f3f"/>
        <path id="Caminho_572" data-name="Caminho 572" d="M506.754,381.588l47.75,73.849h16.681l-63-101.537H336.179L249.03,463.857H459.117Z" transform="translate(15.23 -274.808)" opacity="0.5"/>
        <rect id="Retângulo_911" data-name="Retângulo 911" width="25.577" height="36.562" transform="translate(533.173 185.917) rotate(180)" fill="#fbfaff"/>
        <rect id="Retângulo_912" data-name="Retângulo 912" width="8.238" height="13.912" transform="translate(521.78 152.329)" fill="#c53f3f"/>
        <rect id="Retângulo_913" data-name="Retângulo 913" width="8.238" height="13.912" transform="translate(510.751 152.329)" fill="#c53f3f"/>
        <rect id="Retângulo_914" data-name="Retângulo 914" width="8.238" height="13.912" transform="translate(521.78 168.896)" fill="#c53f3f"/>
        <rect id="Retângulo_915" data-name="Retângulo 915" width="8.238" height="13.912" transform="translate(510.751 168.896)" fill="#c53f3f"/>
        <rect id="Retângulo_916" data-name="Retângulo 916" width="25.577" height="36.562" transform="translate(320.362 203.982)" fill="#fbfaff"/>
        <rect id="Retângulo_917" data-name="Retângulo 917" width="8.238" height="13.912" transform="translate(323.517 206.978)" fill="#c53f3f"/>
        <rect id="Retângulo_918" data-name="Retângulo 918" width="8.238" height="13.912" transform="translate(334.569 206.978)" fill="#c53f3f"/>
        <rect id="Retângulo_919" data-name="Retângulo 919" width="8.238" height="13.912" transform="translate(323.517 223.546)" fill="#c53f3f"/>
        <rect id="Retângulo_920" data-name="Retângulo 920" width="8.238" height="13.912" transform="translate(334.569 223.546)" fill="#c53f3f"/>
        <rect id="Retângulo_921" data-name="Retângulo 921" width="25.577" height="36.562" transform="translate(367.364 203.982)" fill="#fbfaff"/>
        <rect id="Retângulo_922" data-name="Retângulo 922" width="8.238" height="13.912" transform="translate(370.496 206.978)" fill="#c53f3f"/>
        <rect id="Retângulo_923" data-name="Retângulo 923" width="8.238" height="13.912" transform="translate(381.548 206.978)" fill="#c53f3f"/>
        <rect id="Retângulo_924" data-name="Retângulo 924" width="8.238" height="13.912" transform="translate(370.496 223.546)" fill="#c53f3f"/>
        <rect id="Retângulo_925" data-name="Retângulo 925" width="8.238" height="13.912" transform="translate(381.548 223.546)" fill="#c53f3f"/>
        <rect id="Retângulo_926" data-name="Retângulo 926" width="25.577" height="36.562" transform="translate(414.342 203.982)" fill="#fbfaff"/>
        <rect id="Retângulo_927" data-name="Retângulo 927" width="8.238" height="13.912" transform="translate(417.497 206.978)" fill="#c53f3f"/>
        <rect id="Retângulo_928" data-name="Retângulo 928" width="8.238" height="13.912" transform="translate(428.527 206.978)" fill="#c53f3f"/>
        <rect id="Retângulo_929" data-name="Retângulo 929" width="8.238" height="13.912" transform="translate(417.497 223.546)" fill="#c53f3f"/>
        <rect id="Retângulo_930" data-name="Retângulo 930" width="8.238" height="13.912" transform="translate(428.527 223.546)" fill="#c53f3f"/>
        <rect id="Retângulo_931" data-name="Retângulo 931" width="28.21" height="51.223" transform="translate(534.489 253.253) rotate(180)" fill="#fbfaff"/>
        <rect id="Retângulo_932" data-name="Retângulo 932" width="6.082" height="7.671" transform="translate(517.355 205.571)" fill="#c53f3f"/>
        <rect id="Retângulo_933" data-name="Retângulo 933" width="6.082" height="7.671" transform="translate(509.389 205.571)" fill="#c53f3f"/>
        <rect id="Retângulo_934" data-name="Retângulo 934" width="12.823" height="1.861" transform="translate(526.796 241.066) rotate(180)" fill="#c53f3f"/>
        <rect id="Retângulo_935" data-name="Retângulo 935" width="6.082" height="7.671" transform="translate(525.298 205.571)" fill="#c53f3f"/>
        <rect id="Retângulo_936" data-name="Retângulo 936" width="6.082" height="7.671" transform="translate(517.355 215.262)" fill="#c53f3f"/>
        <rect id="Retângulo_937" data-name="Retângulo 937" width="6.082" height="7.671" transform="translate(509.389 215.262)" fill="#c53f3f"/>
        <rect id="Retângulo_938" data-name="Retângulo 938" width="6.082" height="7.671" transform="translate(525.298 215.262)" fill="#c53f3f"/>
        <rect id="Retângulo_939" data-name="Retângulo 939" width="6.082" height="7.671" transform="translate(517.355 224.953)" fill="#c53f3f"/>
        <rect id="Retângulo_940" data-name="Retângulo 940" width="6.082" height="7.671" transform="translate(509.389 224.953)" fill="#c53f3f"/>
        <rect id="Retângulo_941" data-name="Retângulo 941" width="6.082" height="7.671" transform="translate(525.298 224.953)" fill="#c53f3f"/>
        <path id="Caminho_573" data-name="Caminho 573" d="M348.215,365.5H311.087L292,389.33h42.031Z" transform="translate(69.781 -260.082)" fill="#c53f3f"/>
        <path id="Caminho_574" data-name="Caminho 574" d="M348.215,365.5H311.087L292,389.33h42.031Z" transform="translate(69.781 -260.082)" opacity="0.4"/>
        <path id="Caminho_575" data-name="Caminho 575" d="M315.945,381.383v28.891H295.27V381.383l10.349-12.913Z" transform="translate(73.932 -256.311)" fill="#c53f3f"/>
        <path id="Caminho_576" data-name="Caminho 576" d="M315.945,381.383v28.891H295.27V381.383l10.349-12.913Z" transform="translate(73.932 -256.311)" opacity="0.2"/>
        <path id="Caminho_577" data-name="Caminho 577" d="M304.38,374.16h16.25l-16.25,28.891Z" transform="translate(85.497 -249.088)" fill="#c53f3f"/>
        <rect id="Retângulo_942" data-name="Retângulo 942" width="11.733" height="19.813" transform="translate(373.128 125.526)" fill="#fbfaff"/>
        <rect id="Retângulo_943" data-name="Retângulo 943" width="3.79" height="6.377" transform="translate(374.581 126.888)" fill="#c53f3f"/>
        <rect id="Retângulo_944" data-name="Retângulo 944" width="3.79" height="6.377" transform="translate(379.642 126.888)" fill="#c53f3f"/>
        <rect id="Retângulo_945" data-name="Retângulo 945" width="3.79" height="9.464" transform="translate(374.581 134.445)" fill="#c53f3f"/>
        <rect id="Retângulo_946" data-name="Retângulo 946" width="3.79" height="9.464" transform="translate(379.642 134.445)" fill="#c53f3f"/>
      </g>
      <g id="freepik--speech-bubble--inject-5" transform="translate(795.303 448.803)">
        <path id="Caminho_578" data-name="Caminho 578" d="M477.616,253.468a71.58,71.58,0,0,1-30.275,124.278l-15.887,32.522-15.41-32.3a70.852,70.852,0,0,1-31.206-15.432,71.6,71.6,0,0,1,92.8-109.072Z" transform="translate(-358.629 -236.286)" fill="#fff"/>
        <path id="Caminho_579" data-name="Caminho 579" d="M478.178,253.531a71.966,71.966,0,0,1,21.764,32.431,78.153,78.153,0,0,1,2.5,9.577,80.075,80.075,0,0,1,1.021,9.85,71.063,71.063,0,0,1-1.838,19.7,71.857,71.857,0,0,1-7.1,18.5,69.946,69.946,0,0,1-5.47,8.306,64.243,64.243,0,0,1-6.445,7.58,72.057,72.057,0,0,1-34.474,19.336l.7-.545-15.7,32.613-1.135,2.383-1.135-2.383-15.523-32.227.953.749a72.442,72.442,0,0,1-28.573-128.408,73.327,73.327,0,0,1,29.5-13.208,71.989,71.989,0,0,1,60.959,15.75Zm0,0a70.955,70.955,0,0,0-116.9,54.173,73.94,73.94,0,0,0,7.172,30.865,70.513,70.513,0,0,0,19.813,24.624,71.374,71.374,0,0,0,28.573,13.481l.681.159.272.613,15.319,32.34h-2.27l16.136-32.409.2-.454h.476A70.513,70.513,0,0,0,481.7,358.632a64.077,64.077,0,0,0,6.468-7.353,67.885,67.885,0,0,0,5.515-8.1,69.97,69.97,0,0,0,7.353-18.156A67.331,67.331,0,0,0,503.12,305.5a83.8,83.8,0,0,0-.931-9.8,80.7,80.7,0,0,0-2.428-9.555A71.921,71.921,0,0,0,478.178,253.531Z" transform="translate(-359.191 -236.349)" fill="#263238"/>
        <path id="Caminho_580" data-name="Caminho 580" d="M425.952,274.933a14.889,14.889,0,0,0-2.633-2.133,29.2,29.2,0,0,0-3.972-2.156A31.637,31.637,0,0,0,408.8,267.92v20.426l1.884.386a90.784,90.784,0,0,1,9.6,2.86,27.53,27.53,0,0,1,7.24,3.835,15.726,15.726,0,0,1,4.539,5.56,18.292,18.292,0,0,1,1.611,8.034,19.449,19.449,0,0,1-1.861,8.9,17.271,17.271,0,0,1-5.174,6.173,23.262,23.262,0,0,1-7.694,3.676,37.4,37.4,0,0,1-9.4,1.339v10.349h-5.106V328.9a49.112,49.112,0,0,1-13.617-2.792,42.161,42.161,0,0,1-11.711-6.468l5.016-9.441a17.636,17.636,0,0,0,3.155,2.565,37.547,37.547,0,0,0,4.811,2.655,43.842,43.842,0,0,0,6.06,2.27,39.845,39.845,0,0,0,6.809,1.384V298.649c-.386-.113-.817-.25-1.225-.34a9.673,9.673,0,0,1-1.225-.34,84.111,84.111,0,0,1-9.078-2.9,22.692,22.692,0,0,1-6.445-3.7A14.161,14.161,0,0,1,383.1,286.3a16.59,16.59,0,0,1-1.339-7.058,20.425,20.425,0,0,1,1.68-8.556,18.677,18.677,0,0,1,4.72-6.445A22.193,22.193,0,0,1,395.291,260a32.7,32.7,0,0,1,9.078-1.906V248.13h5.106v9.963a37.332,37.332,0,0,1,11.824,2.565,43.127,43.127,0,0,1,9.555,5.2Zm-32.5,2.542a7.1,7.1,0,0,0,2.9,6.218,28.1,28.1,0,0,0,8.806,3.631v-19.4a14.3,14.3,0,0,0-8.874,2.814,8.511,8.511,0,0,0-2.837,6.74Zm28.528,32.7a7.286,7.286,0,0,0-3.45-6.536,36.312,36.312,0,0,0-9.668-3.994v19.495a18.156,18.156,0,0,0,9.713-2.27,7.512,7.512,0,0,0,3.4-6.695Z" transform="translate(-333.904 -221.393)" fill="#efb542"/>
      </g>
    </g>
  </g>
</svg>
