<svg xmlns="http://www.w3.org/2000/svg" width="48" height="48" viewBox="0 0 48 48">
  <g id="image-5" transform="translate(-12 -12)">
    <g id="color">
      <circle id="Elipse_8" data-name="Elipse 8" cx="23" cy="23" r="23" transform="translate(13 13)" fill="#efb542"/>
      <path id="Caminho_16" data-name="Caminho 16" d="M26.5,27.438c-1.265-3.354-6.441-3.569-6.117,1.318a3.745,3.745,0,0,0,.641,1.813l5.318,6.422h0l5.221-6.266a3.8,3.8,0,0,0,.9-2.485c-.086-4.352-5.051-4.035-6.127-.8" fill="#8a1d26"/>
      <path id="Caminho_17" data-name="Caminho 17" d="M45.8,27.438c-1.255-3.354-6.387-3.569-6.066,1.318a3.766,3.766,0,0,0,.636,1.813l5.274,6.422h0l5.178-6.266a3.821,3.821,0,0,0,.9-2.485c-.086-4.352-5.009-4.035-6.076-.8" fill="#8a1d26"/>
      <path id="Caminho_18" data-name="Caminho 18" d="M48.586,42.674c0,5.63-4.178,10.1-12.554,10.1s-12.607-4.489-12.607-10.1C23.425,42.673,36.45,45.7,48.586,42.674Z" fill="#fff"/>
    </g>
    <g id="line">
      <path id="Caminho_19" data-name="Caminho 19" d="M48.111,44.547" fill="none" stroke="#8a1d26" stroke-linecap="round" stroke-linejoin="round" stroke-miterlimit="10" stroke-width="2"/>
      <path id="Caminho_20" data-name="Caminho 20" d="M23.934,44.547" fill="none" stroke="#8a1d26" stroke-linecap="round" stroke-linejoin="round" stroke-miterlimit="10" stroke-width="2"/>
      <circle id="Elipse_9" data-name="Elipse 9" cx="23" cy="23" r="23" transform="translate(13 13)" fill="none" stroke="#8a1d26" stroke-linecap="round" stroke-linejoin="round" stroke-miterlimit="10" stroke-width="2"/>
      <path id="Caminho_21" data-name="Caminho 21" d="M48.586,42.674c0,5.63-4.178,10.1-12.554,10.1s-12.607-4.489-12.607-10.1C23.425,42.673,36.45,45.7,48.586,42.674Z" fill="none" stroke="#8a1d26" stroke-linecap="round" stroke-linejoin="round" stroke-miterlimit="10" stroke-width="2"/>
      <path id="Caminho_22" data-name="Caminho 22" d="M26.5,27.438c-1.265-3.354-6.441-3.569-6.117,1.318a3.745,3.745,0,0,0,.641,1.813l5.318,6.422h0l5.221-6.266a3.8,3.8,0,0,0,.9-2.485c-.086-4.352-5.051-4.035-6.127-.8" fill="none" stroke="#8a1d26" stroke-linecap="round" stroke-linejoin="round" stroke-miterlimit="10" stroke-width="2"/>
      <path id="Caminho_23" data-name="Caminho 23" d="M45.8,27.438c-1.255-3.354-6.387-3.569-6.066,1.318a3.766,3.766,0,0,0,.636,1.813l5.274,6.422h0l5.178-6.266a3.821,3.821,0,0,0,.9-2.485c-.086-4.352-5.009-4.035-6.076-.8" fill="none" stroke="#8a1d26" stroke-linecap="round" stroke-linejoin="round" stroke-miterlimit="10" stroke-width="2"/>
    </g>
  </g>
</svg>
