<svg xmlns="http://www.w3.org/2000/svg" xmlns:xlink="http://www.w3.org/1999/xlink" width="458" height="466" viewBox="0 0 458 466">
  <defs>
    <clipPath id="clip-Web_1920_4">
      <rect width="458" height="466"/>
    </clipPath>
  </defs>
  <g id="Web_1920_4" data-name="Web 1920 – 4" clip-path="url(#clip-Web_1920_4)">
    <rect width="458" height="466" fill="rgba(255,255,255,0)"/>
    <path id="local-de-residencia" d="M394.087,98.706,272.509,16.653a96.3,96.3,0,0,0-108.276,0L42.655,98.687A96.629,96.629,0,0,0,0,178.921V340.06a96.884,96.884,0,0,0,96.775,96.775H339.968a96.884,96.884,0,0,0,96.775-96.775V178.921A96.575,96.575,0,0,0,394.087,98.706ZM382.15,340.06a42.237,42.237,0,0,1-42.182,42.182H96.775A42.237,42.237,0,0,1,54.593,340.06V178.921a42.164,42.164,0,0,1,18.58-34.976l121.542-81.98a42.055,42.055,0,0,1,47.186,0l121.6,82.071a42.109,42.109,0,0,1,18.653,34.885ZM218.371,145.674A90.988,90.988,0,0,0,154.025,300.99l48.205,47.15a23.093,23.093,0,0,0,32.283,0L282.7,300.99a90.988,90.988,0,0,0-64.329-155.317Zm0,119.267a27.3,27.3,0,1,1,27.3-27.3A27.3,27.3,0,0,1,218.371,264.941Z" transform="translate(10.629 11.085)" fill="#8a1d26"/>
    <path id="Caminho_1210" data-name="Caminho 1210" d="M486.117,155.476,411.711,81.07H353.75L418.077,145.4h-17.7v82.5h68.04V155.476Z" transform="translate(82.969 -46.283)" fill="#e5e0e0"/>
  </g>
</svg>
