<svg xmlns="http://www.w3.org/2000/svg" xmlns:xlink="http://www.w3.org/1999/xlink" width="507" height="491" viewBox="0 0 507 491">
  <defs>
    <clipPath id="clip-Web_1920_6">
      <rect width="507" height="491"/>
    </clipPath>
  </defs>
  <g id="Web_1920_6" data-name="Web 1920 – 6" clip-path="url(#clip-Web_1920_6)">
    <rect width="507" height="491" fill="rgba(255,255,255,0)"/>
    <path id="local-de-residencia_1_" data-name="local-de-residencia (1)" d="M106.165,63.1c-14.316,0-27.225,7.683-32.7,19.474s-2.45,25.363,7.676,34.386l25.028,21.855,25.09-21.878c10.114-9.032,13.128-22.607,7.635-34.392S120.481,63.088,106.165,63.1Zm0,39.371c-4.886,0-8.847-3.531-8.847-7.887s3.961-7.887,8.847-7.887,8.847,3.531,8.847,7.887S111.051,102.475,106.165,102.475Zm95.982-41.9L122.523,5.033a29.122,29.122,0,0,0-32.734,0L10.165,60.58A22.7,22.7,0,0,0,0,79.217V189.294H212.33V79.217A22.705,22.705,0,0,0,202.147,60.58ZM143.7,128.115l-37.538,32.73L68.7,128.171c-20.749-18.464-20.779-48.427-.066-66.924s54.323-18.523,75.072-.059h0C164.4,79.683,164.4,109.62,143.7,128.115Z" transform="translate(119.008 106.904)" fill="#fff"/>
    <g id="coracao-de-busca" transform="translate(8.65 8.847)">
      <path id="Caminho_1903" data-name="Caminho 1903" d="M482.366,416.484l-95.044-90.207c71.115-90.169,51.733-217.969-43.29-285.452S114.326-8.265,43.211,81.9-8.522,299.873,86.5,367.355c76.338,54.212,181.192,54.212,257.53,0L439.1,457.581a31.773,31.773,0,0,0,43.27,0,28,28,0,0,0,0-41.059v-.038ZM63.1,204.82C63.1,124.672,131.572,59.7,216.036,59.7S368.97,124.672,368.97,204.82,300.5,349.941,216.036,349.941C131.609,349.855,63.191,284.932,63.1,204.82Z" transform="translate(0 0)" fill="#fff"/>
    </g>
  </g>
</svg>
