<svg xmlns="http://www.w3.org/2000/svg" xmlns:xlink="http://www.w3.org/1999/xlink" width="527" height="536" viewBox="0 0 527 536">
  <defs>
    <clipPath id="clip-Web_1920_5">
      <rect width="527" height="536"/>
    </clipPath>
  </defs>
  <g id="Web_1920_5" data-name="Web 1920 – 5" clip-path="url(#clip-Web_1920_5)">
    <rect width="527" height="536" fill="rgba(255,255,255,0)"/>
    <g id="coracao-de-busca" transform="translate(-0.35 -0.153)">
      <path id="Caminho_1905" data-name="Caminho 1905" d="M272,149.333a50.56,50.56,0,0,0-48,52.8,50.56,50.56,0,0,0-48-52.8,50.56,50.56,0,0,0-48,52.8c0,41.536,54.144,90.987,81.067,112.64a23.808,23.808,0,0,0,29.867,0C265.9,293.12,320,243.669,320,202.133A50.56,50.56,0,0,0,272,149.333Z" fill="#fff"/>
      <path id="Caminho_1906" data-name="Caminho 1906" d="M502.661,457.373l-99.046-99.067c74.109-99.025,53.911-239.377-45.113-313.487S119.125-9.092,45.016,89.933-8.9,329.31,90.129,403.419a223.952,223.952,0,0,0,268.373,0l99.067,99.088a31.885,31.885,0,0,0,45.092-45.092v-.042ZM65.743,224.921A159.374,159.374,0,1,1,225.117,384.295,159.374,159.374,0,0,1,65.743,224.921Z" fill="#fff"/>
    </g>
  </g>
</svg>
